M48
METRIC,LZ,000.000
;FILE_FORMAT=3:3
;TYPE=PLATED
;Layer: PTH_Through
;EasyEDA v6.5.46, 2025-01-11 20:36:01
;d8dedb76399b4d20b27dfa51e3b01321,73d145917ff44f83893672ed6d267c12,10
;Gerber Generator version 0.2
;Holesize 1 = 0.306 mm
T01C0.306
;Holesize 2 = 0.889 mm
T02C0.889
;Holesize 3 = 0.915 mm
T03C0.915
;Holesize 4 = 1.000 mm
T04C1.000
;Holesize 5 = 1.050 mm
T05C1.050
;Holesize 6 = 1.101 mm
T06C1.101
;Holesize 7 = 2.500 mm
T07C2.500
%
G05
G90
T01
X021936Y009522
X016256Y067947
X024644Y007897
X023528Y067873
X025207Y062163
X002564Y065600
T02
X003488Y070063
X003488Y072603
X003488Y075143
X003488Y077683
T03
X008128Y002921
X008128Y005461
X008128Y008001
X008128Y010541
X008128Y013081
X008128Y015621
X008128Y018161
X008128Y020701
X008128Y023241
X008128Y025781
X008128Y028321
X008128Y030861
X008128Y033401
X008128Y035941
X008128Y038481
X008128Y041021
X008128Y043561
X008128Y046101
X008128Y048641
X008128Y051181
X008128Y053721
X008128Y056261
X033528Y002921
X033528Y005461
X033528Y008001
X033528Y010541
X033528Y013081
X033528Y015621
X033528Y018161
X033528Y020701
X033528Y023241
X033528Y025781
X033528Y028321
X033528Y030861
X033528Y033401
X033528Y035941
X033528Y038481
X033528Y041021
X033528Y043561
X033528Y046101
X033528Y048641
X033528Y051181
X033528Y053721
X033528Y056261
X013335Y020193
X015875Y020193
X018415Y020193
X020955Y020193
X023495Y020193
X026035Y020193
X028575Y020193
X020447Y004382
X020447Y012382
X022987Y004382
X017907Y004382
X017907Y012382
X022987Y012382
T04
X025828Y049530
X015828Y049530
T05
X003556Y056007
X003556Y053467
X003556Y050927
X003556Y048387
X003556Y045847
X003556Y043307
X003556Y040767
X003556Y038227
X003556Y035687
X003556Y033147
X003556Y030607
X003556Y028067
X003556Y025527
X003556Y022987
X003556Y020447
X003556Y017907
X003556Y015367
X003556Y012827
X003556Y010287
X003556Y007747
X003556Y005207
X003556Y002667
X037973Y056261
X037973Y053721
X037973Y051181
X037973Y048641
X037973Y046101
X037973Y043561
X037973Y041021
X037973Y038481
X037973Y035941
X037973Y033401
X037973Y030861
X037973Y028321
X037973Y025781
X037973Y023241
X037973Y020701
X037973Y018161
X037973Y015621
X037973Y013081
X037973Y010541
X037973Y008001
X037973Y005461
X037973Y002921
T06
X019177Y033147
X022733Y033147
T07
X014605Y034163
X027305Y034163
M30
