G04 Layer: TopSolderMaskLayer*
G04 EasyEDA v6.5.46, 2025-01-11 20:36:01*
G04 d8dedb76399b4d20b27dfa51e3b01321,73d145917ff44f83893672ed6d267c12,10*
G04 Gerber Generator version 0.2*
G04 Scale: 100 percent, Rotated: No, Reflected: No *
G04 Dimensions in millimeters *
G04 leading zeros omitted , absolute positions ,4 integer and 5 decimal *
%FSLAX45Y45*%
%MOMM*%

%AMMACRO1*4,1,8,-0.8295,-0.889,-0.889,-0.8295,-0.889,0.8295,-0.8295,0.889,0.8295,0.889,0.889,0.8295,0.889,-0.8295,0.8295,-0.889,-0.8295,-0.889,0*%
%AMMACRO2*4,1,8,-0.3711,-0.6508,-0.4008,-0.621,-0.4008,0.6211,-0.3711,0.6508,0.371,0.6508,0.4008,0.6211,0.4008,-0.621,0.371,-0.6508,-0.3711,-0.6508,0*%
%AMMACRO3*4,1,8,-0.7831,-0.3508,-0.8128,-0.321,-0.8128,0.3211,-0.7831,0.3508,0.783,0.3508,0.8128,0.3211,0.8128,-0.321,0.783,-0.3508,-0.7831,-0.3508,0*%
%AMMACRO4*4,1,8,-0.9211,-1.0508,-0.9508,-1.021,-0.9508,1.0211,-0.9211,1.0508,0.921,1.0508,0.9508,1.0211,0.9508,-1.021,0.921,-1.0508,-0.9211,-1.0508,0*%
%AMMACRO5*4,1,8,-1.0211,-2.0508,-1.0508,-2.021,-1.0508,2.0211,-1.0211,2.0508,1.021,2.0508,1.0508,2.0211,1.0508,-2.021,1.021,-2.0508,-1.0211,-2.0508,0*%
%AMMACRO6*4,1,8,-1.2711,-1.0508,-1.3008,-1.021,-1.3008,1.0211,-1.2711,1.0508,1.271,1.0508,1.3008,1.0211,1.3008,-1.021,1.271,-1.0508,-1.2711,-1.0508,0*%
%AMMACRO7*4,1,8,-0.8421,-1.3016,-0.9016,-1.2421,-0.9016,1.2421,-0.8421,1.3016,0.8421,1.3016,0.9016,1.2421,0.9016,-1.2421,0.8421,-1.3016,-0.8421,-1.3016,0*%
%AMMACRO8*4,1,8,-1.8421,-1.1016,-1.9016,-1.0421,-1.9016,1.0421,-1.8421,1.1016,1.8421,1.1016,1.9016,1.0421,1.9016,-1.0421,1.8421,-1.1016,-1.8421,-1.1016,0*%
%AMMACRO9*4,1,8,-0.8211,-0.8508,-0.8508,-0.821,-0.8508,0.8211,-0.8211,0.8508,0.821,0.8508,0.8508,0.8211,0.8508,-0.821,0.821,-0.8508,-0.8211,-0.8508,0*%
%ADD10C,1.7780*%
%ADD11MACRO1*%
%ADD12MACRO2*%
%ADD13MACRO3*%
%ADD14C,1.6256*%
%ADD15MACRO4*%
%ADD16MACRO5*%
%ADD17MACRO6*%
%ADD18C,2.2032*%
%ADD19MACRO7*%
%ADD20MACRO8*%
%ADD21MACRO9*%
%ADD22C,1.7016*%

%LPD*%
D10*
G01*
X348894Y7006234D03*
G01*
X348894Y7260234D03*
G01*
X348894Y7514234D03*
D11*
G01*
X348896Y7768235D03*
D12*
G01*
X390194Y5875700D03*
G01*
X160192Y5875700D03*
G01*
X160192Y6595696D03*
G01*
X390194Y6595696D03*
D13*
G01*
X500192Y6010696D03*
G01*
X500192Y6160696D03*
G01*
X500192Y6460698D03*
D14*
G01*
X812800Y292100D03*
G01*
X812800Y546100D03*
G01*
X812800Y800100D03*
G01*
X812800Y1054100D03*
G01*
X812800Y1308100D03*
G01*
X812800Y1562100D03*
G01*
X812800Y1816100D03*
G01*
X812800Y2070100D03*
G01*
X812800Y2324100D03*
G01*
X812800Y2578100D03*
G01*
X812800Y2832100D03*
G01*
X812800Y3086100D03*
G01*
X812800Y3340100D03*
G01*
X812800Y3594100D03*
G01*
X812800Y3848100D03*
G01*
X812800Y4102100D03*
G01*
X812800Y4356100D03*
G01*
X812800Y4610100D03*
G01*
X812800Y4864100D03*
G01*
X812800Y5118100D03*
G01*
X812800Y5372100D03*
G01*
X812800Y5626100D03*
G01*
X3352800Y292100D03*
G01*
X3352800Y546100D03*
G01*
X3352800Y800100D03*
G01*
X3352800Y1054100D03*
G01*
X3352800Y1308100D03*
G01*
X3352800Y1562100D03*
G01*
X3352800Y1816100D03*
G01*
X3352800Y2070100D03*
G01*
X3352800Y2324100D03*
G01*
X3352800Y2578100D03*
G01*
X3352800Y2832100D03*
G01*
X3352800Y3086100D03*
G01*
X3352800Y3340100D03*
G01*
X3352800Y3594100D03*
G01*
X3352800Y3848100D03*
G01*
X3352800Y4102100D03*
G01*
X3352800Y4356100D03*
G01*
X3352800Y4610100D03*
G01*
X3352800Y4864100D03*
G01*
X3352800Y5118100D03*
G01*
X3352800Y5372100D03*
G01*
X3352800Y5626100D03*
D15*
G01*
X2222500Y7937500D03*
G01*
X1816100Y7937500D03*
D16*
G01*
X2425700Y6477000D03*
G01*
X1625600Y6477000D03*
D17*
G01*
X1422401Y7239000D03*
G01*
X2628901Y7239000D03*
D14*
G01*
X1333500Y2019300D03*
G01*
X1587500Y2019300D03*
G01*
X1841500Y2019300D03*
G01*
X2095500Y2019300D03*
G01*
X2349500Y2019300D03*
G01*
X2603500Y2019300D03*
G01*
X2857500Y2019300D03*
D18*
G01*
X1917700Y3314700D03*
G01*
X2273300Y3314700D03*
D14*
G01*
X2044700Y438200D03*
G01*
X2044700Y1238199D03*
G01*
X2298700Y438200D03*
G01*
X1790700Y438200D03*
G01*
X1790700Y1238199D03*
G01*
X2298700Y1238199D03*
D19*
G01*
X3948107Y7585801D03*
G01*
X3948107Y6485798D03*
D20*
G01*
X3403107Y6785800D03*
G01*
X3403107Y7285799D03*
G01*
X3403107Y7035800D03*
D21*
G01*
X355600Y5600700D03*
D22*
G01*
X355600Y5346700D03*
G01*
X355600Y5092700D03*
G01*
X355600Y4838700D03*
G01*
X355600Y4584700D03*
G01*
X355600Y4330700D03*
G01*
X355600Y4076700D03*
G01*
X355600Y3822700D03*
G01*
X355600Y3568700D03*
G01*
X355600Y3314700D03*
G01*
X355600Y3060700D03*
G01*
X355600Y2806700D03*
G01*
X355600Y2552700D03*
G01*
X355600Y2298700D03*
G01*
X355600Y2044700D03*
G01*
X355600Y1790700D03*
G01*
X355600Y1536700D03*
G01*
X355600Y1282700D03*
G01*
X355600Y1028700D03*
G01*
X355600Y774700D03*
G01*
X355600Y520700D03*
G01*
X355600Y266700D03*
D21*
G01*
X3797300Y5626100D03*
D22*
G01*
X3797300Y5372100D03*
G01*
X3797300Y5118100D03*
G01*
X3797300Y4864100D03*
G01*
X3797300Y4610100D03*
G01*
X3797300Y4356100D03*
G01*
X3797300Y4102100D03*
G01*
X3797300Y3848100D03*
G01*
X3797300Y3594100D03*
G01*
X3797300Y3340100D03*
G01*
X3797300Y3086100D03*
G01*
X3797300Y2832100D03*
G01*
X3797300Y2578100D03*
G01*
X3797300Y2324100D03*
G01*
X3797300Y2070100D03*
G01*
X3797300Y1816100D03*
G01*
X3797300Y1562100D03*
G01*
X3797300Y1308100D03*
G01*
X3797300Y1054100D03*
G01*
X3797300Y800100D03*
G01*
X3797300Y546100D03*
G01*
X3797300Y292100D03*
D18*
G01*
X2582799Y4953000D03*
G01*
X1582801Y4953000D03*
M02*
