G04 Layer: BottomLayer*
G04 EasyEDA v6.5.46, 2025-01-11 20:36:01*
G04 d8dedb76399b4d20b27dfa51e3b01321,73d145917ff44f83893672ed6d267c12,10*
G04 Gerber Generator version 0.2*
G04 Scale: 100 percent, Rotated: No, Reflected: No *
G04 Dimensions in millimeters *
G04 leading zeros omitted , absolute positions ,4 integer and 5 decimal *
%FSLAX45Y45*%
%MOMM*%

%AMMACRO1*21,1,$1,$2,0,0,$3*%
%ADD10C,0.2540*%
%ADD11MACRO1,2X2X0.0000*%
%ADD12MACRO1,1.2X2.55X0.0000*%
%ADD13MACRO1,0.7X1.75X0.0000*%
%ADD14C,1.5748*%
%ADD15R,1.5748X1.5748*%
%ADD16C,1.5240*%
%ADD17C,2.0000*%
%ADD18R,1.6000X1.6000*%
%ADD19C,1.6000*%
%ADD20C,3.5001*%
%ADD21C,0.6100*%
%ADD22C,0.0139*%

%LPD*%
D10*
X2983712Y7908594D02*
G01*
X2983712Y6669201D01*
X3009900Y6643014D01*
X3009900Y6579057D02*
G01*
X3009900Y6643014D01*
X3009900Y6579057D02*
G01*
X3009900Y6515100D01*
X3009900Y6515100D02*
G01*
X3009900Y5184267D01*
X2636850Y4811217D01*
X1724583Y4811217D01*
X1582801Y4953000D01*
X3797300Y5372100D02*
G01*
X3352800Y5372100D01*
X3797300Y5118100D02*
G01*
X3352800Y5118100D01*
X355600Y5092700D02*
G01*
X787400Y5092700D01*
X812800Y5118100D01*
X2582799Y4953000D02*
G01*
X2582799Y6239484D01*
X2730500Y6387185D01*
X2730500Y6515100D02*
G01*
X2730500Y6387185D01*
X2883687Y7908594D02*
G01*
X2883687Y6796201D01*
X2730500Y6643014D01*
X2730500Y6515100D02*
G01*
X2730500Y6643014D01*
X2857500Y2019300D02*
G01*
X2857500Y1637360D01*
X2354046Y1133906D01*
X2254986Y1133906D01*
X2171700Y1217193D01*
X2171700Y1276908D01*
X2088134Y1360474D01*
X1627174Y1360474D01*
X812800Y546100D01*
X812800Y5626100D02*
G01*
X787400Y5600700D01*
X355600Y5600700D01*
X355600Y5708624D02*
G01*
X198501Y5865723D01*
X198501Y6502069D01*
X256387Y6559956D01*
X355600Y5600700D02*
G01*
X355600Y5708624D01*
X3797300Y546100D02*
G01*
X3352800Y546100D01*
X355600Y266700D02*
G01*
X787400Y266700D01*
X812800Y292100D01*
X1790700Y1238199D02*
G01*
X1747773Y1238199D01*
X812800Y303225D01*
X812800Y292100D01*
X3797300Y5626100D02*
G01*
X3352800Y5626100D01*
X2603500Y2019300D02*
G01*
X2708147Y2123947D01*
X2908401Y2123947D01*
X2964357Y2067991D01*
X2964357Y1091437D01*
X3352800Y546100D02*
G01*
X2964357Y934542D01*
X2964357Y1091437D01*
X2964357Y1091437D02*
G01*
X1937461Y1091437D01*
X1790700Y1238199D01*
X2520721Y6216294D02*
G01*
X1138834Y6216294D01*
X348894Y7006234D01*
X2352827Y6787311D02*
G01*
X1897862Y6787311D01*
X1143787Y7541387D01*
X1143787Y7908594D01*
X1232814Y355600D02*
G01*
X1232814Y291642D01*
X1296949Y227507D01*
X2000021Y227507D01*
X2174722Y402209D01*
X2174722Y500024D01*
X2464384Y789686D01*
X1104900Y355600D02*
G01*
X1232814Y355600D01*
X1243812Y8024012D02*
G01*
X1243634Y8024190D01*
X1088110Y8024190D01*
X1080719Y8016798D01*
X1080719Y7760411D01*
X1096390Y7744739D01*
X1096390Y7323937D01*
X1625600Y6794728D01*
X1243812Y7908594D02*
G01*
X1243812Y8024012D01*
X1550314Y355600D02*
G01*
X2086813Y892098D01*
X2133574Y892098D01*
X2133574Y892124D01*
X2193620Y952169D01*
X1422400Y355600D02*
G01*
X1550314Y355600D01*
X3797300Y1816100D02*
G01*
X3352800Y1816100D01*
X3797300Y1562100D02*
G01*
X3352800Y1562100D01*
X355600Y2298700D02*
G01*
X787400Y2298700D01*
X812800Y2324100D01*
X3797300Y2070100D02*
G01*
X3352800Y2070100D01*
X3797300Y4356100D02*
G01*
X3352800Y4356100D01*
X3352800Y4356100D02*
G01*
X1995906Y4356100D01*
X1249654Y5102352D01*
X1249654Y5893231D01*
X240207Y6902678D01*
X240207Y7405547D01*
X348894Y7514234D01*
X3797300Y4102100D02*
G01*
X3352800Y4102100D01*
X3352800Y4102100D02*
G01*
X2190140Y4102100D01*
X1026769Y5265470D01*
X1026769Y5908167D01*
X198602Y6736334D01*
X198602Y7537958D01*
X322224Y7661579D01*
X348894Y7661579D01*
X348894Y7768234D02*
G01*
X348894Y7661579D01*
X3797300Y3848100D02*
G01*
X3352800Y3848100D01*
X3797300Y3594100D02*
G01*
X3352800Y3594100D01*
X3797300Y3340100D02*
G01*
X3352800Y3340100D01*
X3797300Y3086100D02*
G01*
X3352800Y3086100D01*
X3797300Y2832100D02*
G01*
X3352800Y2832100D01*
X3797300Y2578100D02*
G01*
X3352800Y2578100D01*
X3797300Y1308100D02*
G01*
X3352800Y1308100D01*
X3797300Y1054100D02*
G01*
X3352800Y1054100D01*
X3797300Y800100D02*
G01*
X3352800Y800100D01*
X355600Y3060700D02*
G01*
X787400Y3060700D01*
X812800Y3086100D01*
X355600Y3314700D02*
G01*
X787400Y3314700D01*
X812800Y3340100D01*
X355600Y3568700D02*
G01*
X787400Y3568700D01*
X812800Y3594100D01*
X355600Y3822700D02*
G01*
X787400Y3822700D01*
X812800Y3848100D01*
X1587500Y2019300D02*
G01*
X908227Y2698572D01*
X306451Y2698572D01*
X234340Y2770682D01*
X234340Y3701440D01*
X355600Y3822700D01*
X355600Y774700D02*
G01*
X787400Y774700D01*
X812800Y800100D01*
X355600Y1028700D02*
G01*
X787400Y1028700D01*
X812800Y1054100D01*
X355600Y1282700D02*
G01*
X787400Y1282700D01*
X812800Y1308100D01*
X355600Y1536700D02*
G01*
X787400Y1536700D01*
X812800Y1562100D01*
X355600Y1790700D02*
G01*
X787400Y1790700D01*
X812800Y1816100D01*
X355600Y2044700D02*
G01*
X787400Y2044700D01*
X812800Y2070100D01*
X355600Y2806700D02*
G01*
X787400Y2806700D01*
X812800Y2832100D01*
X1841500Y2019300D02*
G01*
X921715Y2939084D01*
X921715Y3942384D01*
X787400Y4076700D01*
X355600Y4076700D02*
G01*
X787400Y4076700D01*
X787400Y4076700D02*
G01*
X812800Y4102100D01*
X355600Y4330700D02*
G01*
X787400Y4330700D01*
X812800Y4356100D01*
X2298700Y1238199D02*
G01*
X1968500Y1568399D01*
X1968500Y2537637D01*
X962507Y3543630D01*
X962507Y4206392D01*
X812800Y4356100D01*
X355600Y4584700D02*
G01*
X787400Y4584700D01*
X812800Y4610100D01*
X355600Y4838700D02*
G01*
X787400Y4838700D01*
X812800Y4864100D01*
X355600Y2552700D02*
G01*
X787400Y2552700D01*
X812800Y2578100D01*
X3797300Y4610100D02*
G01*
X3352800Y4610100D01*
X3797300Y4864100D02*
G01*
X3352800Y4864100D01*
X3797300Y2324100D02*
G01*
X3352800Y2324100D01*
D11*
G01*
X2730500Y6515100D03*
G01*
X3009900Y6515100D03*
G01*
X1104900Y355600D03*
G01*
X1422400Y355600D03*
D12*
G01*
X2748206Y7534600D03*
G01*
X3119193Y7534597D03*
D13*
G01*
X2983701Y7908599D03*
G01*
X2883698Y7908599D03*
D12*
G01*
X1008306Y7534600D03*
G01*
X1379293Y7534597D03*
D13*
G01*
X1243801Y7908599D03*
G01*
X1143798Y7908599D03*
D14*
G01*
X348894Y7006234D03*
G01*
X348894Y7260234D03*
G01*
X348894Y7514234D03*
D15*
G01*
X348894Y7768234D03*
D16*
G01*
X812800Y292100D03*
G01*
X812800Y546100D03*
G01*
X812800Y800100D03*
G01*
X812800Y1054100D03*
G01*
X812800Y1308100D03*
G01*
X812800Y1562100D03*
G01*
X812800Y1816100D03*
G01*
X812800Y2070100D03*
G01*
X812800Y2324100D03*
G01*
X812800Y2578100D03*
G01*
X812800Y2832100D03*
G01*
X812800Y3086100D03*
G01*
X812800Y3340100D03*
G01*
X812800Y3594100D03*
G01*
X812800Y3848100D03*
G01*
X812800Y4102100D03*
G01*
X812800Y4356100D03*
G01*
X812800Y4610100D03*
G01*
X812800Y4864100D03*
G01*
X812800Y5118100D03*
G01*
X812800Y5372100D03*
G01*
X812800Y5626100D03*
G01*
X3352800Y292100D03*
G01*
X3352800Y546100D03*
G01*
X3352800Y800100D03*
G01*
X3352800Y1054100D03*
G01*
X3352800Y1308100D03*
G01*
X3352800Y1562100D03*
G01*
X3352800Y1816100D03*
G01*
X3352800Y2070100D03*
G01*
X3352800Y2324100D03*
G01*
X3352800Y2578100D03*
G01*
X3352800Y2832100D03*
G01*
X3352800Y3086100D03*
G01*
X3352800Y3340100D03*
G01*
X3352800Y3594100D03*
G01*
X3352800Y3848100D03*
G01*
X3352800Y4102100D03*
G01*
X3352800Y4356100D03*
G01*
X3352800Y4610100D03*
G01*
X3352800Y4864100D03*
G01*
X3352800Y5118100D03*
G01*
X3352800Y5372100D03*
G01*
X3352800Y5626100D03*
G01*
X1333500Y2019300D03*
G01*
X1587500Y2019300D03*
G01*
X1841500Y2019300D03*
G01*
X2095500Y2019300D03*
G01*
X2349500Y2019300D03*
G01*
X2603500Y2019300D03*
G01*
X2857500Y2019300D03*
D17*
G01*
X1917700Y3314700D03*
G01*
X2273300Y3314700D03*
D16*
G01*
X2044700Y438200D03*
G01*
X2044700Y1238199D03*
G01*
X2298700Y438200D03*
G01*
X1790700Y438200D03*
G01*
X1790700Y1238199D03*
G01*
X2298700Y1238199D03*
D18*
G01*
X355600Y5600700D03*
D19*
G01*
X355600Y5346700D03*
G01*
X355600Y5092700D03*
G01*
X355600Y4838700D03*
G01*
X355600Y4584700D03*
G01*
X355600Y4330700D03*
G01*
X355600Y4076700D03*
G01*
X355600Y3822700D03*
G01*
X355600Y3568700D03*
G01*
X355600Y3314700D03*
G01*
X355600Y3060700D03*
G01*
X355600Y2806700D03*
G01*
X355600Y2552700D03*
G01*
X355600Y2298700D03*
G01*
X355600Y2044700D03*
G01*
X355600Y1790700D03*
G01*
X355600Y1536700D03*
G01*
X355600Y1282700D03*
G01*
X355600Y1028700D03*
G01*
X355600Y774700D03*
G01*
X355600Y520700D03*
G01*
X355600Y266700D03*
D18*
G01*
X3797300Y5626100D03*
D19*
G01*
X3797300Y5372100D03*
G01*
X3797300Y5118100D03*
G01*
X3797300Y4864100D03*
G01*
X3797300Y4610100D03*
G01*
X3797300Y4356100D03*
G01*
X3797300Y4102100D03*
G01*
X3797300Y3848100D03*
G01*
X3797300Y3594100D03*
G01*
X3797300Y3340100D03*
G01*
X3797300Y3086100D03*
G01*
X3797300Y2832100D03*
G01*
X3797300Y2578100D03*
G01*
X3797300Y2324100D03*
G01*
X3797300Y2070100D03*
G01*
X3797300Y1816100D03*
G01*
X3797300Y1562100D03*
G01*
X3797300Y1308100D03*
G01*
X3797300Y1054100D03*
G01*
X3797300Y800100D03*
G01*
X3797300Y546100D03*
G01*
X3797300Y292100D03*
D17*
G01*
X2582799Y4953000D03*
G01*
X1582801Y4953000D03*
D20*
G01*
X1460500Y3416300D03*
G01*
X2730500Y3416300D03*
D21*
G01*
X2193620Y952169D03*
G01*
X1625600Y6794728D03*
G01*
X2464384Y789686D03*
G01*
X2352827Y6787311D03*
G01*
X2520721Y6216294D03*
G01*
X256387Y6559956D03*
M02*
