G04 Layer: BottomSilkscreenLayer*
G04 EasyEDA v6.5.46, 2025-01-11 20:36:01*
G04 d8dedb76399b4d20b27dfa51e3b01321,73d145917ff44f83893672ed6d267c12,10*
G04 Gerber Generator version 0.2*
G04 Scale: 100 percent, Rotated: No, Reflected: No *
G04 Dimensions in millimeters *
G04 leading zeros omitted , absolute positions ,4 integer and 5 decimal *
%FSLAX45Y45*%
%MOMM*%

%ADD10C,0.2032*%
%ADD11C,0.1524*%
%ADD12C,0.2540*%

%LPD*%
G36*
X3488791Y6283299D02*
G01*
X3488588Y6282740D01*
X3457701Y6271006D01*
X3455924Y6270142D01*
X3455415Y6270142D01*
X3422599Y6257594D01*
X3417824Y6255969D01*
X3405073Y6251041D01*
X3404006Y6250432D01*
X3403346Y6250432D01*
X3357321Y6232804D01*
X3318306Y6218174D01*
X3318052Y6217767D01*
X3317443Y6217767D01*
X3304895Y6212840D01*
X3304438Y6212840D01*
X3284982Y6205270D01*
X3284474Y6205270D01*
X3283204Y6204661D01*
X3281324Y6204102D01*
X3281222Y6203086D01*
X3294786Y6197854D01*
X3295243Y6197854D01*
X3297529Y6196838D01*
X3298139Y6196838D01*
X3299053Y6196228D01*
X3343249Y6179566D01*
X3345332Y6178550D01*
X3345891Y6178550D01*
X3358337Y6173825D01*
X3358896Y6173825D01*
X3383229Y6184900D01*
X3383838Y6184900D01*
X3384499Y6185509D01*
X3436823Y6209131D01*
X3437585Y6209131D01*
X3468522Y6195669D01*
X3487013Y6187948D01*
X3488944Y6186982D01*
X3489147Y6186678D01*
X3488842Y6185814D01*
X3412337Y6153912D01*
X3412896Y6153048D01*
X3489248Y6124092D01*
X3490417Y6124092D01*
X3527450Y6138214D01*
X3528568Y6138468D01*
X3529837Y6139129D01*
X3542436Y6143802D01*
X3545179Y6145072D01*
X3545636Y6145072D01*
X3561334Y6151067D01*
X3562858Y6151829D01*
X3563467Y6151829D01*
X3595115Y6163767D01*
X3595522Y6164173D01*
X3596132Y6164173D01*
X3615690Y6171742D01*
X3616198Y6171793D01*
X3618788Y6172962D01*
X3698036Y6202934D01*
X3698443Y6203543D01*
X3698189Y6204204D01*
X3696817Y6204458D01*
X3680358Y6211011D01*
X3679748Y6211011D01*
X3673500Y6213449D01*
X3673043Y6213449D01*
X3529837Y6267907D01*
X3528771Y6268516D01*
X3528161Y6268516D01*
X3522268Y6270955D01*
X3521659Y6270955D01*
X3510279Y6275324D01*
X3507130Y6276746D01*
X3506724Y6276746D01*
X3490823Y6282842D01*
X3490823Y6283299D01*
G37*
G36*
X3698341Y6176314D02*
G01*
X3669233Y6165138D01*
X3667607Y6164783D01*
X3667150Y6164376D01*
X3512464Y6105652D01*
X3511854Y6105652D01*
X3511600Y6105245D01*
X3503676Y6102299D01*
X3503066Y6101689D01*
X3502996Y5937554D01*
X3594912Y5937554D01*
X3594912Y5964885D01*
X3595420Y5965494D01*
X3624326Y5976416D01*
X3627272Y5977686D01*
X3638753Y5981852D01*
X3645154Y5984443D01*
X3646779Y5984697D01*
X3647338Y5984087D01*
X3647287Y5957265D01*
X3646728Y5956350D01*
X3608679Y5942076D01*
X3608070Y5941517D01*
X3607409Y5941517D01*
X3595725Y5936996D01*
X3594912Y5937554D01*
X3502996Y5937554D01*
X3503066Y5863945D01*
X3503218Y5863488D01*
X3504641Y5863488D01*
X3554323Y5882589D01*
X3554882Y5882589D01*
X3556406Y5883402D01*
X3614165Y5905144D01*
X3632149Y5912104D01*
X3641242Y5915406D01*
X3646373Y5917539D01*
X3658412Y5922010D01*
X3658920Y5922010D01*
X3659733Y5922568D01*
X3673957Y5927801D01*
X3674465Y5928207D01*
X3699256Y5937554D01*
X3699814Y5938316D01*
X3699814Y6175654D01*
X3699560Y6176314D01*
G37*
G36*
X3280206Y6176314D02*
G01*
X3279800Y6175502D01*
X3279800Y5938621D01*
X3280257Y5937707D01*
X3292856Y5932678D01*
X3318205Y5923178D01*
X3318611Y5922873D01*
X3358794Y5907633D01*
X3359200Y5907633D01*
X3373475Y5902096D01*
X3373932Y5902096D01*
X3397402Y5893054D01*
X3397859Y5892698D01*
X3399332Y5892393D01*
X3437382Y5877814D01*
X3438855Y5877458D01*
X3442563Y5875782D01*
X3443224Y5875782D01*
X3449218Y5873343D01*
X3449777Y5873343D01*
X3450844Y5872734D01*
X3472484Y5864504D01*
X3476244Y5863285D01*
X3476650Y5864047D01*
X3476599Y6101080D01*
X3476193Y6102146D01*
X3458413Y6108954D01*
X3457143Y6109258D01*
X3411880Y6126581D01*
X3411016Y6125972D01*
X3410965Y6061151D01*
X3410356Y6060592D01*
X3359912Y6079744D01*
X3359302Y6079744D01*
X3358438Y6080810D01*
X3358438Y6145987D01*
X3357930Y6146952D01*
X3328365Y6158433D01*
X3327857Y6158433D01*
X3326333Y6159246D01*
X3325215Y6159500D01*
X3311804Y6164834D01*
X3310382Y6165138D01*
X3304590Y6167475D01*
X3303930Y6167475D01*
X3303676Y6167882D01*
X3281121Y6176264D01*
G37*
G36*
X2159254Y6162294D02*
G01*
X2133092Y6156706D01*
X2134006Y6154724D01*
X2135530Y6153099D01*
X2138070Y6151930D01*
X2141982Y6151372D01*
X2146503Y6131864D01*
X2152904Y6108192D01*
X2132076Y6108192D01*
X2122170Y6118606D01*
X2103628Y6102096D01*
X2104390Y6101334D01*
X2154682Y6101334D01*
X2163064Y6071412D01*
X2170125Y6048400D01*
X2175510Y6032754D01*
X2160727Y6026404D01*
X2148078Y6020054D01*
X2143506Y6032601D01*
X2139696Y6045657D01*
X2136495Y6059068D01*
X2133955Y6072886D01*
X2131872Y6086957D01*
X2130298Y6101334D01*
X2104390Y6101334D01*
X2104948Y6100775D01*
X2106726Y6099860D01*
X2109114Y6099149D01*
X2112264Y6098540D01*
X2114651Y6081471D01*
X2116531Y6070295D01*
X2118817Y6059220D01*
X2121509Y6048349D01*
X2124710Y6037732D01*
X2128469Y6027369D01*
X2132888Y6017310D01*
X2135378Y6012434D01*
X2128062Y6007303D01*
X2122017Y6002324D01*
X2117090Y5997549D01*
X2113280Y5993079D01*
X2110435Y5988862D01*
X2108504Y5985002D01*
X2107438Y5981496D01*
X2107082Y5978398D01*
X2107438Y5975705D01*
X2108352Y5973470D01*
X2109774Y5971743D01*
X2111603Y5970574D01*
X2113838Y5969965D01*
X2116277Y5969914D01*
X2118918Y5970524D01*
X2121662Y5971794D01*
X2126030Y5978042D01*
X2131314Y5984544D01*
X2137359Y5991148D01*
X2144014Y5997702D01*
X2150922Y5988761D01*
X2154682Y5984443D01*
X2162911Y5976162D01*
X2172157Y5968390D01*
X2177186Y5964682D01*
X2188057Y5957773D01*
X2193950Y5954522D01*
X2200148Y5951474D01*
X2202688Y5954014D01*
X2197303Y5957722D01*
X2187346Y5965494D01*
X2182774Y5969558D01*
X2174392Y5978194D01*
X2166975Y5987288D01*
X2163572Y5992063D01*
X2157425Y6001969D01*
X2154682Y6007100D01*
X2163876Y6014821D01*
X2173376Y6022035D01*
X2182723Y6028537D01*
X2191512Y6034278D01*
X2185568Y6053023D01*
X2178862Y6076137D01*
X2172208Y6101334D01*
X2198370Y6101334D01*
X2200402Y6108192D01*
X2170684Y6108192D01*
X2166924Y6123635D01*
X2163724Y6138214D01*
X2161133Y6151321D01*
G37*
G36*
X2379980Y6161532D02*
G01*
X2352802Y6152896D01*
X2353868Y6150965D01*
X2355596Y6149441D01*
X2358085Y6148527D01*
X2361438Y6148324D01*
X2366416Y6135522D01*
X2371852Y6123127D01*
X2377643Y6111189D01*
X2383790Y6099810D01*
X2373630Y6095746D01*
X2374442Y6094476D01*
X2375763Y6093307D01*
X2377694Y6092393D01*
X2380234Y6091682D01*
X2380234Y5956554D01*
X2381707Y5955131D01*
X2385161Y5953302D01*
X2389936Y5951677D01*
X2395220Y5950966D01*
X2398776Y5950966D01*
X2398776Y6076188D01*
X2405430Y6067247D01*
X2412390Y6058814D01*
X2419604Y6050889D01*
X2426970Y6043676D01*
X2430018Y6045708D01*
X2424226Y6054496D01*
X2418435Y6064148D01*
X2412746Y6074613D01*
X2407208Y6085789D01*
X2401874Y6097524D01*
X2396744Y6109766D01*
X2391968Y6122365D01*
X2387549Y6135268D01*
X2383536Y6148374D01*
G37*
G36*
X1711198Y6161532D02*
G01*
X1686052Y6153912D01*
X1687017Y6151981D01*
X1688693Y6150457D01*
X1691081Y6149441D01*
X1694180Y6149086D01*
X1697278Y6142685D01*
X1700530Y6136640D01*
X1661668Y6136640D01*
X1650746Y6150610D01*
X1630933Y6133338D01*
X1631645Y6131712D01*
X1632915Y6130594D01*
X1634642Y6129985D01*
X1636776Y6129782D01*
X1671574Y6129782D01*
X1672437Y6116066D01*
X1673860Y6103112D01*
X1657350Y6103112D01*
X1646682Y6117082D01*
X1632762Y6105956D01*
X1626362Y6100318D01*
X1627174Y6098641D01*
X1628444Y6097473D01*
X1630121Y6096762D01*
X1632204Y6096508D01*
X1675130Y6096508D01*
X1678432Y6085840D01*
X1669135Y6083858D01*
X1661109Y6081420D01*
X1654403Y6078575D01*
X1648815Y6075426D01*
X1644396Y6072124D01*
X1640992Y6068720D01*
X1638554Y6065316D01*
X1636979Y6062014D01*
X1636318Y6058916D01*
X1636369Y6056122D01*
X1637080Y6053683D01*
X1638452Y6051753D01*
X1640382Y6050432D01*
X1642770Y6049721D01*
X1645564Y6049822D01*
X1648714Y6050788D01*
X1651254Y6054750D01*
X1654403Y6058763D01*
X1658112Y6062776D01*
X1666595Y6070600D01*
X1675841Y6077813D01*
X1680464Y6081014D01*
X1682648Y6076594D01*
X1685239Y6072327D01*
X1688236Y6068212D01*
X1691639Y6064250D01*
X1695500Y6060440D01*
X1699869Y6056731D01*
X1704746Y6053226D01*
X1710182Y6049873D01*
X1716227Y6046673D01*
X1722882Y6043574D01*
X1730146Y6040628D01*
X1738122Y6037834D01*
X1740662Y6041390D01*
X1733042Y6045149D01*
X1726184Y6049060D01*
X1720138Y6053074D01*
X1714855Y6057239D01*
X1710232Y6061608D01*
X1706219Y6066078D01*
X1702816Y6070752D01*
X1699920Y6075578D01*
X1697532Y6080556D01*
X1695602Y6085687D01*
X1694078Y6091021D01*
X1692910Y6096508D01*
X1738630Y6096508D01*
X1740154Y6103112D01*
X1691639Y6103112D01*
X1690725Y6116066D01*
X1690370Y6129782D01*
X1704848Y6129782D01*
X1710232Y6122670D01*
X1715973Y6116269D01*
X1722120Y6110579D01*
X1728470Y6105652D01*
X1731772Y6108192D01*
X1728419Y6113272D01*
X1725218Y6118910D01*
X1722272Y6125108D01*
X1719478Y6131712D01*
X1716989Y6138722D01*
X1714754Y6146088D01*
X1712823Y6153708D01*
G37*
G36*
X2328164Y6160770D02*
G01*
X2301240Y6151626D01*
X2302357Y6149695D01*
X2304186Y6148171D01*
X2306828Y6147257D01*
X2310384Y6147054D01*
X2313330Y6139281D01*
X2316530Y6131661D01*
X2319934Y6124244D01*
X2323592Y6117082D01*
X2245868Y6117082D01*
X2235200Y6128004D01*
X2216150Y6109716D01*
X2217470Y6108598D01*
X2219299Y6107887D01*
X2221636Y6107531D01*
X2224532Y6107430D01*
X2229713Y6099556D01*
X2236012Y6091072D01*
X2242820Y6082842D01*
X2249424Y6075680D01*
X2252218Y6077458D01*
X2248103Y6093714D01*
X2244344Y6110732D01*
X2326894Y6110732D01*
X2331161Y6103518D01*
X2335631Y6096609D01*
X2340305Y6090005D01*
X2345080Y6083706D01*
X2350058Y6077712D01*
X2355138Y6072073D01*
X2360371Y6066840D01*
X2365756Y6061964D01*
X2368804Y6064250D01*
X2362657Y6073495D01*
X2356612Y6083808D01*
X2350820Y6095085D01*
X2345334Y6107176D01*
X2340254Y6119926D01*
X2335631Y6133185D01*
X2331567Y6146850D01*
G37*
G36*
X967486Y6160262D02*
G01*
X942594Y6157722D01*
X943305Y6155740D01*
X944727Y6154013D01*
X947064Y6152743D01*
X950468Y6151880D01*
X950468Y6092698D01*
X947928Y6092698D01*
X938530Y6105906D01*
X927150Y6095085D01*
X922019Y6089650D01*
X922832Y6088024D01*
X924102Y6086906D01*
X925779Y6086297D01*
X927862Y6086094D01*
X990092Y6086094D01*
X990092Y6049518D01*
X965962Y6049518D01*
X956564Y6059678D01*
X936752Y6044184D01*
X938428Y6042863D01*
X940663Y6041593D01*
X943406Y6040526D01*
X946658Y6039612D01*
X946658Y5959856D01*
X948182Y5958128D01*
X951687Y5955995D01*
X956208Y5954268D01*
X960882Y5953506D01*
X963676Y5953506D01*
X963676Y6042914D01*
X990092Y6042914D01*
X990549Y6028994D01*
X991717Y6015786D01*
X993597Y6003290D01*
X994867Y5997244D01*
X998118Y5985713D01*
X1000099Y5980226D01*
X1002385Y5974842D01*
X1004976Y5969609D01*
X1007821Y5964529D01*
X1010970Y5959602D01*
X1014476Y5954826D01*
X1018286Y5950204D01*
X1021587Y5952490D01*
X1019403Y5957366D01*
X1015695Y5967374D01*
X1012748Y5977737D01*
X1010513Y5988558D01*
X1008887Y5999886D01*
X1007821Y6011824D01*
X1007160Y6024473D01*
X1006906Y6037935D01*
X1006856Y6154166D01*
X982218Y6151372D01*
X982776Y6149238D01*
X984148Y6147460D01*
X986536Y6146038D01*
X990092Y6145022D01*
X990092Y6092698D01*
X967486Y6092698D01*
G37*
G36*
X829056Y6160262D02*
G01*
X812800Y6140958D01*
X814628Y6139942D01*
X816660Y6139637D01*
X818896Y6140043D01*
X821436Y6141212D01*
X834136Y6138976D01*
X847750Y6137097D01*
X861771Y6135573D01*
X875639Y6134404D01*
X888898Y6133693D01*
X900937Y6133338D01*
X900937Y6089142D01*
X840740Y6089142D01*
X830326Y6099556D01*
X812292Y6083046D01*
X813141Y6082284D01*
X888492Y6082284D01*
X885748Y6069634D01*
X882446Y6057646D01*
X878535Y6046266D01*
X874064Y6035548D01*
X869086Y6025438D01*
X863600Y6015990D01*
X858164Y6026454D01*
X853338Y6037173D01*
X849121Y6048197D01*
X845464Y6059373D01*
X842416Y6070752D01*
X839978Y6082284D01*
X813141Y6082284D01*
X813765Y6081725D01*
X815644Y6080810D01*
X818235Y6080201D01*
X821690Y6079744D01*
X825195Y6066180D01*
X829411Y6052870D01*
X834339Y6039967D01*
X840130Y6027420D01*
X846836Y6015380D01*
X850493Y6009538D01*
X854456Y6003798D01*
X847445Y5995974D01*
X839978Y5988761D01*
X831951Y5982106D01*
X823417Y5976112D01*
X814324Y5970727D01*
X804672Y5965952D01*
X805180Y5963666D01*
X810564Y5962650D01*
X815289Y5960059D01*
X819200Y5956046D01*
X822198Y5950712D01*
X828497Y5954928D01*
X834491Y5959398D01*
X840130Y5964123D01*
X845515Y5969101D01*
X850544Y5974334D01*
X855268Y5979871D01*
X859688Y5985713D01*
X863853Y5991860D01*
X871677Y5983579D01*
X880262Y5975807D01*
X889609Y5968441D01*
X899871Y5961634D01*
X910945Y5955284D01*
X923036Y5949442D01*
X925321Y5952490D01*
X919683Y5955893D01*
X909066Y5963259D01*
X899210Y5971336D01*
X890117Y5980023D01*
X881837Y5989269D01*
X874217Y5999022D01*
X870712Y6004052D01*
X875944Y6014974D01*
X880567Y6026759D01*
X884529Y6039358D01*
X887882Y6052820D01*
X890625Y6067094D01*
X892810Y6082284D01*
X900937Y6082284D01*
X900988Y6063335D01*
X901293Y6051042D01*
X902055Y6038443D01*
X903579Y6025794D01*
X904595Y6019444D01*
X905916Y6013094D01*
X907491Y6006795D01*
X909370Y6000597D01*
X911606Y5994450D01*
X914146Y5988405D01*
X917041Y5982462D01*
X920343Y5976620D01*
X924052Y5970981D01*
X928217Y5965494D01*
X932840Y5960160D01*
X937971Y5955080D01*
X943610Y5950204D01*
X946403Y5952490D01*
X942746Y5957519D01*
X939444Y5962650D01*
X936396Y5967933D01*
X933703Y5973318D01*
X931265Y5978804D01*
X927100Y5990031D01*
X923950Y6001664D01*
X922629Y6007557D01*
X920648Y6019596D01*
X919276Y6031839D01*
X918464Y6044234D01*
X918057Y6056782D01*
X917956Y6145530D01*
X902208Y6138926D01*
X878840Y6144818D01*
X853795Y6152032D01*
X841248Y6156045D01*
G37*
G36*
X3139440Y6159754D02*
G01*
X3112770Y6156452D01*
X3113481Y6154826D01*
X3115056Y6153454D01*
X3117748Y6152286D01*
X3121914Y6151372D01*
X3121914Y6086348D01*
X3111906Y6095390D01*
X3102051Y6105042D01*
X3092704Y6114948D01*
X3084118Y6124803D01*
X3076549Y6134252D01*
X3070352Y6142990D01*
X3046984Y6128512D01*
X3048304Y6127038D01*
X3050082Y6126175D01*
X3052572Y6125921D01*
X3055874Y6126480D01*
X3064103Y6118860D01*
X3073857Y6110884D01*
X3084779Y6102756D01*
X3096666Y6094780D01*
X3109112Y6087110D01*
X3121914Y6079998D01*
X3121914Y6067298D01*
X3067812Y6067298D01*
X3055874Y6082538D01*
X3041091Y6070346D01*
X3034284Y6064250D01*
X3035147Y6062624D01*
X3036468Y6061506D01*
X3038246Y6060897D01*
X3040380Y6060694D01*
X3099562Y6060694D01*
X3096006Y6047994D01*
X3091535Y6036056D01*
X3086252Y6024930D01*
X3083356Y6019698D01*
X3080207Y6014618D01*
X3073450Y6005118D01*
X3065932Y5996432D01*
X3061970Y5992368D01*
X3053537Y5984900D01*
X3049066Y5981446D01*
X3039770Y5975197D01*
X3029966Y5969762D01*
X3030474Y5967476D01*
X3035858Y5966053D01*
X3040481Y5963107D01*
X3044291Y5958789D01*
X3047238Y5953252D01*
X3056229Y5960465D01*
X3064408Y5968390D01*
X3071825Y5977077D01*
X3078480Y5986526D01*
X3081578Y5991555D01*
X3087166Y6002223D01*
X3092094Y6013704D01*
X3096310Y6025997D01*
X3099917Y6039205D01*
X3102864Y6053328D01*
X3104134Y6060694D01*
X3121914Y6060694D01*
X3121914Y5979414D01*
X3088894Y5992622D01*
X3087624Y5989828D01*
X3104946Y5975705D01*
X3116580Y5966561D01*
X3129534Y5956808D01*
X3130600Y5954674D01*
X3131870Y5952845D01*
X3133242Y5951321D01*
X3134614Y5950204D01*
X3149346Y5972302D01*
X3144164Y5975400D01*
X3141167Y5977940D01*
X3139795Y5980480D01*
X3139440Y5983732D01*
X3139440Y6060694D01*
X3169666Y6060694D01*
X3171444Y6067298D01*
X3139440Y6067298D01*
G37*
G36*
X2915920Y6158738D02*
G01*
X2887980Y6155690D01*
X2888843Y6153556D01*
X2890367Y6151778D01*
X2892806Y6150457D01*
X2896362Y6149594D01*
X2896362Y5977636D01*
X2896565Y5972302D01*
X2897327Y5967476D01*
X2898952Y5963259D01*
X2901594Y5959602D01*
X2905556Y5956503D01*
X2911043Y5954014D01*
X2918307Y5952032D01*
X2927604Y5950712D01*
X2928264Y5955182D01*
X2929483Y5959043D01*
X2931414Y5962345D01*
X2934208Y5964936D01*
X2938170Y5967272D01*
X2943402Y5969355D01*
X2950260Y5971184D01*
X2959100Y5972810D01*
X2959100Y5976366D01*
X2942793Y5975197D01*
X2922270Y5974080D01*
X2919120Y5974384D01*
X2917190Y5975299D01*
X2916174Y5976975D01*
X2915920Y5979414D01*
G37*
G36*
X1872996Y6158738D02*
G01*
X1845056Y6155690D01*
X1845919Y6153556D01*
X1847443Y6151778D01*
X1849882Y6150457D01*
X1853438Y6149594D01*
X1853438Y5977636D01*
X1853641Y5972302D01*
X1854403Y5967476D01*
X1856028Y5963259D01*
X1858670Y5959602D01*
X1862632Y5956503D01*
X1868119Y5954014D01*
X1875383Y5952032D01*
X1884680Y5950712D01*
X1885442Y5955182D01*
X1886762Y5959043D01*
X1888642Y5962345D01*
X1891284Y5964936D01*
X1895246Y5967272D01*
X1900478Y5969355D01*
X1907336Y5971184D01*
X1916175Y5972810D01*
X1916175Y5976366D01*
X1899970Y5975197D01*
X1879346Y5974080D01*
X1876196Y5974384D01*
X1874266Y5975299D01*
X1873250Y5976975D01*
X1872996Y5979414D01*
G37*
G36*
X2614676Y6157214D02*
G01*
X2594610Y6141720D01*
X2596354Y6140196D01*
X2737612Y6140196D01*
X2737612Y6078474D01*
X2689606Y6078474D01*
X2689606Y6140196D01*
X2671572Y6140196D01*
X2671572Y6078474D01*
X2621788Y6078474D01*
X2621788Y6140196D01*
X2596354Y6140196D01*
X2597962Y6139180D01*
X2600401Y6138164D01*
X2603246Y6137402D01*
X2603246Y6068568D01*
X2604922Y6067247D01*
X2608834Y6065570D01*
X2613914Y6064097D01*
X2618994Y6063488D01*
X2621788Y6063488D01*
X2621788Y6071870D01*
X2671572Y6071870D01*
X2671572Y6047232D01*
X2626106Y6047232D01*
X2614422Y6062218D01*
X2599639Y6050026D01*
X2592832Y6043930D01*
X2593644Y6042304D01*
X2594914Y6041186D01*
X2596591Y6040577D01*
X2598674Y6040374D01*
X2671572Y6040374D01*
X2671572Y6015228D01*
X2608834Y6015228D01*
X2596642Y6030722D01*
X2588615Y6024422D01*
X2581402Y6018377D01*
X2574544Y6012180D01*
X2575407Y6010554D01*
X2576677Y6009436D01*
X2578404Y6008827D01*
X2580386Y6008624D01*
X2782316Y6008624D01*
X2784348Y6015228D01*
X2689606Y6015228D01*
X2689606Y6040374D01*
X2761996Y6040374D01*
X2763774Y6047232D01*
X2689606Y6047232D01*
X2689606Y6071870D01*
X2737612Y6071870D01*
X2737612Y6065266D01*
X2738983Y6063538D01*
X2742488Y6061557D01*
X2747467Y6059881D01*
X2753106Y6059170D01*
X2755900Y6059170D01*
X2755900Y6155436D01*
X2736088Y6146800D01*
X2623820Y6146800D01*
G37*
G36*
X3176524Y6156452D02*
G01*
X3156458Y6141466D01*
X3158083Y6139942D01*
X3160268Y6138570D01*
X3163011Y6137452D01*
X3166364Y6136640D01*
X3166364Y6083300D01*
X3167888Y6081979D01*
X3171494Y6080302D01*
X3176066Y6078829D01*
X3180588Y6078220D01*
X3183382Y6078220D01*
X3183382Y6087872D01*
X3212084Y6087872D01*
X3214217Y6067450D01*
X3216910Y6046978D01*
X3183890Y6046978D01*
X3173984Y6057138D01*
X3155442Y6041390D01*
X3156813Y6040170D01*
X3158794Y6039256D01*
X3161334Y6038545D01*
X3164586Y6038088D01*
X3165906Y6016650D01*
X3167735Y5998464D01*
X3168904Y5990590D01*
X3170224Y5983528D01*
X3171698Y5977280D01*
X3173374Y5971794D01*
X3175152Y5967069D01*
X3177133Y5963158D01*
X3179267Y5959957D01*
X3181604Y5957570D01*
X3186430Y5954064D01*
X3192018Y5951626D01*
X3198368Y5950153D01*
X3205480Y5949696D01*
X3205683Y5953252D01*
X3206394Y5956604D01*
X3207715Y5959500D01*
X3209798Y5961634D01*
X3213150Y5963615D01*
X3217875Y5965393D01*
X3223564Y5966866D01*
X3229610Y5967984D01*
X3229610Y5971794D01*
X3213557Y5970625D01*
X3200908Y5970016D01*
X3198520Y5970066D01*
X3196488Y5970422D01*
X3194710Y5971082D01*
X3193034Y5972302D01*
X3191662Y5973927D01*
X3190392Y5976315D01*
X3189173Y5979464D01*
X3186988Y5988100D01*
X3185058Y5999581D01*
X3183483Y6013907D01*
X3181604Y6040374D01*
X3215894Y6040374D01*
X3223260Y6031992D01*
X3241040Y6044438D01*
X3237077Y6046927D01*
X3234842Y6048095D01*
X3232404Y6049010D01*
X3229305Y6076391D01*
X3228035Y6090513D01*
X3227324Y6102604D01*
X3207004Y6094476D01*
X3183382Y6094476D01*
X3183382Y6139942D01*
X3236976Y6139942D01*
X3238754Y6146546D01*
X3185668Y6146546D01*
G37*
G36*
X2012188Y6151118D02*
G01*
X1992630Y6132830D01*
X1994306Y6131864D01*
X1996389Y6131204D01*
X2002028Y6130544D01*
X2021789Y6113830D01*
X2033117Y6104788D01*
X2044446Y6096508D01*
X2036318Y6095746D01*
X2037181Y6093510D01*
X2038705Y6091732D01*
X2041143Y6090462D01*
X2044700Y6089650D01*
X2044700Y6060948D01*
X2017014Y6060948D01*
X2006092Y6075426D01*
X1998573Y6069482D01*
X1991817Y6063742D01*
X1985518Y6057646D01*
X1986178Y6056020D01*
X1987397Y6054902D01*
X1989124Y6054293D01*
X1991360Y6054090D01*
X2044700Y6054090D01*
X2044700Y5975096D01*
X2044852Y5970016D01*
X2045512Y5965545D01*
X2046833Y5961583D01*
X2049068Y5958179D01*
X2052421Y5955334D01*
X2057146Y5953048D01*
X2063394Y5951321D01*
X2071370Y5950204D01*
X2072081Y5954318D01*
X2073046Y5957976D01*
X2074468Y5960973D01*
X2076450Y5963412D01*
X2079599Y5965545D01*
X2083816Y5967425D01*
X2089404Y5969000D01*
X2096516Y5970270D01*
X2096516Y5973826D01*
X2083968Y5972911D01*
X2067814Y5972048D01*
X2065172Y5972251D01*
X2063546Y5972962D01*
X2062683Y5974283D01*
X2062480Y5976366D01*
X2062480Y6054090D01*
X2112010Y6054090D01*
X2114042Y6060948D01*
X2062480Y6060948D01*
X2062480Y6098286D01*
X2050288Y6097270D01*
X2043531Y6105804D01*
X2036825Y6115202D01*
X2024888Y6133084D01*
X2107184Y6133084D01*
X2109470Y6139942D01*
X2023618Y6139942D01*
G37*
G36*
X1553972Y6147816D02*
G01*
X1533906Y6132322D01*
X1535360Y6130798D01*
X1604010Y6130798D01*
X1604010Y6076696D01*
X1560830Y6076696D01*
X1560830Y6130798D01*
X1535360Y6130798D01*
X1537360Y6129578D01*
X1540103Y6128512D01*
X1543304Y6127750D01*
X1543304Y6060440D01*
X1544929Y6058966D01*
X1548688Y6057188D01*
X1553514Y6055715D01*
X1558290Y6055106D01*
X1560830Y6055106D01*
X1560830Y6070346D01*
X1604010Y6070346D01*
X1604010Y6057392D01*
X1605280Y6055817D01*
X1608632Y6053886D01*
X1613357Y6052261D01*
X1618742Y6051550D01*
X1621536Y6051550D01*
X1621536Y6145530D01*
X1602740Y6137656D01*
X1563116Y6137656D01*
G37*
G36*
X1090676Y6139942D02*
G01*
X1086764Y6139789D01*
X1082852Y6139230D01*
X1078992Y6138316D01*
X1075232Y6136995D01*
X1071524Y6135319D01*
X1067866Y6133185D01*
X1064412Y6130696D01*
X1061059Y6127699D01*
X1057859Y6124295D01*
X1054811Y6120434D01*
X1052017Y6116116D01*
X1049375Y6111290D01*
X1047038Y6106007D01*
X1044905Y6100165D01*
X1043076Y6093866D01*
X1041501Y6087008D01*
X1040282Y6079642D01*
X1039368Y6071666D01*
X1038809Y6063183D01*
X1038606Y6054090D01*
X1060958Y6054090D01*
X1061110Y6064859D01*
X1061618Y6074613D01*
X1062380Y6083452D01*
X1063447Y6091377D01*
X1064768Y6098387D01*
X1066342Y6104585D01*
X1068120Y6109970D01*
X1070102Y6114643D01*
X1072235Y6118606D01*
X1074572Y6121857D01*
X1077010Y6124549D01*
X1079601Y6126632D01*
X1082294Y6128207D01*
X1085037Y6129223D01*
X1087831Y6129832D01*
X1090676Y6130036D01*
X1093673Y6129832D01*
X1096568Y6129223D01*
X1099464Y6128207D01*
X1102207Y6126632D01*
X1104900Y6124549D01*
X1107440Y6121857D01*
X1109827Y6118606D01*
X1112062Y6114643D01*
X1114094Y6109970D01*
X1115923Y6104585D01*
X1117498Y6098387D01*
X1118870Y6091377D01*
X1119936Y6083452D01*
X1120749Y6074613D01*
X1121257Y6064859D01*
X1121410Y6054090D01*
X1121257Y6042914D01*
X1120749Y6032754D01*
X1119936Y6023610D01*
X1118870Y6015431D01*
X1117498Y6008116D01*
X1115923Y6001715D01*
X1114094Y5996127D01*
X1112062Y5991301D01*
X1109827Y5987186D01*
X1107440Y5983782D01*
X1104900Y5981039D01*
X1102207Y5978855D01*
X1099464Y5977280D01*
X1096568Y5976162D01*
X1093673Y5975553D01*
X1090676Y5975350D01*
X1087831Y5975553D01*
X1085037Y5976162D01*
X1082294Y5977280D01*
X1079601Y5978906D01*
X1077010Y5981090D01*
X1074572Y5983833D01*
X1072235Y5987288D01*
X1070102Y5991402D01*
X1068120Y5996228D01*
X1066342Y6001816D01*
X1064768Y6008268D01*
X1063447Y6015532D01*
X1062380Y6023711D01*
X1061618Y6032855D01*
X1061110Y6042964D01*
X1060958Y6054090D01*
X1038606Y6054090D01*
X1038809Y6044692D01*
X1039368Y6035852D01*
X1040282Y6027674D01*
X1041501Y6020003D01*
X1043076Y6012942D01*
X1044905Y6006439D01*
X1047038Y6000445D01*
X1049375Y5995009D01*
X1052017Y5990031D01*
X1054811Y5985611D01*
X1057859Y5981649D01*
X1061059Y5978144D01*
X1064412Y5975146D01*
X1067866Y5972556D01*
X1071524Y5970422D01*
X1075232Y5968695D01*
X1078992Y5967374D01*
X1082852Y5966409D01*
X1086764Y5965901D01*
X1090676Y5965698D01*
X1094689Y5965901D01*
X1098702Y5966409D01*
X1102614Y5967374D01*
X1106525Y5968695D01*
X1110284Y5970422D01*
X1113942Y5972556D01*
X1117498Y5975146D01*
X1120902Y5978144D01*
X1124153Y5981649D01*
X1127201Y5985611D01*
X1130046Y5990031D01*
X1132687Y5995009D01*
X1135075Y6000445D01*
X1137208Y6006439D01*
X1139037Y6012942D01*
X1140612Y6020003D01*
X1141831Y6027674D01*
X1142746Y6035852D01*
X1143304Y6044692D01*
X1143508Y6054090D01*
X1143304Y6063183D01*
X1142746Y6071666D01*
X1141831Y6079642D01*
X1140612Y6087008D01*
X1139037Y6093866D01*
X1137208Y6100165D01*
X1135075Y6106007D01*
X1132687Y6111290D01*
X1130046Y6116116D01*
X1127201Y6120434D01*
X1124153Y6124295D01*
X1120902Y6127699D01*
X1117498Y6130696D01*
X1113942Y6133185D01*
X1110284Y6135319D01*
X1106525Y6136995D01*
X1102614Y6138316D01*
X1098702Y6139230D01*
X1094689Y6139789D01*
G37*
G36*
X1281684Y6139180D02*
G01*
X1278128Y6136640D01*
X1279144Y6100572D01*
X1279042Y6006896D01*
X1278636Y5981700D01*
X1243330Y5976874D01*
X1243330Y5969000D01*
X1335786Y5969000D01*
X1335786Y5976874D01*
X1300226Y5981700D01*
X1299718Y6016853D01*
X1299718Y6120130D01*
X1332992Y6116828D01*
X1332992Y6125464D01*
G37*
G36*
X1357122Y6136640D02*
G01*
X1357122Y6128004D01*
X1378712Y6125210D01*
X1431290Y5967476D01*
X1441958Y5967476D01*
X1500378Y6125718D01*
X1519428Y6128004D01*
X1519428Y6136640D01*
X1451356Y6136640D01*
X1451356Y6126988D01*
X1475994Y6124956D01*
X1432052Y5998972D01*
X1391412Y6124702D01*
X1414526Y6126988D01*
X1414526Y6136640D01*
G37*
G36*
X2647188Y6130036D02*
G01*
X2624328Y6120384D01*
X2625140Y6118910D01*
X2626715Y6117640D01*
X2629103Y6116878D01*
X2632202Y6116828D01*
X2637383Y6110427D01*
X2643936Y6102858D01*
X2651252Y6094882D01*
X2658872Y6087364D01*
X2661412Y6088888D01*
X2657297Y6098946D01*
X2653233Y6110224D01*
X2649728Y6121095D01*
G37*
G36*
X2727198Y6128766D02*
G01*
X2720390Y6124803D01*
X2714853Y6120739D01*
X2710434Y6116624D01*
X2707081Y6112560D01*
X2704693Y6108547D01*
X2703169Y6104737D01*
X2702458Y6101181D01*
X2702458Y6097930D01*
X2703017Y6095034D01*
X2704185Y6092647D01*
X2705760Y6090767D01*
X2707690Y6089548D01*
X2709926Y6088989D01*
X2712313Y6089192D01*
X2714802Y6090259D01*
X2717292Y6092190D01*
X2717749Y6096711D01*
X2718714Y6101334D01*
X2720035Y6106109D01*
X2723642Y6115405D01*
X2727858Y6123838D01*
X2729992Y6127496D01*
G37*
G36*
X2298954Y6107684D02*
G01*
X2272538Y6105144D01*
X2273401Y6102908D01*
X2274925Y6101130D01*
X2277364Y6099759D01*
X2280920Y6098794D01*
X2280920Y5975858D01*
X2281072Y5970727D01*
X2281732Y5966155D01*
X2283104Y5962192D01*
X2285390Y5958789D01*
X2288844Y5955944D01*
X2293670Y5953658D01*
X2300122Y5951931D01*
X2308352Y5950712D01*
X2309063Y5954826D01*
X2310130Y5958382D01*
X2311552Y5961380D01*
X2313432Y5963920D01*
X2316734Y5966206D01*
X2321153Y5968136D01*
X2326944Y5969762D01*
X2334260Y5971032D01*
X2334260Y5974334D01*
X2304288Y5972556D01*
X2301748Y5972860D01*
X2300122Y5973724D01*
X2299208Y5975248D01*
X2298954Y5977382D01*
G37*
G36*
X2968752Y6106414D02*
G01*
X2939796Y6096508D01*
X2940812Y6094933D01*
X2942437Y6093764D01*
X2944977Y6093053D01*
X2948686Y6092952D01*
X2952242Y6083198D01*
X2956356Y6072886D01*
X2961081Y6062167D01*
X2966415Y6051245D01*
X2972308Y6040221D01*
X2978810Y6029299D01*
X2985973Y6018631D01*
X2993745Y6008319D01*
X3002127Y5998616D01*
X3006547Y5993993D01*
X3011170Y5989574D01*
X3013964Y5991860D01*
X3007258Y6002070D01*
X3001010Y6013043D01*
X2995218Y6024626D01*
X2989884Y6036564D01*
X2985058Y6048756D01*
X2980740Y6060948D01*
X2976930Y6073038D01*
X2973679Y6084722D01*
X2970936Y6095949D01*
G37*
G36*
X1925828Y6106414D02*
G01*
X1896872Y6096508D01*
X1897888Y6094933D01*
X1899513Y6093764D01*
X1902053Y6093053D01*
X1905762Y6092952D01*
X1909368Y6083198D01*
X1913534Y6072886D01*
X1918258Y6062167D01*
X1923592Y6051245D01*
X1929485Y6040221D01*
X1935988Y6029299D01*
X1943100Y6018631D01*
X1950821Y6008319D01*
X1959203Y5998616D01*
X1963623Y5993993D01*
X1968246Y5989574D01*
X1971039Y5991860D01*
X1964334Y6002070D01*
X1958086Y6013043D01*
X1952294Y6024626D01*
X1946960Y6036564D01*
X1942134Y6048756D01*
X1937816Y6060948D01*
X1934006Y6073038D01*
X1930755Y6084722D01*
X1928012Y6095949D01*
G37*
G36*
X2866136Y6102604D02*
G01*
X2858820Y6097117D01*
X2852013Y6091580D01*
X2845765Y6086094D01*
X2840024Y6080607D01*
X2834792Y6075172D01*
X2830068Y6069787D01*
X2825750Y6064453D01*
X2821940Y6059271D01*
X2815590Y6049162D01*
X2810865Y6039612D01*
X2809087Y6035090D01*
X2807665Y6030722D01*
X2805836Y6022644D01*
X2805176Y6015532D01*
X2805684Y6009436D01*
X2806293Y6006846D01*
X2807157Y6004560D01*
X2808224Y6002629D01*
X2809494Y6001004D01*
X2810916Y5999784D01*
X2812542Y5998921D01*
X2814269Y5998413D01*
X2816199Y5998362D01*
X2818180Y5998718D01*
X2820263Y5999530D01*
X2822498Y6000800D01*
X2824734Y6002528D01*
X2825546Y6008573D01*
X2826715Y6014770D01*
X2828340Y6021120D01*
X2830271Y6027521D01*
X2832557Y6034024D01*
X2837992Y6047079D01*
X2844292Y6060033D01*
X2851200Y6072581D01*
X2858566Y6084570D01*
X2865983Y6095695D01*
X2869692Y6100826D01*
G37*
G36*
X1823466Y6102604D02*
G01*
X1816100Y6097117D01*
X1809292Y6091580D01*
X1803044Y6086094D01*
X1797253Y6080607D01*
X1792020Y6075172D01*
X1787245Y6069787D01*
X1779117Y6059271D01*
X1775714Y6054140D01*
X1772767Y6049162D01*
X1770176Y6044285D01*
X1766214Y6035090D01*
X1763674Y6026556D01*
X1762912Y6022644D01*
X1762455Y6018987D01*
X1762404Y6012332D01*
X1762760Y6009436D01*
X1764233Y6004560D01*
X1765300Y6002629D01*
X1766570Y6001004D01*
X1767992Y5999784D01*
X1769618Y5998921D01*
X1771345Y5998413D01*
X1773275Y5998362D01*
X1775256Y5998718D01*
X1777339Y5999530D01*
X1779574Y6000800D01*
X1781810Y6002528D01*
X1782622Y6008573D01*
X1783842Y6014770D01*
X1785416Y6021120D01*
X1787398Y6027521D01*
X1789684Y6034024D01*
X1795119Y6047079D01*
X1801469Y6060033D01*
X1808378Y6072581D01*
X1815693Y6084570D01*
X1823110Y6095695D01*
X1826768Y6100826D01*
G37*
G36*
X2333752Y6072632D02*
G01*
X2308098Y6064758D01*
X2309063Y6062827D01*
X2310790Y6061303D01*
X2313330Y6060389D01*
X2316734Y6060186D01*
X2321356Y6049010D01*
X2326436Y6038291D01*
X2332024Y6028131D01*
X2337968Y6018580D01*
X2344318Y6009690D01*
X2351074Y6001461D01*
X2358136Y5993993D01*
X2365502Y5987288D01*
X2368550Y5989828D01*
X2363266Y5997702D01*
X2358136Y6006541D01*
X2353157Y6016193D01*
X2348484Y6026556D01*
X2344115Y6037529D01*
X2340203Y6048959D01*
X2336698Y6060694D01*
G37*
G36*
X2264156Y6071108D02*
G01*
X2256637Y6065215D01*
X2249932Y6059373D01*
X2243937Y6053582D01*
X2238654Y6047943D01*
X2234031Y6042406D01*
X2230069Y6037021D01*
X2226767Y6031788D01*
X2224024Y6026759D01*
X2221839Y6021984D01*
X2220163Y6017463D01*
X2218994Y6013246D01*
X2218283Y6009284D01*
X2217978Y6005677D01*
X2218131Y6002477D01*
X2218639Y5999581D01*
X2219452Y5997143D01*
X2220620Y5995162D01*
X2222042Y5993638D01*
X2223719Y5992571D01*
X2225598Y5992063D01*
X2227681Y5992063D01*
X2229916Y5992672D01*
X2232253Y5993841D01*
X2234692Y5995670D01*
X2235911Y6001512D01*
X2237536Y6007658D01*
X2239619Y6013958D01*
X2244750Y6026962D01*
X2250846Y6039967D01*
X2257399Y6052566D01*
X2267204Y6069584D01*
G37*
G36*
X1582166Y6050534D02*
G01*
X1562100Y6035294D01*
X1563556Y6034024D01*
X1681734Y6034024D01*
X1681734Y6006592D01*
X1589278Y6006592D01*
X1589278Y6034024D01*
X1563556Y6034024D01*
X1565503Y6032855D01*
X1568043Y6031738D01*
X1570990Y6030976D01*
X1570990Y5999988D01*
X1681734Y5999988D01*
X1681734Y5971540D01*
X1589278Y5971540D01*
X1589278Y5999988D01*
X1570990Y5999988D01*
X1570990Y5956808D01*
X1572666Y5955487D01*
X1576527Y5953810D01*
X1581404Y5952337D01*
X1586230Y5951728D01*
X1589278Y5951728D01*
X1589278Y5964936D01*
X1681734Y5964936D01*
X1681734Y5956808D01*
X1683004Y5955080D01*
X1686356Y5953099D01*
X1691182Y5951423D01*
X1696720Y5950712D01*
X1699514Y5950712D01*
X1699514Y6049010D01*
X1679956Y6040628D01*
X1591564Y6040628D01*
G37*
G36*
X2750058Y6001258D02*
G01*
X2746502Y6001004D01*
X2745130Y5991606D01*
X2745232Y5983122D01*
X2746603Y5975654D01*
X2748940Y5969152D01*
X2752090Y5963615D01*
X2755747Y5959043D01*
X2759710Y5955436D01*
X2763774Y5952744D01*
X2769362Y5950712D01*
X2774899Y5950458D01*
X2779572Y5952083D01*
X2782570Y5955792D01*
X2783078Y5959856D01*
X2781858Y5963615D01*
X2779115Y5966866D01*
X2775204Y5969508D01*
X2771140Y5971489D01*
X2767025Y5974130D01*
X2763012Y5977382D01*
X2759303Y5981192D01*
X2756001Y5985560D01*
X2753258Y5990386D01*
X2751226Y5995619D01*
G37*
G36*
X2628392Y6000496D02*
G01*
X2618943Y5997803D01*
X2610612Y5994806D01*
X2603296Y5991504D01*
X2597048Y5987999D01*
X2591714Y5984290D01*
X2587294Y5980531D01*
X2583738Y5976721D01*
X2580995Y5972962D01*
X2579014Y5969254D01*
X2577744Y5965698D01*
X2577134Y5962345D01*
X2577134Y5959297D01*
X2577642Y5956604D01*
X2578709Y5954268D01*
X2580182Y5952439D01*
X2582113Y5951067D01*
X2584399Y5950356D01*
X2586939Y5950254D01*
X2589784Y5950864D01*
X2592832Y5952236D01*
X2595372Y5958382D01*
X2598877Y5964682D01*
X2603195Y5971032D01*
X2608122Y5977280D01*
X2613456Y5983274D01*
X2619095Y5988862D01*
X2624785Y5993993D01*
X2630424Y5998464D01*
G37*
G36*
X1191514Y5999988D02*
G01*
X1184808Y5998616D01*
X1179372Y5994857D01*
X1175816Y5989269D01*
X1174496Y5982462D01*
X1175816Y5976112D01*
X1179372Y5970727D01*
X1184757Y5967069D01*
X1191514Y5965698D01*
X1198118Y5967069D01*
X1203553Y5970727D01*
X1207211Y5976112D01*
X1208532Y5982462D01*
X1207211Y5989269D01*
X1203553Y5994857D01*
X1198118Y5998616D01*
G37*
G36*
X2716022Y5999734D02*
G01*
X2709214Y5994654D01*
X2703728Y5989523D01*
X2699410Y5984443D01*
X2696210Y5979464D01*
X2694025Y5974689D01*
X2692755Y5970168D01*
X2692349Y5966002D01*
X2692654Y5962294D01*
X2693619Y5959043D01*
X2695092Y5956350D01*
X2697073Y5954369D01*
X2699359Y5953099D01*
X2701950Y5952591D01*
X2704744Y5953048D01*
X2707589Y5954420D01*
X2710434Y5956808D01*
X2710535Y5961989D01*
X2711043Y5967374D01*
X2712923Y5978448D01*
X2715666Y5989116D01*
X2718816Y5998718D01*
G37*
G36*
X2673096Y5999734D02*
G01*
X2665882Y5996584D01*
X2659583Y5993180D01*
X2654198Y5989675D01*
X2649728Y5986068D01*
X2646019Y5982411D01*
X2643124Y5978753D01*
X2640888Y5975146D01*
X2639364Y5971641D01*
X2638450Y5968288D01*
X2638094Y5965139D01*
X2638247Y5962294D01*
X2638856Y5959703D01*
X2639923Y5957468D01*
X2641346Y5955690D01*
X2643124Y5954318D01*
X2645156Y5953506D01*
X2647442Y5953252D01*
X2649829Y5953556D01*
X2652420Y5954572D01*
X2655062Y5956300D01*
X2656332Y5961583D01*
X2658211Y5967069D01*
X2660548Y5972657D01*
X2663291Y5978194D01*
X2669438Y5988862D01*
X2675890Y5998210D01*
G37*
G36*
X2447036Y5967730D02*
G01*
X2447036Y5953252D01*
X2555240Y5953252D01*
X2555240Y5967730D01*
G37*
G36*
X2323338Y5775706D02*
G01*
X2303272Y5769356D01*
X2304084Y5767933D01*
X2305456Y5766866D01*
X2307437Y5766155D01*
X2310130Y5766054D01*
X2319375Y5751931D01*
X2324862Y5744362D01*
X2330704Y5737098D01*
X2319020Y5737098D01*
X2310130Y5748274D01*
X2299309Y5739282D01*
X2294382Y5734812D01*
X2294991Y5733491D01*
X2296007Y5732526D01*
X2297328Y5731967D01*
X2298954Y5731764D01*
X2330450Y5731764D01*
X2330450Y5701030D01*
X2321052Y5701030D01*
X2312670Y5711952D01*
X2301748Y5703163D01*
X2296922Y5698744D01*
X2297480Y5697423D01*
X2298446Y5696458D01*
X2299766Y5695899D01*
X2301494Y5695696D01*
X2330450Y5695696D01*
X2330450Y5660644D01*
X2317242Y5660644D01*
X2308606Y5672074D01*
X2297887Y5663082D01*
X2293112Y5658358D01*
X2293670Y5657189D01*
X2294636Y5656275D01*
X2295956Y5655767D01*
X2297684Y5655564D01*
X2330450Y5655564D01*
X2330450Y5615686D01*
X2331262Y5614568D01*
X2333548Y5613146D01*
X2337206Y5611876D01*
X2342134Y5611368D01*
X2344420Y5611368D01*
X2344420Y5655564D01*
X2375154Y5655564D01*
X2376678Y5660644D01*
X2344420Y5660644D01*
X2344420Y5695696D01*
X2370582Y5695696D01*
X2371852Y5701030D01*
X2344420Y5701030D01*
X2344420Y5731764D01*
X2366010Y5731764D01*
X2366568Y5730595D01*
X2367483Y5729833D01*
X2368651Y5729376D01*
X2370074Y5729224D01*
X2419350Y5729224D01*
X2420975Y5717641D01*
X2423160Y5705856D01*
X2399030Y5705856D01*
X2399030Y5729224D01*
X2385568Y5729224D01*
X2385568Y5696712D01*
X2386838Y5695492D01*
X2389682Y5694070D01*
X2393340Y5692902D01*
X2396998Y5692394D01*
X2399030Y5692394D01*
X2399030Y5700522D01*
X2424430Y5700522D01*
X2427325Y5690971D01*
X2430780Y5681472D01*
X2424176Y5678678D01*
X2398522Y5678678D01*
X2391410Y5686806D01*
X2375662Y5674614D01*
X2376979Y5673598D01*
X2426462Y5673598D01*
X2426462Y5632196D01*
X2396744Y5632196D01*
X2396744Y5673598D01*
X2376979Y5673598D01*
X2380640Y5671972D01*
X2383028Y5671312D01*
X2383028Y5619496D01*
X2384196Y5618480D01*
X2387142Y5617210D01*
X2390851Y5616143D01*
X2394458Y5615686D01*
X2396744Y5615686D01*
X2396744Y5626862D01*
X2426462Y5626862D01*
X2426462Y5617210D01*
X2427224Y5615940D01*
X2429306Y5614466D01*
X2432659Y5613196D01*
X2437130Y5612638D01*
X2439416Y5612638D01*
X2439416Y5664962D01*
X2443276Y5659120D01*
X2447645Y5653379D01*
X2452522Y5647791D01*
X2457958Y5642356D01*
X2460498Y5645150D01*
X2455824Y5651703D01*
X2451709Y5658408D01*
X2448052Y5665216D01*
X2444902Y5672175D01*
X2442210Y5679186D01*
X2439873Y5686247D01*
X2437942Y5693359D01*
X2436368Y5700522D01*
X2454148Y5700522D01*
X2455672Y5705856D01*
X2435352Y5705856D01*
X2433675Y5717641D01*
X2432558Y5729224D01*
X2458212Y5729224D01*
X2459736Y5734304D01*
X2432304Y5734304D01*
X2431542Y5757926D01*
X2451862Y5757926D01*
X2453640Y5763006D01*
X2400808Y5763006D01*
X2393696Y5770880D01*
X2377948Y5758942D01*
X2379253Y5757926D01*
X2417572Y5757926D01*
X2418842Y5734304D01*
X2399030Y5734304D01*
X2399030Y5757926D01*
X2379253Y5757926D01*
X2380894Y5756960D01*
X2385568Y5755386D01*
X2385568Y5734304D01*
X2378456Y5744718D01*
X2370582Y5737098D01*
X2335022Y5737098D01*
X2328722Y5756402D01*
X2325776Y5766460D01*
G37*
G36*
X2364994Y5774690D02*
G01*
X2357526Y5770422D01*
X2351887Y5765901D01*
X2347925Y5761380D01*
X2345385Y5756910D01*
X2344166Y5752744D01*
X2344115Y5748985D01*
X2344978Y5745835D01*
X2346553Y5743448D01*
X2348788Y5741924D01*
X2351379Y5741517D01*
X2354224Y5742279D01*
X2357120Y5744464D01*
X2357831Y5752033D01*
X2360066Y5759805D01*
X2363317Y5767273D01*
X2367026Y5773674D01*
G37*
G36*
X2674112Y5759450D02*
G01*
X2668473Y5759145D01*
X2662885Y5758332D01*
X2657449Y5756910D01*
X2652115Y5754979D01*
X2646984Y5752490D01*
X2642108Y5749493D01*
X2637485Y5745937D01*
X2633167Y5741873D01*
X2629255Y5737301D01*
X2625699Y5732221D01*
X2622550Y5726633D01*
X2619908Y5720537D01*
X2617825Y5713984D01*
X2616250Y5706922D01*
X2615285Y5699404D01*
X2614930Y5691378D01*
X2635250Y5691378D01*
X2635504Y5698947D01*
X2636266Y5706364D01*
X2637536Y5713526D01*
X2639364Y5720334D01*
X2641701Y5726684D01*
X2644597Y5732526D01*
X2648051Y5737707D01*
X2652064Y5742178D01*
X2656687Y5745835D01*
X2661869Y5748528D01*
X2667711Y5750204D01*
X2674112Y5750814D01*
X2679039Y5750458D01*
X2683611Y5749493D01*
X2687878Y5747918D01*
X2691790Y5745835D01*
X2695346Y5743143D01*
X2698597Y5740044D01*
X2701493Y5736488D01*
X2704134Y5732526D01*
X2706420Y5728208D01*
X2708351Y5723585D01*
X2710027Y5718657D01*
X2711348Y5713526D01*
X2712415Y5708192D01*
X2713126Y5702706D01*
X2713583Y5697067D01*
X2713736Y5691378D01*
X2713583Y5685637D01*
X2713126Y5679998D01*
X2712415Y5674461D01*
X2711348Y5669076D01*
X2710027Y5663895D01*
X2708351Y5658967D01*
X2706420Y5654344D01*
X2704134Y5650026D01*
X2701493Y5646064D01*
X2698597Y5642457D01*
X2695346Y5639358D01*
X2691790Y5636717D01*
X2687878Y5634583D01*
X2683611Y5633008D01*
X2679039Y5632043D01*
X2674112Y5631688D01*
X2669235Y5632043D01*
X2664714Y5633008D01*
X2660548Y5634583D01*
X2656687Y5636717D01*
X2653182Y5639358D01*
X2649982Y5642457D01*
X2647137Y5646064D01*
X2644597Y5650026D01*
X2642362Y5654344D01*
X2640431Y5658967D01*
X2638856Y5663895D01*
X2637536Y5669076D01*
X2636520Y5674461D01*
X2635808Y5679998D01*
X2635402Y5685637D01*
X2635250Y5691378D01*
X2614930Y5691378D01*
X2615184Y5684164D01*
X2615996Y5677306D01*
X2617317Y5670854D01*
X2619146Y5664758D01*
X2621381Y5659018D01*
X2624023Y5653684D01*
X2627071Y5648756D01*
X2630474Y5644286D01*
X2634183Y5640171D01*
X2638196Y5636463D01*
X2642463Y5633262D01*
X2646984Y5630418D01*
X2651658Y5628081D01*
X2656586Y5626201D01*
X2661615Y5624779D01*
X2666746Y5623814D01*
X2666187Y5617006D01*
X2664663Y5610961D01*
X2662275Y5605830D01*
X2659075Y5601614D01*
X2655112Y5598210D01*
X2650439Y5595823D01*
X2645054Y5594350D01*
X2639060Y5593842D01*
X2632456Y5594400D01*
X2624328Y5596128D01*
X2622296Y5590794D01*
X2627782Y5588101D01*
X2633776Y5586120D01*
X2639974Y5584850D01*
X2646172Y5584444D01*
X2652014Y5584799D01*
X2657398Y5585917D01*
X2662326Y5587644D01*
X2666695Y5589981D01*
X2670606Y5592876D01*
X2674061Y5596229D01*
X2676956Y5600090D01*
X2679395Y5604306D01*
X2681325Y5608878D01*
X2682748Y5613704D01*
X2683611Y5618784D01*
X2684018Y5624068D01*
X2688996Y5625134D01*
X2693873Y5626658D01*
X2698597Y5628589D01*
X2703169Y5630926D01*
X2707487Y5633720D01*
X2711602Y5636920D01*
X2715463Y5640527D01*
X2719019Y5644591D01*
X2722270Y5649010D01*
X2725166Y5653887D01*
X2727655Y5659120D01*
X2729788Y5664809D01*
X2731516Y5670854D01*
X2732786Y5677306D01*
X2733548Y5684164D01*
X2733802Y5691378D01*
X2733446Y5699150D01*
X2732481Y5706567D01*
X2730906Y5713526D01*
X2728772Y5720029D01*
X2726131Y5726074D01*
X2723032Y5731662D01*
X2719425Y5736793D01*
X2715463Y5741416D01*
X2711145Y5745530D01*
X2706522Y5749137D01*
X2701594Y5752236D01*
X2696413Y5754827D01*
X2691028Y5756808D01*
X2685491Y5758281D01*
X2679852Y5759145D01*
G37*
G36*
X2534666Y5759450D02*
G01*
X2529027Y5759145D01*
X2523439Y5758332D01*
X2518003Y5756910D01*
X2512669Y5754979D01*
X2507538Y5752490D01*
X2502662Y5749493D01*
X2498039Y5745937D01*
X2493721Y5741873D01*
X2489809Y5737301D01*
X2486253Y5732221D01*
X2483104Y5726633D01*
X2480462Y5720537D01*
X2478379Y5713984D01*
X2476804Y5706922D01*
X2475839Y5699404D01*
X2475484Y5691378D01*
X2495804Y5691378D01*
X2496058Y5698947D01*
X2496820Y5706364D01*
X2498090Y5713526D01*
X2499918Y5720334D01*
X2502255Y5726684D01*
X2505151Y5732526D01*
X2508605Y5737707D01*
X2512618Y5742178D01*
X2517241Y5745835D01*
X2522423Y5748528D01*
X2528265Y5750204D01*
X2534666Y5750814D01*
X2539593Y5750458D01*
X2544165Y5749493D01*
X2548382Y5747918D01*
X2552293Y5745835D01*
X2555849Y5743143D01*
X2559050Y5740044D01*
X2561945Y5736488D01*
X2564536Y5732526D01*
X2566822Y5728208D01*
X2568752Y5723585D01*
X2570378Y5718657D01*
X2571699Y5713526D01*
X2572715Y5708192D01*
X2573477Y5702706D01*
X2573883Y5697067D01*
X2574036Y5691378D01*
X2573883Y5685637D01*
X2573477Y5679998D01*
X2572715Y5674461D01*
X2571699Y5669076D01*
X2570378Y5663895D01*
X2568752Y5658967D01*
X2566822Y5654344D01*
X2564536Y5650026D01*
X2561945Y5646064D01*
X2559050Y5642457D01*
X2555849Y5639358D01*
X2552293Y5636717D01*
X2548382Y5634583D01*
X2544165Y5633008D01*
X2539593Y5632043D01*
X2534666Y5631688D01*
X2529789Y5632043D01*
X2525268Y5633008D01*
X2521102Y5634583D01*
X2517241Y5636717D01*
X2513736Y5639358D01*
X2510536Y5642457D01*
X2507691Y5646064D01*
X2505151Y5650026D01*
X2502916Y5654344D01*
X2500985Y5658967D01*
X2499410Y5663895D01*
X2498090Y5669076D01*
X2497074Y5674461D01*
X2496362Y5679998D01*
X2495956Y5685637D01*
X2495804Y5691378D01*
X2475484Y5691378D01*
X2475738Y5684164D01*
X2476550Y5677306D01*
X2477871Y5670854D01*
X2479649Y5664758D01*
X2481884Y5659018D01*
X2484475Y5653684D01*
X2487523Y5648756D01*
X2490876Y5644286D01*
X2494584Y5640171D01*
X2498547Y5636463D01*
X2502814Y5633262D01*
X2507284Y5630418D01*
X2512009Y5628081D01*
X2516886Y5626201D01*
X2521915Y5624779D01*
X2527046Y5623814D01*
X2526487Y5617006D01*
X2525014Y5610961D01*
X2522677Y5605830D01*
X2519527Y5601614D01*
X2515616Y5598210D01*
X2510942Y5595823D01*
X2505608Y5594350D01*
X2499614Y5593842D01*
X2492806Y5594400D01*
X2484628Y5596128D01*
X2482596Y5590794D01*
X2488133Y5588101D01*
X2494127Y5586120D01*
X2500376Y5584850D01*
X2506472Y5584444D01*
X2512364Y5584799D01*
X2517800Y5585917D01*
X2522728Y5587644D01*
X2527198Y5589981D01*
X2531110Y5592876D01*
X2534513Y5596229D01*
X2537460Y5600090D01*
X2539847Y5604306D01*
X2541778Y5608878D01*
X2543149Y5613704D01*
X2544013Y5618784D01*
X2544318Y5624068D01*
X2549296Y5625134D01*
X2554173Y5626658D01*
X2558897Y5628589D01*
X2563469Y5630926D01*
X2567787Y5633720D01*
X2571902Y5636920D01*
X2575763Y5640527D01*
X2579319Y5644591D01*
X2582570Y5649010D01*
X2585466Y5653887D01*
X2587955Y5659120D01*
X2590088Y5664809D01*
X2591816Y5670854D01*
X2593086Y5677306D01*
X2593848Y5684164D01*
X2594102Y5691378D01*
X2593746Y5699150D01*
X2592781Y5706567D01*
X2591206Y5713526D01*
X2589123Y5720029D01*
X2586431Y5726074D01*
X2583332Y5731662D01*
X2579776Y5736793D01*
X2575814Y5741416D01*
X2571496Y5745530D01*
X2566873Y5749137D01*
X2561945Y5752236D01*
X2556814Y5754827D01*
X2551480Y5756808D01*
X2545994Y5758281D01*
X2540355Y5759145D01*
G37*
G36*
X2061972Y5759196D02*
G01*
X2053894Y5758586D01*
X2046681Y5756859D01*
X2040382Y5754116D01*
X2035098Y5750356D01*
X2030831Y5745683D01*
X2027732Y5740247D01*
X2025802Y5734050D01*
X2025142Y5727192D01*
X2025599Y5721756D01*
X2026970Y5716625D01*
X2029206Y5711850D01*
X2032304Y5707532D01*
X2036267Y5703620D01*
X2040991Y5700217D01*
X2046528Y5697321D01*
X2052828Y5694934D01*
X2045258Y5693003D01*
X2038756Y5690311D01*
X2033270Y5686856D01*
X2028850Y5682742D01*
X2025446Y5678017D01*
X2023008Y5672734D01*
X2021535Y5666892D01*
X2021078Y5660644D01*
X2021433Y5655411D01*
X2022500Y5650484D01*
X2024278Y5645861D01*
X2026666Y5641543D01*
X2029663Y5637631D01*
X2033219Y5634126D01*
X2037334Y5631027D01*
X2041906Y5628436D01*
X2046986Y5626354D01*
X2052523Y5624830D01*
X2058466Y5623864D01*
X2064766Y5623560D01*
X2071776Y5623966D01*
X2078228Y5625134D01*
X2084120Y5627116D01*
X2089353Y5630011D01*
X2093823Y5633770D01*
X2097481Y5638444D01*
X2100275Y5644083D01*
X2102104Y5650738D01*
X2100224Y5653379D01*
X2098090Y5655310D01*
X2095550Y5656478D01*
X2092706Y5656834D01*
X2088794Y5656122D01*
X2085949Y5653836D01*
X2083816Y5649874D01*
X2078736Y5632450D01*
X2073046Y5631434D01*
X2067560Y5631180D01*
X2060905Y5631738D01*
X2055012Y5633364D01*
X2049983Y5635955D01*
X2045766Y5639460D01*
X2042464Y5643778D01*
X2040077Y5648858D01*
X2038604Y5654598D01*
X2038096Y5660898D01*
X2038553Y5667400D01*
X2039975Y5673242D01*
X2042363Y5678271D01*
X2045716Y5682488D01*
X2049983Y5685840D01*
X2055215Y5688330D01*
X2061413Y5689854D01*
X2068575Y5690362D01*
X2077720Y5690362D01*
X2077720Y5699252D01*
X2070100Y5699252D01*
X2063851Y5699709D01*
X2058263Y5701030D01*
X2053386Y5703214D01*
X2049322Y5706262D01*
X2046020Y5710123D01*
X2043633Y5714796D01*
X2042160Y5720232D01*
X2041652Y5726430D01*
X2042058Y5732170D01*
X2043277Y5737199D01*
X2045258Y5741466D01*
X2048002Y5744972D01*
X2051456Y5747715D01*
X2055571Y5749696D01*
X2060346Y5750915D01*
X2067915Y5751322D01*
X2072589Y5750915D01*
X2075180Y5750306D01*
X2080209Y5733846D01*
X2082393Y5730087D01*
X2085390Y5727903D01*
X2089404Y5727192D01*
X2092299Y5727547D01*
X2094839Y5728716D01*
X2096922Y5730849D01*
X2098548Y5734050D01*
X2096719Y5739942D01*
X2093874Y5745073D01*
X2090166Y5749391D01*
X2085695Y5752896D01*
X2080514Y5755640D01*
X2074773Y5757621D01*
X2068575Y5758789D01*
G37*
G36*
X1573276Y5759196D02*
G01*
X1565910Y5758586D01*
X1559356Y5756910D01*
X1553616Y5754166D01*
X1548790Y5750509D01*
X1544929Y5746038D01*
X1542084Y5740857D01*
X1540357Y5735066D01*
X1539772Y5728970D01*
X1553718Y5728970D01*
X1555038Y5737402D01*
X1558950Y5744514D01*
X1565198Y5749493D01*
X1573530Y5751322D01*
X1581708Y5749848D01*
X1588465Y5745632D01*
X1593138Y5738977D01*
X1594866Y5730240D01*
X1594612Y5726176D01*
X1593748Y5722162D01*
X1592173Y5718149D01*
X1589786Y5714187D01*
X1586433Y5710275D01*
X1582013Y5706414D01*
X1576374Y5702554D01*
X1569466Y5698744D01*
X1562100Y5705398D01*
X1557223Y5712307D01*
X1554530Y5720029D01*
X1553718Y5728970D01*
X1539772Y5728970D01*
X1540002Y5724753D01*
X1540865Y5720689D01*
X1542389Y5716524D01*
X1544726Y5712307D01*
X1547876Y5708142D01*
X1551940Y5703976D01*
X1557121Y5699912D01*
X1563370Y5695950D01*
X1556359Y5692292D01*
X1550314Y5688431D01*
X1545234Y5684367D01*
X1541119Y5679998D01*
X1537919Y5675223D01*
X1535684Y5670042D01*
X1534363Y5664352D01*
X1533906Y5658104D01*
X1534087Y5655564D01*
X1549654Y5655564D01*
X1550009Y5659882D01*
X1551076Y5663996D01*
X1553057Y5667959D01*
X1555953Y5671769D01*
X1559966Y5675579D01*
X1565198Y5679338D01*
X1571701Y5683148D01*
X1579626Y5687060D01*
X1584096Y5684062D01*
X1587906Y5681014D01*
X1591157Y5677814D01*
X1593799Y5674410D01*
X1595831Y5670702D01*
X1597253Y5666689D01*
X1598117Y5662218D01*
X1598422Y5657342D01*
X1597964Y5651703D01*
X1596593Y5646572D01*
X1594408Y5642051D01*
X1591462Y5638241D01*
X1587804Y5635142D01*
X1583537Y5632856D01*
X1578660Y5631434D01*
X1573276Y5630926D01*
X1568196Y5631383D01*
X1563573Y5632704D01*
X1559560Y5634837D01*
X1556105Y5637733D01*
X1553362Y5641289D01*
X1551330Y5645505D01*
X1550060Y5650280D01*
X1549654Y5655564D01*
X1534087Y5655564D01*
X1534261Y5653125D01*
X1535277Y5648401D01*
X1536903Y5644032D01*
X1539189Y5640019D01*
X1541983Y5636361D01*
X1545285Y5633110D01*
X1549044Y5630316D01*
X1553260Y5627928D01*
X1557934Y5626049D01*
X1562912Y5624677D01*
X1568196Y5623864D01*
X1573784Y5623560D01*
X1579575Y5623814D01*
X1585061Y5624525D01*
X1590141Y5625642D01*
X1594815Y5627268D01*
X1599031Y5629351D01*
X1602790Y5631840D01*
X1606092Y5634786D01*
X1608836Y5638139D01*
X1611020Y5641898D01*
X1612595Y5646064D01*
X1613560Y5650636D01*
X1613916Y5655564D01*
X1613458Y5660999D01*
X1612138Y5666028D01*
X1609852Y5670753D01*
X1606753Y5675122D01*
X1602740Y5679236D01*
X1597863Y5683046D01*
X1592072Y5686704D01*
X1585468Y5690108D01*
X1591462Y5693765D01*
X1596542Y5697677D01*
X1600758Y5701842D01*
X1604111Y5706313D01*
X1606702Y5710986D01*
X1608480Y5715965D01*
X1609496Y5721197D01*
X1609852Y5726684D01*
X1609090Y5733846D01*
X1607007Y5740247D01*
X1603654Y5745784D01*
X1599184Y5750458D01*
X1593799Y5754217D01*
X1587550Y5756960D01*
X1580692Y5758637D01*
G37*
G36*
X1477010Y5759196D02*
G01*
X1468323Y5758535D01*
X1460855Y5756656D01*
X1454658Y5753608D01*
X1449628Y5749544D01*
X1445768Y5744514D01*
X1443075Y5738622D01*
X1441450Y5731967D01*
X1440942Y5724652D01*
X1441145Y5720486D01*
X1441805Y5716422D01*
X1442923Y5712409D01*
X1444599Y5708345D01*
X1446784Y5704128D01*
X1449527Y5699760D01*
X1452930Y5695086D01*
X1461617Y5684672D01*
X1473149Y5672175D01*
X1502918Y5641086D01*
X1435354Y5641086D01*
X1435354Y5626100D01*
X1515364Y5626100D01*
X1515364Y5638292D01*
X1485900Y5671566D01*
X1479245Y5679440D01*
X1473504Y5686755D01*
X1468678Y5693562D01*
X1464767Y5699963D01*
X1461770Y5706110D01*
X1459636Y5712053D01*
X1458366Y5717844D01*
X1457960Y5723636D01*
X1458366Y5729630D01*
X1459636Y5735015D01*
X1461617Y5739739D01*
X1464360Y5743752D01*
X1467815Y5747004D01*
X1471879Y5749340D01*
X1476603Y5750814D01*
X1481836Y5751322D01*
X1486560Y5751118D01*
X1492250Y5750306D01*
X1496060Y5736082D01*
X1497990Y5730290D01*
X1500428Y5726430D01*
X1503324Y5724296D01*
X1506728Y5723636D01*
X1509674Y5724042D01*
X1512265Y5725261D01*
X1514500Y5727192D01*
X1516126Y5729732D01*
X1514500Y5736590D01*
X1511706Y5742584D01*
X1507794Y5747664D01*
X1502968Y5751779D01*
X1497330Y5755030D01*
X1491030Y5757367D01*
X1484223Y5758738D01*
G37*
G36*
X1841500Y5758434D02*
G01*
X1841500Y5740146D01*
X1857248Y5740146D01*
X1900174Y5677916D01*
X1857248Y5677916D01*
X1857248Y5740146D01*
X1841500Y5740146D01*
X1841500Y5677916D01*
X1820925Y5677916D01*
X1820925Y5666740D01*
X1841500Y5666740D01*
X1841500Y5626100D01*
X1857248Y5626100D01*
X1857248Y5666740D01*
X1910080Y5666740D01*
X1910080Y5676138D01*
X1852422Y5758434D01*
G37*
G36*
X1370584Y5758434D02*
G01*
X1368044Y5756402D01*
X1368552Y5728462D01*
X1368501Y5651652D01*
X1368298Y5636006D01*
X1340866Y5632196D01*
X1340866Y5626100D01*
X1412748Y5626100D01*
X1412748Y5632196D01*
X1385062Y5636006D01*
X1384554Y5667248D01*
X1384554Y5743702D01*
X1410716Y5741162D01*
X1410716Y5748020D01*
G37*
G36*
X1924050Y5756402D02*
G01*
X1924050Y5746750D01*
X1970024Y5626100D01*
X1985010Y5626100D01*
X1986788Y5627878D01*
X1934972Y5741162D01*
X2003298Y5741162D01*
X2003298Y5756402D01*
G37*
G36*
X1732025Y5756402D02*
G01*
X1732025Y5741162D01*
X1788160Y5741162D01*
X1790700Y5704332D01*
X1785924Y5705602D01*
X1781098Y5706465D01*
X1776069Y5706973D01*
X1770888Y5707126D01*
X1764792Y5706821D01*
X1759000Y5705906D01*
X1753666Y5704433D01*
X1748739Y5702350D01*
X1744218Y5699709D01*
X1740255Y5696508D01*
X1736801Y5692749D01*
X1733854Y5688482D01*
X1731568Y5683656D01*
X1729841Y5678322D01*
X1728825Y5672531D01*
X1728470Y5666232D01*
X1728825Y5660034D01*
X1729943Y5654243D01*
X1731721Y5648858D01*
X1734159Y5643880D01*
X1737258Y5639358D01*
X1740916Y5635345D01*
X1745183Y5631891D01*
X1749958Y5628995D01*
X1755241Y5626658D01*
X1761032Y5624931D01*
X1767281Y5623915D01*
X1773936Y5623560D01*
X1781048Y5623966D01*
X1787448Y5625287D01*
X1793138Y5627420D01*
X1798116Y5630367D01*
X1802333Y5634228D01*
X1805736Y5638901D01*
X1808429Y5644388D01*
X1810257Y5650738D01*
X1808784Y5653379D01*
X1806752Y5655310D01*
X1804162Y5656478D01*
X1801114Y5656834D01*
X1797354Y5656275D01*
X1794560Y5654243D01*
X1792376Y5650534D01*
X1790446Y5644642D01*
X1787398Y5632958D01*
X1781302Y5631586D01*
X1775206Y5631180D01*
X1768449Y5631789D01*
X1762506Y5633516D01*
X1757425Y5636361D01*
X1753209Y5640222D01*
X1749856Y5645048D01*
X1747469Y5650788D01*
X1745996Y5657342D01*
X1745488Y5664708D01*
X1746046Y5671972D01*
X1747621Y5678373D01*
X1750263Y5683859D01*
X1753819Y5688431D01*
X1758238Y5691987D01*
X1763471Y5694629D01*
X1769516Y5696204D01*
X1776222Y5696712D01*
X1780844Y5696559D01*
X1785518Y5696102D01*
X1790141Y5695340D01*
X1794764Y5694172D01*
X1799843Y5695696D01*
X1795780Y5756402D01*
G37*
G36*
X1634489Y5756402D02*
G01*
X1634489Y5741162D01*
X1690624Y5741162D01*
X1693164Y5704332D01*
X1688388Y5705602D01*
X1683562Y5706465D01*
X1678533Y5706973D01*
X1673352Y5707126D01*
X1667256Y5706821D01*
X1661464Y5705906D01*
X1656130Y5704433D01*
X1651203Y5702350D01*
X1646682Y5699709D01*
X1642719Y5696508D01*
X1639265Y5692749D01*
X1636318Y5688482D01*
X1634032Y5683656D01*
X1632305Y5678322D01*
X1631289Y5672531D01*
X1630933Y5666232D01*
X1631289Y5660034D01*
X1632407Y5654243D01*
X1634185Y5648858D01*
X1636623Y5643880D01*
X1639722Y5639358D01*
X1643380Y5635345D01*
X1647647Y5631891D01*
X1652422Y5628995D01*
X1657705Y5626658D01*
X1663496Y5624931D01*
X1669745Y5623915D01*
X1676400Y5623560D01*
X1683461Y5623966D01*
X1689862Y5625287D01*
X1695551Y5627420D01*
X1700479Y5630367D01*
X1704644Y5634228D01*
X1708099Y5638901D01*
X1710791Y5644388D01*
X1712722Y5650738D01*
X1711198Y5653379D01*
X1709064Y5655310D01*
X1706422Y5656478D01*
X1703324Y5656834D01*
X1699666Y5656275D01*
X1696872Y5654243D01*
X1694738Y5650534D01*
X1692910Y5644642D01*
X1689862Y5632958D01*
X1683613Y5631586D01*
X1677416Y5631180D01*
X1670659Y5631789D01*
X1664766Y5633516D01*
X1659737Y5636361D01*
X1655521Y5640222D01*
X1652270Y5645048D01*
X1649882Y5650788D01*
X1648460Y5657342D01*
X1647952Y5664708D01*
X1648510Y5671972D01*
X1650085Y5678373D01*
X1652727Y5683859D01*
X1656232Y5688431D01*
X1660652Y5691987D01*
X1665833Y5694629D01*
X1671777Y5696204D01*
X1678432Y5696712D01*
X1683054Y5696559D01*
X1687728Y5696102D01*
X1692452Y5695340D01*
X1697228Y5694172D01*
X1702307Y5695696D01*
X1697989Y5756402D01*
G37*
G36*
X1240790Y5756402D02*
G01*
X1240790Y5746750D01*
X1286764Y5626100D01*
X1301750Y5626100D01*
X1303528Y5627878D01*
X1251712Y5741162D01*
X1320038Y5741162D01*
X1320038Y5756402D01*
G37*
G36*
X2245360Y5725922D02*
G01*
X2240432Y5724956D01*
X2236622Y5722264D01*
X2234082Y5718302D01*
X2233168Y5713476D01*
X2234082Y5708802D01*
X2236622Y5705043D01*
X2240432Y5702452D01*
X2245360Y5701538D01*
X2250287Y5702452D01*
X2254250Y5705043D01*
X2256840Y5708802D01*
X2257806Y5713476D01*
X2256840Y5718302D01*
X2254250Y5722264D01*
X2250287Y5724956D01*
G37*
G36*
X2245360Y5656834D02*
G01*
X2240432Y5655868D01*
X2236622Y5653176D01*
X2234082Y5649214D01*
X2233168Y5644388D01*
X2234082Y5639714D01*
X2236622Y5635802D01*
X2240432Y5633161D01*
X2245360Y5632196D01*
X2250287Y5633161D01*
X2254250Y5635802D01*
X2256840Y5639714D01*
X2257806Y5644388D01*
X2256840Y5649214D01*
X2254250Y5653176D01*
X2250287Y5655868D01*
G37*
G36*
X3106420Y7333996D02*
G01*
X3081528Y7327138D01*
X3082442Y7325715D01*
X3083864Y7324801D01*
X3086049Y7324445D01*
X3089402Y7324598D01*
X3094228Y7317333D01*
X3099816Y7310120D01*
X3032760Y7310120D01*
X3020568Y7320025D01*
X3003827Y7304024D01*
X3104896Y7304024D01*
X3110230Y7297928D01*
X3106267Y7294168D01*
X3097377Y7287158D01*
X3092551Y7283907D01*
X3087471Y7280808D01*
X3082137Y7277862D01*
X3070860Y7272528D01*
X3060496Y7279792D01*
X3050997Y7287514D01*
X3042462Y7295591D01*
X3038500Y7299756D01*
X3034792Y7304024D01*
X3003827Y7304024D01*
X3003296Y7303516D01*
X3004667Y7302246D01*
X3006598Y7301433D01*
X3009290Y7300874D01*
X3012948Y7300468D01*
X3017266Y7295692D01*
X3021888Y7291019D01*
X3026714Y7286548D01*
X3037179Y7277963D01*
X3048457Y7269988D01*
X3054350Y7266178D01*
X3042005Y7262215D01*
X3029254Y7258812D01*
X3016199Y7255814D01*
X3002991Y7253325D01*
X2989630Y7251293D01*
X2976372Y7249668D01*
X2976880Y7247381D01*
X2981756Y7245400D01*
X2985770Y7242149D01*
X2987744Y7239253D01*
X3021584Y7239253D01*
X3034131Y7243165D01*
X3046272Y7247585D01*
X3057956Y7252563D01*
X3069082Y7258050D01*
X3078276Y7253528D01*
X3087878Y7249414D01*
X3097834Y7245603D01*
X3108147Y7242149D01*
X3118764Y7239000D01*
X3129788Y7236206D01*
X3117342Y7230364D01*
X3029458Y7230364D01*
X3021584Y7239253D01*
X2987744Y7239253D01*
X2988818Y7237679D01*
X2990850Y7232142D01*
X3005378Y7235139D01*
X3019298Y7238492D01*
X3002788Y7225792D01*
X3004064Y7224522D01*
X3118612Y7224522D01*
X3118612Y7197852D01*
X3080004Y7197852D01*
X3080004Y7224522D01*
X3065018Y7224522D01*
X3065018Y7197852D01*
X3027426Y7197852D01*
X3027426Y7224522D01*
X3004064Y7224522D01*
X3005734Y7223455D01*
X3008071Y7222490D01*
X3010916Y7221728D01*
X3010916Y7192009D01*
X3118612Y7192009D01*
X3118612Y7165086D01*
X3080004Y7165086D01*
X3080004Y7192009D01*
X3065018Y7192009D01*
X3065018Y7165086D01*
X3027426Y7165086D01*
X3027426Y7192009D01*
X3010916Y7192009D01*
X3010916Y7152131D01*
X3012440Y7150963D01*
X3015894Y7149490D01*
X3020364Y7148118D01*
X3024886Y7147559D01*
X3027426Y7147559D01*
X3027426Y7159244D01*
X3118612Y7159244D01*
X3118612Y7151878D01*
X3119831Y7150252D01*
X3122980Y7148423D01*
X3127400Y7146899D01*
X3132328Y7146290D01*
X3134868Y7146290D01*
X3134868Y7234681D01*
X3150565Y7231481D01*
X3166872Y7228840D01*
X3168396Y7232142D01*
X3156661Y7235088D01*
X3145129Y7238441D01*
X3133801Y7242149D01*
X3122726Y7246264D01*
X3112008Y7250633D01*
X3101594Y7255357D01*
X3091586Y7260386D01*
X3082036Y7265670D01*
X3090926Y7272020D01*
X3099206Y7278878D01*
X3106775Y7286294D01*
X3110280Y7290257D01*
X3113532Y7294372D01*
X3124098Y7283907D01*
X3129686Y7278878D01*
X3141370Y7269530D01*
X3147364Y7265263D01*
X3153410Y7261352D01*
X3159506Y7257796D01*
X3161792Y7259828D01*
X3153664Y7266990D01*
X3145586Y7275220D01*
X3137712Y7284313D01*
X3130194Y7293965D01*
X3123184Y7303973D01*
X3116732Y7314133D01*
X3111144Y7324242D01*
G37*
G36*
X2733548Y7333996D02*
G01*
X2711196Y7331456D01*
X2711754Y7329373D01*
X2713024Y7327696D01*
X2715209Y7326528D01*
X2718308Y7325868D01*
X2718308Y7289292D01*
X2712974Y7289292D01*
X2704084Y7302500D01*
X2698445Y7297115D01*
X2693466Y7291984D01*
X2688844Y7286752D01*
X2689047Y7285685D01*
X2689707Y7284872D01*
X2690672Y7284161D01*
X2691892Y7283703D01*
X2644140Y7283703D01*
X2644140Y7308088D01*
X2656281Y7306462D01*
X2680766Y7303922D01*
X2692908Y7303008D01*
X2693670Y7306564D01*
X2680766Y7309002D01*
X2667457Y7311898D01*
X2654046Y7315149D01*
X2640838Y7318705D01*
X2628239Y7322362D01*
X2616504Y7326122D01*
X2606040Y7329881D01*
X2597150Y7333488D01*
X2580132Y7317740D01*
X2581859Y7316724D01*
X2584246Y7316368D01*
X2587345Y7316724D01*
X2591054Y7317994D01*
X2608275Y7314234D01*
X2628138Y7310628D01*
X2628138Y7283703D01*
X2601468Y7283703D01*
X2590800Y7296912D01*
X2584043Y7291476D01*
X2572004Y7280909D01*
X2572664Y7279436D01*
X2573782Y7278420D01*
X2575306Y7277811D01*
X2577084Y7277608D01*
X2628138Y7277608D01*
X2628138Y7168642D01*
X2644140Y7168642D01*
X2644140Y7253731D01*
X2645054Y7253325D01*
X2646222Y7253224D01*
X2647594Y7253528D01*
X2649220Y7254240D01*
X2654808Y7252157D01*
X2661970Y7249820D01*
X2669895Y7247585D01*
X2677922Y7245603D01*
X2677922Y7211314D01*
X2669540Y7211314D01*
X2662428Y7221981D01*
X2649220Y7208774D01*
X2649728Y7207300D01*
X2650794Y7206284D01*
X2652369Y7205675D01*
X2654300Y7205472D01*
X2677922Y7205472D01*
X2677922Y7168642D01*
X2596134Y7168642D01*
X2596134Y7205472D01*
X2618740Y7205472D01*
X2620772Y7211314D01*
X2596134Y7211314D01*
X2596134Y7246620D01*
X2619756Y7246620D01*
X2621534Y7252716D01*
X2597912Y7252716D01*
X2589784Y7261606D01*
X2573020Y7248398D01*
X2574086Y7247280D01*
X2575763Y7246213D01*
X2577896Y7245299D01*
X2580386Y7244588D01*
X2580386Y7153402D01*
X2581808Y7152131D01*
X2585059Y7150506D01*
X2589326Y7149134D01*
X2593594Y7148575D01*
X2596134Y7148575D01*
X2596134Y7162800D01*
X2677922Y7162800D01*
X2677922Y7152131D01*
X2678887Y7150811D01*
X2681325Y7149134D01*
X2685338Y7147661D01*
X2690876Y7147052D01*
X2692908Y7147052D01*
X2692908Y7257288D01*
X2675636Y7251700D01*
X2665323Y7260640D01*
X2657348Y7268209D01*
X2644140Y7254748D01*
X2644140Y7277608D01*
X2695956Y7277608D01*
X2697226Y7283450D01*
X2718308Y7283450D01*
X2718308Y7243572D01*
X2694940Y7250175D01*
X2694178Y7247636D01*
X2704998Y7241082D01*
X2718308Y7233412D01*
X2718308Y7167625D01*
X2718460Y7163308D01*
X2718968Y7159447D01*
X2720035Y7156043D01*
X2721864Y7153148D01*
X2724607Y7150709D01*
X2728366Y7148779D01*
X2733446Y7147306D01*
X2739898Y7146290D01*
X2740406Y7149744D01*
X2741117Y7152843D01*
X2742234Y7155535D01*
X2743708Y7157720D01*
X2746095Y7159498D01*
X2749296Y7161072D01*
X2753410Y7162342D01*
X2758694Y7163308D01*
X2758694Y7166356D01*
X2737866Y7165086D01*
X2735783Y7165289D01*
X2734462Y7165949D01*
X2733751Y7167118D01*
X2733548Y7168896D01*
X2733548Y7225284D01*
X2749296Y7217156D01*
X2750058Y7215276D01*
X2751124Y7213853D01*
X2752394Y7212787D01*
X2753868Y7212075D01*
X2762250Y7232396D01*
X2750362Y7234986D01*
X2733548Y7239508D01*
X2733548Y7283450D01*
X2759710Y7283450D01*
X2761234Y7289292D01*
X2733548Y7289292D01*
G37*
G36*
X3487674Y7331709D02*
G01*
X3465576Y7329424D01*
X3466236Y7327493D01*
X3467506Y7325868D01*
X3469589Y7324648D01*
X3472687Y7323836D01*
X3472687Y7301992D01*
X3465068Y7301992D01*
X3455670Y7314184D01*
X3449370Y7309103D01*
X3438144Y7299452D01*
X3438804Y7297978D01*
X3439972Y7296962D01*
X3441649Y7296353D01*
X3443732Y7296150D01*
X3472687Y7296150D01*
X3472687Y7276846D01*
X3463290Y7276846D01*
X3455924Y7285228D01*
X3439414Y7272528D01*
X3441256Y7271003D01*
X3498850Y7271003D01*
X3498850Y7231634D01*
X3486912Y7231634D01*
X3486912Y7271003D01*
X3473450Y7271003D01*
X3473450Y7231634D01*
X3461258Y7231634D01*
X3461258Y7271003D01*
X3441256Y7271003D01*
X3442563Y7270191D01*
X3444951Y7269225D01*
X3447796Y7268464D01*
X3447796Y7222236D01*
X3449065Y7221016D01*
X3451961Y7219594D01*
X3455670Y7218425D01*
X3459226Y7217918D01*
X3461258Y7217918D01*
X3461258Y7225792D01*
X3472687Y7225792D01*
X3472687Y7214108D01*
X3464864Y7210958D01*
X3458362Y7207554D01*
X3452977Y7203948D01*
X3448761Y7200239D01*
X3445560Y7196480D01*
X3443325Y7192772D01*
X3441903Y7189216D01*
X3441293Y7185863D01*
X3441395Y7182866D01*
X3442157Y7180275D01*
X3443376Y7178192D01*
X3445103Y7176617D01*
X3447186Y7175753D01*
X3449574Y7175652D01*
X3452164Y7176363D01*
X3454908Y7178040D01*
X3457346Y7186320D01*
X3461512Y7194803D01*
X3466846Y7202881D01*
X3472687Y7210044D01*
X3472687Y7151116D01*
X3473653Y7149947D01*
X3476193Y7148322D01*
X3480104Y7146899D01*
X3485387Y7146290D01*
X3487674Y7146290D01*
X3487674Y7204709D01*
X3491839Y7198258D01*
X3496310Y7192060D01*
X3501136Y7186066D01*
X3506266Y7180376D01*
X3511702Y7174941D01*
X3517442Y7169759D01*
X3523487Y7164882D01*
X3529837Y7160259D01*
X3532124Y7163053D01*
X3523843Y7171893D01*
X3519932Y7176668D01*
X3512718Y7186777D01*
X3509365Y7192060D01*
X3503320Y7202982D01*
X3500526Y7208570D01*
X3495649Y7220000D01*
X3493515Y7225792D01*
X3498850Y7225792D01*
X3498850Y7220712D01*
X3499815Y7219492D01*
X3502304Y7218070D01*
X3505809Y7216902D01*
X3509772Y7216394D01*
X3511804Y7216394D01*
X3511804Y7283196D01*
X3497834Y7276846D01*
X3487674Y7276846D01*
X3487674Y7296150D01*
X3514090Y7296150D01*
X3515868Y7301992D01*
X3487674Y7301992D01*
G37*
G36*
X3407918Y7330186D02*
G01*
X3386582Y7327900D01*
X3387293Y7325817D01*
X3388664Y7324140D01*
X3390849Y7322972D01*
X3393948Y7322312D01*
X3393948Y7167372D01*
X3394557Y7159498D01*
X3397250Y7153452D01*
X3403396Y7149236D01*
X3414268Y7146798D01*
X3414776Y7150100D01*
X3415487Y7152995D01*
X3416604Y7155586D01*
X3418078Y7157720D01*
X3420516Y7159498D01*
X3423716Y7160971D01*
X3427780Y7162241D01*
X3432810Y7163308D01*
X3432810Y7166609D01*
X3411982Y7165340D01*
X3410051Y7165543D01*
X3408781Y7166203D01*
X3408121Y7167473D01*
X3407918Y7169403D01*
G37*
G36*
X3234690Y7329424D02*
G01*
X3218688Y7318756D01*
X3220821Y7316673D01*
X3226562Y7312558D01*
X3230118Y7310374D01*
X3228441Y7295845D01*
X3226409Y7281367D01*
X3224022Y7267041D01*
X3221177Y7252970D01*
X3217926Y7239253D01*
X3214166Y7225995D01*
X3209899Y7213244D01*
X3205073Y7201153D01*
X3202482Y7195362D01*
X3196742Y7184390D01*
X3190392Y7174331D01*
X3186938Y7169607D01*
X3183331Y7165187D01*
X3179572Y7161022D01*
X3180588Y7158990D01*
X3185871Y7157313D01*
X3190646Y7154468D01*
X3194608Y7150658D01*
X3197606Y7146290D01*
X3202584Y7154164D01*
X3207105Y7162495D01*
X3211220Y7171283D01*
X3214928Y7180529D01*
X3218230Y7190282D01*
X3221228Y7200493D01*
X3223920Y7211161D01*
X3226257Y7222337D01*
X3228390Y7233970D01*
X3230219Y7246061D01*
X3233216Y7271715D01*
X3235502Y7299248D01*
X3237230Y7328662D01*
G37*
G36*
X2806192Y7328916D02*
G01*
X2786380Y7313930D01*
X2787584Y7312914D01*
X2922524Y7312914D01*
X2922524Y7271258D01*
X2877820Y7271258D01*
X2877820Y7312914D01*
X2861564Y7312914D01*
X2861564Y7271258D01*
X2812542Y7271258D01*
X2812542Y7312914D01*
X2787584Y7312914D01*
X2790190Y7311288D01*
X2792933Y7310120D01*
X2796286Y7309358D01*
X2796286Y7265416D01*
X2922524Y7265416D01*
X2922524Y7248347D01*
X2923184Y7231227D01*
X2924048Y7222490D01*
X2877820Y7222490D01*
X2877820Y7265416D01*
X2861564Y7265416D01*
X2861564Y7222490D01*
X2812542Y7222490D01*
X2812542Y7265416D01*
X2796286Y7265416D01*
X2796286Y7169403D01*
X2796438Y7164984D01*
X2796997Y7161022D01*
X2798165Y7157567D01*
X2800146Y7154570D01*
X2803144Y7152030D01*
X2807309Y7149947D01*
X2812948Y7148423D01*
X2820162Y7147306D01*
X2820822Y7151014D01*
X2821736Y7154214D01*
X2823057Y7156958D01*
X2824988Y7159244D01*
X2827680Y7160920D01*
X2831388Y7162444D01*
X2836367Y7163866D01*
X2842768Y7165086D01*
X2842768Y7168388D01*
X2817368Y7166356D01*
X2815031Y7166660D01*
X2813507Y7167625D01*
X2812745Y7169150D01*
X2812542Y7171181D01*
X2812542Y7216394D01*
X2861564Y7216394D01*
X2861564Y7153402D01*
X2862478Y7152081D01*
X2865120Y7150404D01*
X2869285Y7148931D01*
X2874772Y7148322D01*
X2877820Y7148322D01*
X2877820Y7216394D01*
X2924810Y7216394D01*
X2925876Y7210044D01*
X2927197Y7203744D01*
X2928823Y7197547D01*
X2930753Y7191349D01*
X2932988Y7185304D01*
X2935681Y7179360D01*
X2938729Y7173518D01*
X2942234Y7167829D01*
X2946247Y7162342D01*
X2950718Y7157059D01*
X2955798Y7151928D01*
X2961386Y7147052D01*
X2964434Y7149084D01*
X2961132Y7153656D01*
X2958084Y7158380D01*
X2955340Y7163206D01*
X2950667Y7173163D01*
X2948686Y7178294D01*
X2945434Y7188758D01*
X2944063Y7194143D01*
X2941980Y7205065D01*
X2940507Y7216241D01*
X2939542Y7227570D01*
X2939034Y7239101D01*
X2938780Y7250684D01*
X2938780Y7326375D01*
X2919730Y7318756D01*
X2814828Y7318756D01*
G37*
G36*
X3314954Y7318502D02*
G01*
X3297174Y7304531D01*
X3298444Y7303262D01*
X3347720Y7303262D01*
X3347720Y7208520D01*
X3321304Y7208520D01*
X3321304Y7303262D01*
X3298444Y7303262D01*
X3300323Y7302093D01*
X3302812Y7301179D01*
X3305810Y7300468D01*
X3305810Y7191756D01*
X3307181Y7190384D01*
X3310382Y7188606D01*
X3314547Y7187082D01*
X3318764Y7186422D01*
X3321304Y7186422D01*
X3321304Y7202424D01*
X3347720Y7202424D01*
X3347720Y7180580D01*
X3348736Y7178802D01*
X3351479Y7176871D01*
X3355543Y7175347D01*
X3360420Y7174738D01*
X3362960Y7174738D01*
X3362960Y7316724D01*
X3346958Y7309103D01*
X3323336Y7309103D01*
G37*
G36*
X3530092Y7317740D02*
G01*
X3513836Y7305294D01*
X3514953Y7304176D01*
X3516054Y7303516D01*
X3553460Y7303516D01*
X3553460Y7213346D01*
X3535426Y7213346D01*
X3535426Y7303516D01*
X3516054Y7303516D01*
X3519017Y7302195D01*
X3521710Y7301484D01*
X3521710Y7197852D01*
X3522979Y7196429D01*
X3525824Y7194854D01*
X3529482Y7193584D01*
X3533140Y7193025D01*
X3535426Y7193025D01*
X3535426Y7207503D01*
X3553460Y7207503D01*
X3553460Y7186422D01*
X3554374Y7184898D01*
X3556863Y7183221D01*
X3560521Y7181900D01*
X3564890Y7181342D01*
X3567429Y7181342D01*
X3567429Y7316470D01*
X3552444Y7309612D01*
X3537458Y7309612D01*
G37*
G36*
X3280410Y7316724D02*
G01*
X3254502Y7312914D01*
X3255111Y7311186D01*
X3256483Y7309916D01*
X3258870Y7309002D01*
X3262629Y7308596D01*
X3263239Y7293914D01*
X3264204Y7279792D01*
X3265576Y7266076D01*
X3267354Y7252919D01*
X3269640Y7240168D01*
X3272586Y7227925D01*
X3276142Y7216140D01*
X3280410Y7204811D01*
X3285439Y7193889D01*
X3288284Y7188606D01*
X3294684Y7178344D01*
X3298190Y7173417D01*
X3306013Y7163765D01*
X3314903Y7154570D01*
X3324860Y7145781D01*
X3327146Y7148068D01*
X3319424Y7156907D01*
X3315817Y7161580D01*
X3309315Y7171283D01*
X3306318Y7176312D01*
X3300933Y7186879D01*
X3296259Y7197902D01*
X3292297Y7209434D01*
X3288893Y7221423D01*
X3286150Y7233920D01*
X3283965Y7246772D01*
X3282340Y7260031D01*
X3281222Y7273696D01*
X3280511Y7287717D01*
X3280257Y7302042D01*
G37*
G36*
X2402586Y7313930D02*
G01*
X2381758Y7297420D01*
X2382621Y7296658D01*
X2517140Y7296658D01*
X2517140Y7185659D01*
X2409698Y7185659D01*
X2409698Y7296658D01*
X2382621Y7296658D01*
X2383485Y7295896D01*
X2385872Y7294422D01*
X2388971Y7293152D01*
X2392680Y7292340D01*
X2392680Y7162292D01*
X2394356Y7160971D01*
X2397963Y7159294D01*
X2402586Y7157821D01*
X2407412Y7157212D01*
X2409698Y7157212D01*
X2409698Y7179564D01*
X2517140Y7179564D01*
X2517140Y7160259D01*
X2518359Y7158431D01*
X2521559Y7156348D01*
X2526131Y7154621D01*
X2531364Y7153909D01*
X2534412Y7153909D01*
X2534412Y7310881D01*
X2515870Y7302753D01*
X2412492Y7302753D01*
G37*
G36*
X3437382Y7310881D02*
G01*
X3417315Y7308596D01*
X3417925Y7306818D01*
X3419144Y7305395D01*
X3421126Y7304278D01*
X3424174Y7303516D01*
X3424174Y7200138D01*
X3425139Y7198766D01*
X3427577Y7197293D01*
X3430930Y7196074D01*
X3434587Y7195566D01*
X3437382Y7195566D01*
G37*
G36*
X1741932Y7333996D02*
G01*
X1717802Y7331456D01*
X1718513Y7329474D01*
X1719884Y7327747D01*
X1722170Y7326477D01*
X1725422Y7325614D01*
X1725422Y7298181D01*
X1678178Y7298181D01*
X1669542Y7308088D01*
X1651254Y7293609D01*
X1652602Y7292340D01*
X1787652Y7292340D01*
X1787652Y7254748D01*
X1741932Y7254748D01*
X1741932Y7292340D01*
X1725422Y7292340D01*
X1725422Y7254748D01*
X1676146Y7254748D01*
X1676146Y7292340D01*
X1652602Y7292340D01*
X1654403Y7291171D01*
X1656791Y7290053D01*
X1659636Y7289292D01*
X1659636Y7248906D01*
X1787652Y7248906D01*
X1787652Y7212838D01*
X1741932Y7212838D01*
X1741932Y7248906D01*
X1725422Y7248906D01*
X1725422Y7212838D01*
X1676146Y7212838D01*
X1676146Y7248906D01*
X1659636Y7248906D01*
X1659636Y7199375D01*
X1661007Y7197953D01*
X1664411Y7196277D01*
X1668983Y7194854D01*
X1673606Y7194296D01*
X1676146Y7194296D01*
X1676146Y7206996D01*
X1725422Y7206996D01*
X1725422Y7176516D01*
X1724812Y7172452D01*
X1722577Y7169708D01*
X1718259Y7168134D01*
X1711198Y7167625D01*
X1674875Y7167676D01*
X1661922Y7168032D01*
X1657857Y7168388D01*
X1655724Y7168845D01*
X1654098Y7169454D01*
X1652778Y7170267D01*
X1651507Y7171436D01*
X1649933Y7175703D01*
X1647901Y7182459D01*
X1645564Y7191248D01*
X1643125Y7201662D01*
X1640332Y7201662D01*
X1639824Y7170420D01*
X1636014Y7168896D01*
X1633626Y7167219D01*
X1632305Y7165289D01*
X1631950Y7163053D01*
X1632457Y7160107D01*
X1634134Y7157669D01*
X1637233Y7155738D01*
X1642110Y7154214D01*
X1648968Y7153148D01*
X1658112Y7152386D01*
X1669796Y7151979D01*
X1712722Y7151878D01*
X1720088Y7152081D01*
X1726285Y7152792D01*
X1731365Y7154011D01*
X1735328Y7155992D01*
X1738325Y7158685D01*
X1740357Y7162292D01*
X1741576Y7166813D01*
X1741932Y7172452D01*
X1741932Y7206996D01*
X1787652Y7206996D01*
X1787652Y7197090D01*
X1788871Y7195464D01*
X1792020Y7193635D01*
X1796440Y7192111D01*
X1801368Y7191502D01*
X1804162Y7191502D01*
X1804162Y7306309D01*
X1786382Y7298181D01*
X1741932Y7298181D01*
G37*
G36*
X1353820Y7333742D02*
G01*
X1328928Y7326884D01*
X1329842Y7325461D01*
X1331264Y7324547D01*
X1333449Y7324191D01*
X1336802Y7324344D01*
X1341628Y7317079D01*
X1347216Y7309866D01*
X1280160Y7309866D01*
X1267968Y7319772D01*
X1251227Y7303770D01*
X1352296Y7303770D01*
X1357630Y7297674D01*
X1353667Y7293914D01*
X1344777Y7286904D01*
X1339951Y7283653D01*
X1334871Y7280554D01*
X1329537Y7277608D01*
X1318260Y7272274D01*
X1307896Y7279538D01*
X1298397Y7287259D01*
X1289862Y7295337D01*
X1285900Y7299502D01*
X1282192Y7303770D01*
X1251227Y7303770D01*
X1250696Y7303262D01*
X1252067Y7301992D01*
X1253998Y7301179D01*
X1256690Y7300620D01*
X1260348Y7300214D01*
X1264666Y7295438D01*
X1269288Y7290765D01*
X1274114Y7286294D01*
X1284579Y7277709D01*
X1295857Y7269734D01*
X1301750Y7265924D01*
X1289405Y7261961D01*
X1276654Y7258558D01*
X1263599Y7255560D01*
X1250391Y7253071D01*
X1237030Y7251039D01*
X1223772Y7249414D01*
X1224280Y7247128D01*
X1229156Y7245146D01*
X1233170Y7241895D01*
X1235144Y7239000D01*
X1268984Y7239000D01*
X1281531Y7242911D01*
X1293672Y7247331D01*
X1305356Y7252309D01*
X1316482Y7257796D01*
X1325676Y7253274D01*
X1335278Y7249159D01*
X1345234Y7245350D01*
X1355547Y7241895D01*
X1366164Y7238746D01*
X1377188Y7235952D01*
X1364742Y7230109D01*
X1276858Y7230109D01*
X1268984Y7239000D01*
X1235144Y7239000D01*
X1236218Y7237425D01*
X1238250Y7231888D01*
X1252778Y7234885D01*
X1266698Y7238238D01*
X1250188Y7225538D01*
X1251464Y7224268D01*
X1366012Y7224268D01*
X1366012Y7197598D01*
X1327404Y7197598D01*
X1327404Y7224268D01*
X1312418Y7224268D01*
X1312418Y7197598D01*
X1274826Y7197598D01*
X1274826Y7224268D01*
X1251464Y7224268D01*
X1253134Y7223201D01*
X1255471Y7222236D01*
X1258316Y7221474D01*
X1258316Y7191756D01*
X1366012Y7191756D01*
X1366012Y7164831D01*
X1327404Y7164831D01*
X1327404Y7191756D01*
X1312418Y7191756D01*
X1312418Y7164831D01*
X1274826Y7164831D01*
X1274826Y7191756D01*
X1258316Y7191756D01*
X1258316Y7151878D01*
X1259840Y7150760D01*
X1263294Y7149236D01*
X1267764Y7147864D01*
X1272286Y7147306D01*
X1274826Y7147306D01*
X1274826Y7158990D01*
X1366012Y7158990D01*
X1366012Y7151624D01*
X1367231Y7149998D01*
X1370380Y7148169D01*
X1374800Y7146645D01*
X1379728Y7146036D01*
X1382268Y7146036D01*
X1382268Y7234428D01*
X1397965Y7231227D01*
X1414272Y7228586D01*
X1415796Y7231888D01*
X1404061Y7234834D01*
X1392529Y7238187D01*
X1381201Y7241895D01*
X1370126Y7246010D01*
X1359408Y7250379D01*
X1348994Y7255103D01*
X1338986Y7260132D01*
X1329436Y7265416D01*
X1338326Y7271766D01*
X1346606Y7278624D01*
X1354175Y7286040D01*
X1357680Y7290003D01*
X1360932Y7294118D01*
X1371498Y7283653D01*
X1377086Y7278624D01*
X1388770Y7269276D01*
X1394764Y7265009D01*
X1400810Y7261098D01*
X1406906Y7257542D01*
X1409192Y7259574D01*
X1401064Y7266736D01*
X1392986Y7274966D01*
X1385112Y7284059D01*
X1377594Y7293711D01*
X1370584Y7303719D01*
X1364132Y7313879D01*
X1358544Y7323988D01*
G37*
G36*
X980948Y7333742D02*
G01*
X958596Y7331202D01*
X959154Y7329119D01*
X960424Y7327442D01*
X962609Y7326274D01*
X965708Y7325614D01*
X965708Y7289038D01*
X960374Y7289038D01*
X951484Y7302246D01*
X945845Y7296861D01*
X940866Y7291730D01*
X936244Y7286498D01*
X936447Y7285431D01*
X937107Y7284567D01*
X938072Y7283907D01*
X939292Y7283450D01*
X891540Y7283450D01*
X891540Y7307834D01*
X903681Y7306208D01*
X928166Y7303668D01*
X940308Y7302753D01*
X941069Y7306309D01*
X928166Y7308748D01*
X914857Y7311644D01*
X901446Y7314895D01*
X888237Y7318451D01*
X875639Y7322108D01*
X863904Y7325868D01*
X853440Y7329627D01*
X844550Y7333234D01*
X827532Y7317486D01*
X829259Y7316470D01*
X831646Y7316114D01*
X834745Y7316470D01*
X838453Y7317740D01*
X855675Y7313980D01*
X875537Y7310374D01*
X875537Y7283450D01*
X848868Y7283450D01*
X838200Y7296658D01*
X831443Y7291222D01*
X819403Y7280656D01*
X820064Y7279182D01*
X821182Y7278166D01*
X822706Y7277557D01*
X824484Y7277353D01*
X875537Y7277353D01*
X875537Y7168388D01*
X891540Y7168388D01*
X891540Y7253478D01*
X892454Y7253071D01*
X893622Y7252970D01*
X894994Y7253274D01*
X896619Y7253986D01*
X902208Y7251903D01*
X909370Y7249566D01*
X917295Y7247331D01*
X925321Y7245350D01*
X925321Y7211059D01*
X916940Y7211059D01*
X909828Y7221728D01*
X896619Y7208520D01*
X897128Y7207046D01*
X898194Y7206030D01*
X899769Y7205421D01*
X901700Y7205218D01*
X925321Y7205218D01*
X925321Y7168388D01*
X843534Y7168388D01*
X843534Y7205218D01*
X866140Y7205218D01*
X868171Y7211059D01*
X843534Y7211059D01*
X843534Y7246366D01*
X867156Y7246366D01*
X868934Y7252462D01*
X845312Y7252462D01*
X837184Y7261352D01*
X820419Y7248144D01*
X821486Y7247026D01*
X823163Y7245959D01*
X825296Y7245045D01*
X827786Y7244334D01*
X827786Y7153148D01*
X829208Y7151878D01*
X832510Y7150252D01*
X836726Y7148880D01*
X840994Y7148322D01*
X843534Y7148322D01*
X843534Y7162546D01*
X925321Y7162546D01*
X925321Y7151878D01*
X926287Y7150557D01*
X928776Y7148880D01*
X932738Y7147407D01*
X938276Y7146798D01*
X940308Y7146798D01*
X940308Y7257034D01*
X923036Y7251446D01*
X912723Y7260386D01*
X904748Y7267956D01*
X891540Y7254494D01*
X891540Y7277353D01*
X943356Y7277353D01*
X944626Y7283196D01*
X965708Y7283196D01*
X965708Y7243318D01*
X942340Y7249922D01*
X941578Y7247381D01*
X952398Y7240828D01*
X965708Y7233158D01*
X965708Y7167372D01*
X965860Y7163053D01*
X966368Y7159193D01*
X967435Y7155789D01*
X969264Y7152894D01*
X972007Y7150455D01*
X975766Y7148525D01*
X980846Y7147052D01*
X987298Y7146036D01*
X987806Y7149490D01*
X988517Y7152589D01*
X989634Y7155281D01*
X991108Y7157466D01*
X993495Y7159244D01*
X996696Y7160818D01*
X1000810Y7162088D01*
X1006094Y7163053D01*
X1006094Y7166102D01*
X985266Y7164831D01*
X983183Y7165035D01*
X981862Y7165695D01*
X981151Y7166864D01*
X980948Y7168642D01*
X980948Y7225030D01*
X996696Y7216902D01*
X997458Y7215022D01*
X998524Y7213600D01*
X999794Y7212533D01*
X1001268Y7211822D01*
X1009650Y7232142D01*
X997762Y7234732D01*
X980948Y7239253D01*
X980948Y7283196D01*
X1007110Y7283196D01*
X1008634Y7289038D01*
X980948Y7289038D01*
G37*
G36*
X1502664Y7330948D02*
G01*
X1479804Y7328662D01*
X1480566Y7326579D01*
X1481886Y7324902D01*
X1484071Y7323632D01*
X1487424Y7322820D01*
X1487424Y7278116D01*
X1457960Y7289038D01*
X1458976Y7289038D01*
X1450340Y7297928D01*
X1433576Y7284212D01*
X1434896Y7283145D01*
X1436573Y7282281D01*
X1438706Y7281519D01*
X1441450Y7280909D01*
X1441856Y7258659D01*
X1442618Y7241031D01*
X1443786Y7227519D01*
X1444599Y7222134D01*
X1445564Y7217562D01*
X1446682Y7213701D01*
X1447952Y7210552D01*
X1449425Y7208012D01*
X1451102Y7205980D01*
X1454708Y7203186D01*
X1458976Y7201204D01*
X1463802Y7200036D01*
X1469136Y7199630D01*
X1469237Y7202982D01*
X1469644Y7206081D01*
X1470406Y7208723D01*
X1471676Y7210806D01*
X1473555Y7212228D01*
X1476095Y7213447D01*
X1479245Y7214514D01*
X1482852Y7215378D01*
X1482852Y7218680D01*
X1474571Y7218121D01*
X1467612Y7217918D01*
X1464157Y7218222D01*
X1462989Y7218680D01*
X1462024Y7219442D01*
X1461211Y7220712D01*
X1460449Y7222591D01*
X1459230Y7228331D01*
X1458366Y7237018D01*
X1457706Y7248804D01*
X1456944Y7282942D01*
X1487424Y7271766D01*
X1487424Y7190486D01*
X1488541Y7188809D01*
X1491437Y7187082D01*
X1495348Y7185710D01*
X1499616Y7185152D01*
X1502664Y7185152D01*
X1502664Y7265924D01*
X1529842Y7255764D01*
X1529842Y7176008D01*
X1529232Y7172248D01*
X1526946Y7169607D01*
X1522222Y7168134D01*
X1514348Y7167625D01*
X1473098Y7167727D01*
X1453896Y7168388D01*
X1451711Y7168743D01*
X1450035Y7169353D01*
X1448714Y7170369D01*
X1447546Y7171690D01*
X1445818Y7175703D01*
X1443837Y7182053D01*
X1439164Y7200646D01*
X1436370Y7200646D01*
X1436116Y7170674D01*
X1432306Y7169150D01*
X1429918Y7167473D01*
X1428597Y7165543D01*
X1428242Y7163308D01*
X1428445Y7161326D01*
X1429156Y7159548D01*
X1430426Y7157974D01*
X1432407Y7156602D01*
X1435100Y7155434D01*
X1438706Y7154468D01*
X1443278Y7153656D01*
X1448917Y7152995D01*
X1463700Y7152131D01*
X1483868Y7151878D01*
X1515618Y7151878D01*
X1523238Y7152081D01*
X1529537Y7152741D01*
X1534668Y7153960D01*
X1538630Y7155840D01*
X1541576Y7158431D01*
X1543608Y7161936D01*
X1544726Y7166406D01*
X1545082Y7171944D01*
X1545082Y7250175D01*
X1564640Y7242809D01*
X1568450Y7247636D01*
X1545082Y7256525D01*
X1545082Y7312406D01*
X1522476Y7309866D01*
X1523187Y7308037D01*
X1524558Y7306411D01*
X1526743Y7305090D01*
X1529842Y7304278D01*
X1529842Y7262114D01*
X1502664Y7272528D01*
G37*
G36*
X1601470Y7330694D02*
G01*
X1593240Y7329424D01*
X1586230Y7327595D01*
X1580489Y7325309D01*
X1575816Y7322667D01*
X1572209Y7319772D01*
X1569618Y7316724D01*
X1567891Y7313625D01*
X1566976Y7310628D01*
X1566875Y7307783D01*
X1567383Y7305192D01*
X1568551Y7303008D01*
X1570228Y7301280D01*
X1572412Y7300112D01*
X1574952Y7299655D01*
X1577797Y7300010D01*
X1580896Y7301230D01*
X1584553Y7308951D01*
X1590090Y7316520D01*
X1596593Y7323328D01*
X1603248Y7328916D01*
G37*
G36*
X1053592Y7328662D02*
G01*
X1033780Y7313675D01*
X1034984Y7312659D01*
X1169924Y7312659D01*
X1169924Y7271003D01*
X1125220Y7271003D01*
X1125220Y7312659D01*
X1108964Y7312659D01*
X1108964Y7271003D01*
X1059942Y7271003D01*
X1059942Y7312659D01*
X1034984Y7312659D01*
X1037590Y7310983D01*
X1040333Y7309866D01*
X1043686Y7309103D01*
X1043686Y7265162D01*
X1169924Y7265162D01*
X1169924Y7248093D01*
X1170584Y7230973D01*
X1171448Y7222236D01*
X1125220Y7222236D01*
X1125220Y7265162D01*
X1108964Y7265162D01*
X1108964Y7222236D01*
X1059942Y7222236D01*
X1059942Y7265162D01*
X1043686Y7265162D01*
X1043686Y7169150D01*
X1043838Y7164730D01*
X1044397Y7160768D01*
X1045565Y7157313D01*
X1047546Y7154265D01*
X1050544Y7151776D01*
X1054709Y7149744D01*
X1060348Y7148169D01*
X1067562Y7147052D01*
X1068222Y7150760D01*
X1069136Y7153960D01*
X1070457Y7156703D01*
X1072388Y7158990D01*
X1075080Y7160666D01*
X1078788Y7162190D01*
X1083767Y7163612D01*
X1090168Y7164831D01*
X1090168Y7168134D01*
X1064768Y7166102D01*
X1062431Y7166406D01*
X1060907Y7167372D01*
X1060145Y7168896D01*
X1059942Y7170928D01*
X1059942Y7216140D01*
X1108964Y7216140D01*
X1108964Y7153148D01*
X1109878Y7151827D01*
X1112520Y7150150D01*
X1116685Y7148677D01*
X1122172Y7148068D01*
X1125220Y7148068D01*
X1125220Y7216140D01*
X1172210Y7216140D01*
X1173276Y7209790D01*
X1174597Y7203490D01*
X1176223Y7197293D01*
X1178153Y7191095D01*
X1180388Y7185050D01*
X1183081Y7179106D01*
X1186129Y7173264D01*
X1189634Y7167575D01*
X1193647Y7162088D01*
X1198118Y7156805D01*
X1203198Y7151674D01*
X1208786Y7146798D01*
X1211834Y7148830D01*
X1208532Y7153402D01*
X1205484Y7158126D01*
X1202740Y7162952D01*
X1198067Y7172909D01*
X1196086Y7178040D01*
X1192834Y7188504D01*
X1191463Y7193889D01*
X1189380Y7204811D01*
X1187907Y7215987D01*
X1186942Y7227316D01*
X1186434Y7238847D01*
X1186180Y7250430D01*
X1186180Y7326122D01*
X1167130Y7318502D01*
X1062228Y7318502D01*
G37*
G36*
X649986Y7313675D02*
G01*
X629158Y7297166D01*
X630021Y7296403D01*
X764540Y7296403D01*
X764540Y7185406D01*
X657098Y7185406D01*
X657098Y7296403D01*
X630021Y7296403D01*
X630885Y7295642D01*
X633272Y7294168D01*
X636371Y7292898D01*
X640080Y7292086D01*
X640080Y7162038D01*
X641756Y7160717D01*
X645363Y7159040D01*
X649986Y7157567D01*
X654812Y7156958D01*
X657098Y7156958D01*
X657098Y7179309D01*
X764540Y7179309D01*
X764540Y7160006D01*
X765759Y7158177D01*
X768959Y7156043D01*
X773531Y7154367D01*
X778764Y7153656D01*
X781812Y7153656D01*
X781812Y7310628D01*
X763270Y7302500D01*
X659892Y7302500D01*
G37*
G36*
X1560068Y7297674D02*
G01*
X1556258Y7296912D01*
X1577441Y7234275D01*
X1583944Y7213853D01*
X1586026Y7203998D01*
X1586738Y7199477D01*
X1586992Y7195312D01*
X1585874Y7188250D01*
X1583639Y7180630D01*
X1581607Y7171588D01*
X1580896Y7160259D01*
X1582064Y7154265D01*
X1584706Y7149693D01*
X1588668Y7146798D01*
X1593850Y7145781D01*
X1596542Y7146391D01*
X1598828Y7148271D01*
X1600606Y7151370D01*
X1601724Y7155688D01*
X1600758Y7163206D01*
X1600200Y7170267D01*
X1599996Y7176770D01*
X1600149Y7182561D01*
X1600657Y7187488D01*
X1601520Y7191502D01*
X1602740Y7194397D01*
X1604264Y7196074D01*
X1606296Y7197344D01*
X1608582Y7198156D01*
X1614424Y7199122D01*
X1614424Y7203440D01*
X1603603Y7203490D01*
X1602282Y7203998D01*
X1601063Y7205268D01*
X1597710Y7211618D01*
X1593545Y7220559D01*
G37*
G36*
X1616964Y7283450D02*
G01*
X1608988Y7282230D01*
X1602282Y7280503D01*
X1596694Y7278319D01*
X1592275Y7275779D01*
X1588820Y7272985D01*
X1586382Y7270089D01*
X1584756Y7267194D01*
X1583994Y7264298D01*
X1583893Y7261606D01*
X1584502Y7259167D01*
X1585671Y7257135D01*
X1587347Y7255560D01*
X1589481Y7254544D01*
X1591919Y7254240D01*
X1594713Y7254697D01*
X1597660Y7256018D01*
X1601063Y7263180D01*
X1606194Y7270191D01*
X1612341Y7276541D01*
X1618742Y7281672D01*
G37*
G36*
X1284478Y7086600D02*
G01*
X1278991Y7086396D01*
X1273810Y7085787D01*
X1268882Y7084771D01*
X1264208Y7083450D01*
X1259789Y7081723D01*
X1255572Y7079742D01*
X1251610Y7077456D01*
X1247902Y7074916D01*
X1249172Y7045706D01*
X1260856Y7045706D01*
X1266444Y7072375D01*
X1270762Y7074458D01*
X1275130Y7075881D01*
X1279702Y7076694D01*
X1284732Y7076948D01*
X1291183Y7076541D01*
X1297076Y7075271D01*
X1302359Y7073138D01*
X1306880Y7070242D01*
X1310589Y7066534D01*
X1313383Y7062063D01*
X1315110Y7056780D01*
X1315720Y7050786D01*
X1315313Y7045706D01*
X1314043Y7041134D01*
X1311960Y7037070D01*
X1309166Y7033361D01*
X1305560Y7030008D01*
X1301242Y7027011D01*
X1296263Y7024319D01*
X1274622Y7015327D01*
X1268374Y7012330D01*
X1262786Y7009231D01*
X1257960Y7006031D01*
X1253744Y7002729D01*
X1250238Y6999224D01*
X1247292Y6995515D01*
X1244955Y6991654D01*
X1243228Y6987489D01*
X1242009Y6983069D01*
X1241298Y6978345D01*
X1241044Y6973316D01*
X1241501Y6966915D01*
X1242771Y6961022D01*
X1244854Y6955536D01*
X1247698Y6950557D01*
X1251305Y6946138D01*
X1255572Y6942226D01*
X1260500Y6938822D01*
X1266037Y6936028D01*
X1272133Y6933793D01*
X1278737Y6932218D01*
X1285849Y6931202D01*
X1293368Y6930898D01*
X1299616Y6931152D01*
X1305763Y6931812D01*
X1311706Y6932930D01*
X1317447Y6934403D01*
X1322832Y6936181D01*
X1327861Y6938162D01*
X1332484Y6940448D01*
X1336548Y6942836D01*
X1335278Y6974078D01*
X1323848Y6974078D01*
X1318260Y6946138D01*
X1312926Y6943699D01*
X1307439Y6942023D01*
X1301496Y6941108D01*
X1294892Y6940803D01*
X1287170Y6941261D01*
X1280210Y6942581D01*
X1274165Y6944817D01*
X1269034Y6947865D01*
X1264869Y6951827D01*
X1261872Y6956552D01*
X1259992Y6962140D01*
X1259332Y6968490D01*
X1259738Y6973570D01*
X1260906Y6978040D01*
X1262938Y6982002D01*
X1265885Y6985558D01*
X1269746Y6988809D01*
X1274572Y6991858D01*
X1280363Y6994753D01*
X1295654Y7001256D01*
X1306525Y7006234D01*
X1311402Y7009028D01*
X1315872Y7011974D01*
X1319936Y7015175D01*
X1323492Y7018629D01*
X1326591Y7022338D01*
X1329182Y7026351D01*
X1331264Y7030669D01*
X1332788Y7035292D01*
X1333703Y7040321D01*
X1334008Y7045706D01*
X1333550Y7051954D01*
X1332280Y7057745D01*
X1330198Y7063028D01*
X1327353Y7067803D01*
X1323848Y7072122D01*
X1319733Y7075881D01*
X1315008Y7079081D01*
X1309725Y7081774D01*
X1303985Y7083856D01*
X1297838Y7085380D01*
X1291336Y7086295D01*
G37*
G36*
X823468Y7086092D02*
G01*
X819099Y7085838D01*
X814781Y7085075D01*
X810514Y7083806D01*
X806399Y7082028D01*
X802386Y7079640D01*
X798576Y7076643D01*
X794969Y7073087D01*
X791565Y7068870D01*
X788517Y7063994D01*
X785723Y7058456D01*
X783234Y7052208D01*
X781202Y7045248D01*
X779526Y7037578D01*
X778256Y7029145D01*
X777494Y7019899D01*
X777240Y7009892D01*
X797052Y7009892D01*
X797306Y7022439D01*
X798068Y7033412D01*
X799287Y7042912D01*
X800912Y7051040D01*
X802894Y7057898D01*
X805230Y7063536D01*
X807821Y7068108D01*
X810615Y7071614D01*
X813663Y7074204D01*
X816813Y7075931D01*
X820115Y7076897D01*
X823468Y7077202D01*
X826973Y7076897D01*
X830427Y7075931D01*
X833780Y7074204D01*
X836879Y7071614D01*
X839825Y7068108D01*
X842518Y7063536D01*
X844905Y7057898D01*
X846937Y7051040D01*
X848614Y7042912D01*
X849833Y7033412D01*
X850646Y7022439D01*
X850900Y7009892D01*
X850747Y6999935D01*
X850290Y6990892D01*
X849579Y6982764D01*
X848614Y6975449D01*
X847394Y6968998D01*
X845972Y6963257D01*
X844346Y6958279D01*
X842518Y6953961D01*
X840536Y6950354D01*
X838403Y6947306D01*
X836117Y6944868D01*
X833729Y6942937D01*
X831291Y6941515D01*
X828751Y6940499D01*
X826109Y6939940D01*
X823468Y6939788D01*
X820115Y6940092D01*
X816813Y6941159D01*
X813663Y6942937D01*
X810615Y6945680D01*
X807821Y6949338D01*
X805230Y6954062D01*
X802894Y6959955D01*
X800912Y6967118D01*
X799287Y6975602D01*
X798068Y6985457D01*
X797306Y6996887D01*
X797052Y7009892D01*
X777240Y7009892D01*
X777494Y6999528D01*
X778256Y6989978D01*
X779526Y6981240D01*
X781202Y6973316D01*
X783234Y6966153D01*
X785723Y6959701D01*
X788517Y6954012D01*
X791565Y6949033D01*
X794969Y6944715D01*
X798576Y6941058D01*
X802386Y6938009D01*
X806399Y6935571D01*
X810514Y6933692D01*
X814781Y6932422D01*
X819099Y6931659D01*
X823468Y6931406D01*
X827989Y6931659D01*
X832408Y6932422D01*
X836777Y6933692D01*
X840994Y6935571D01*
X845058Y6938009D01*
X848918Y6941058D01*
X852576Y6944715D01*
X856030Y6949033D01*
X859129Y6954012D01*
X861974Y6959701D01*
X864412Y6966153D01*
X866495Y6973316D01*
X868171Y6981240D01*
X869442Y6989978D01*
X870203Y6999528D01*
X870458Y7009892D01*
X870203Y7019899D01*
X869442Y7029145D01*
X868171Y7037578D01*
X866495Y7045248D01*
X864412Y7052208D01*
X861974Y7058456D01*
X859129Y7063994D01*
X856030Y7068870D01*
X852576Y7073087D01*
X848918Y7076643D01*
X845058Y7079640D01*
X840994Y7082028D01*
X836777Y7083806D01*
X832408Y7085075D01*
X827989Y7085838D01*
G37*
G36*
X993140Y7085330D02*
G01*
X990092Y7083044D01*
X991108Y7051040D01*
X991057Y6972249D01*
X990600Y6945630D01*
X959358Y6941058D01*
X959358Y6934200D01*
X1041400Y6934200D01*
X1041400Y6941058D01*
X1009650Y6945630D01*
X1009446Y6963308D01*
X1009396Y7068566D01*
X1038860Y7065772D01*
X1038860Y7073392D01*
G37*
G36*
X1068070Y7083044D02*
G01*
X1068070Y7075424D01*
X1088644Y7073138D01*
X1089101Y7043826D01*
X1089050Y6966305D01*
X1088644Y6944106D01*
X1068070Y6941820D01*
X1068070Y6934200D01*
X1130300Y6934200D01*
X1130300Y6941820D01*
X1109980Y6944106D01*
X1109522Y6973570D01*
X1109472Y7006081D01*
X1182116Y7006081D01*
X1182014Y6966254D01*
X1181608Y6944106D01*
X1161034Y6941820D01*
X1161034Y6934200D01*
X1223518Y6934200D01*
X1223518Y6941820D01*
X1202690Y6944106D01*
X1202486Y6973468D01*
X1202486Y7051090D01*
X1202690Y7073138D01*
X1223518Y7075424D01*
X1223518Y7083044D01*
X1161034Y7083044D01*
X1161034Y7075424D01*
X1181608Y7073138D01*
X1182065Y7044232D01*
X1182116Y7014972D01*
X1109472Y7014972D01*
X1109573Y7051344D01*
X1109980Y7073138D01*
X1130300Y7075424D01*
X1130300Y7083044D01*
G37*
G36*
X913130Y6961631D02*
G01*
X907237Y6960412D01*
X902360Y6957110D01*
X899109Y6952183D01*
X897890Y6946138D01*
X899109Y6940499D01*
X902360Y6935825D01*
X907237Y6932625D01*
X913130Y6931406D01*
X919022Y6932625D01*
X923747Y6935825D01*
X926947Y6940499D01*
X928116Y6946138D01*
X926947Y6952183D01*
X923747Y6957110D01*
X919022Y6960412D01*
G37*
G36*
X3151378Y7086600D02*
G01*
X3145891Y7086396D01*
X3140710Y7085787D01*
X3135782Y7084771D01*
X3131108Y7083450D01*
X3126689Y7081723D01*
X3122472Y7079742D01*
X3118510Y7077456D01*
X3114802Y7074916D01*
X3116072Y7045706D01*
X3127756Y7045706D01*
X3133344Y7072375D01*
X3137662Y7074458D01*
X3142030Y7075881D01*
X3146602Y7076694D01*
X3151632Y7076948D01*
X3158083Y7076541D01*
X3163976Y7075271D01*
X3169259Y7073138D01*
X3173780Y7070242D01*
X3177489Y7066534D01*
X3180283Y7062063D01*
X3182010Y7056780D01*
X3182620Y7050786D01*
X3182213Y7045706D01*
X3180943Y7041134D01*
X3178860Y7037070D01*
X3176066Y7033361D01*
X3172460Y7030008D01*
X3168142Y7027011D01*
X3163163Y7024319D01*
X3141522Y7015327D01*
X3135274Y7012330D01*
X3129686Y7009231D01*
X3124860Y7006031D01*
X3120644Y7002729D01*
X3117138Y6999224D01*
X3114192Y6995515D01*
X3111855Y6991654D01*
X3110128Y6987489D01*
X3108909Y6983069D01*
X3108198Y6978345D01*
X3107944Y6973316D01*
X3108401Y6966915D01*
X3109671Y6961022D01*
X3111754Y6955536D01*
X3114598Y6950557D01*
X3118205Y6946138D01*
X3122472Y6942226D01*
X3127400Y6938822D01*
X3132937Y6936028D01*
X3139033Y6933793D01*
X3145637Y6932218D01*
X3152749Y6931202D01*
X3160268Y6930898D01*
X3166516Y6931152D01*
X3172663Y6931812D01*
X3178606Y6932930D01*
X3184347Y6934403D01*
X3189732Y6936181D01*
X3194761Y6938162D01*
X3199384Y6940448D01*
X3203448Y6942836D01*
X3202178Y6974078D01*
X3190748Y6974078D01*
X3185160Y6946138D01*
X3179826Y6943699D01*
X3174339Y6942023D01*
X3168396Y6941108D01*
X3161792Y6940803D01*
X3154070Y6941261D01*
X3147110Y6942581D01*
X3141065Y6944817D01*
X3135934Y6947865D01*
X3131769Y6951827D01*
X3128772Y6956552D01*
X3126892Y6962140D01*
X3126232Y6968490D01*
X3126638Y6973570D01*
X3127806Y6978040D01*
X3129838Y6982002D01*
X3132785Y6985558D01*
X3136646Y6988809D01*
X3141472Y6991858D01*
X3147263Y6994753D01*
X3162554Y7001256D01*
X3173425Y7006234D01*
X3178302Y7009028D01*
X3182772Y7011974D01*
X3186836Y7015175D01*
X3190392Y7018629D01*
X3193491Y7022338D01*
X3196082Y7026351D01*
X3198164Y7030669D01*
X3199688Y7035292D01*
X3200603Y7040321D01*
X3200908Y7045706D01*
X3200450Y7051954D01*
X3199180Y7057745D01*
X3197098Y7063028D01*
X3194253Y7067803D01*
X3190748Y7072122D01*
X3186633Y7075881D01*
X3181908Y7079081D01*
X3176625Y7081774D01*
X3170885Y7083856D01*
X3164738Y7085380D01*
X3158236Y7086295D01*
G37*
G36*
X2690368Y7086092D02*
G01*
X2685999Y7085838D01*
X2681681Y7085075D01*
X2677414Y7083806D01*
X2673299Y7082028D01*
X2669286Y7079640D01*
X2665476Y7076643D01*
X2661869Y7073087D01*
X2658465Y7068870D01*
X2655417Y7063994D01*
X2652623Y7058456D01*
X2650134Y7052208D01*
X2648102Y7045248D01*
X2646426Y7037578D01*
X2645156Y7029145D01*
X2644394Y7019899D01*
X2644140Y7009892D01*
X2663952Y7009892D01*
X2664206Y7022439D01*
X2664968Y7033412D01*
X2666187Y7042912D01*
X2667812Y7051040D01*
X2669794Y7057898D01*
X2672130Y7063536D01*
X2674721Y7068108D01*
X2677515Y7071614D01*
X2680563Y7074204D01*
X2683713Y7075931D01*
X2687015Y7076897D01*
X2690368Y7077202D01*
X2693873Y7076897D01*
X2697327Y7075931D01*
X2700629Y7074204D01*
X2703779Y7071614D01*
X2706725Y7068108D01*
X2709418Y7063536D01*
X2711805Y7057898D01*
X2713837Y7051040D01*
X2715514Y7042912D01*
X2716733Y7033412D01*
X2717546Y7022439D01*
X2717800Y7009892D01*
X2717647Y6999935D01*
X2717190Y6990892D01*
X2716479Y6982764D01*
X2715514Y6975449D01*
X2714294Y6968998D01*
X2712872Y6963257D01*
X2711246Y6958279D01*
X2709418Y6953961D01*
X2707436Y6950354D01*
X2705303Y6947306D01*
X2703017Y6944868D01*
X2700629Y6942937D01*
X2698191Y6941515D01*
X2695651Y6940499D01*
X2693009Y6939940D01*
X2690368Y6939788D01*
X2687015Y6940092D01*
X2683713Y6941159D01*
X2680563Y6942937D01*
X2677515Y6945680D01*
X2674721Y6949338D01*
X2672130Y6954062D01*
X2669794Y6959955D01*
X2667812Y6967118D01*
X2666187Y6975602D01*
X2664968Y6985457D01*
X2664206Y6996887D01*
X2663952Y7009892D01*
X2644140Y7009892D01*
X2644394Y6999528D01*
X2645156Y6989978D01*
X2646426Y6981240D01*
X2648102Y6973316D01*
X2650134Y6966153D01*
X2652623Y6959701D01*
X2655417Y6954012D01*
X2658465Y6949033D01*
X2661869Y6944715D01*
X2665476Y6941058D01*
X2669286Y6938009D01*
X2673299Y6935571D01*
X2677414Y6933692D01*
X2681681Y6932422D01*
X2685999Y6931659D01*
X2690368Y6931406D01*
X2694889Y6931659D01*
X2699308Y6932422D01*
X2703677Y6933692D01*
X2707894Y6935571D01*
X2711958Y6938009D01*
X2715818Y6941058D01*
X2719476Y6944715D01*
X2722930Y6949033D01*
X2726029Y6954012D01*
X2728874Y6959701D01*
X2731312Y6966153D01*
X2733395Y6973316D01*
X2735072Y6981240D01*
X2736342Y6989978D01*
X2737104Y6999528D01*
X2737358Y7009892D01*
X2737104Y7019899D01*
X2736342Y7029145D01*
X2735072Y7037578D01*
X2733395Y7045248D01*
X2731312Y7052208D01*
X2728874Y7058456D01*
X2726029Y7063994D01*
X2722930Y7068870D01*
X2719476Y7073087D01*
X2715818Y7076643D01*
X2711958Y7079640D01*
X2707894Y7082028D01*
X2703677Y7083806D01*
X2699308Y7085075D01*
X2694889Y7085838D01*
G37*
G36*
X2860040Y7085330D02*
G01*
X2856992Y7083044D01*
X2858008Y7051040D01*
X2857957Y6972249D01*
X2857500Y6945630D01*
X2826258Y6941058D01*
X2826258Y6934200D01*
X2908300Y6934200D01*
X2908300Y6941058D01*
X2876550Y6945630D01*
X2876346Y6963308D01*
X2876296Y7068566D01*
X2905760Y7065772D01*
X2905760Y7073392D01*
G37*
G36*
X2934970Y7083044D02*
G01*
X2934970Y7075424D01*
X2955544Y7073138D01*
X2956001Y7043826D01*
X2955950Y6966305D01*
X2955544Y6944106D01*
X2934970Y6941820D01*
X2934970Y6934200D01*
X2997200Y6934200D01*
X2997200Y6941820D01*
X2976880Y6944106D01*
X2976422Y6973570D01*
X2976372Y7006081D01*
X3049016Y7006081D01*
X3048914Y6966254D01*
X3048508Y6944106D01*
X3027934Y6941820D01*
X3027934Y6934200D01*
X3090418Y6934200D01*
X3090418Y6941820D01*
X3069590Y6944106D01*
X3069386Y6973468D01*
X3069386Y7051090D01*
X3069590Y7073138D01*
X3090418Y7075424D01*
X3090418Y7083044D01*
X3027934Y7083044D01*
X3027934Y7075424D01*
X3048508Y7073138D01*
X3048965Y7044232D01*
X3049016Y7014972D01*
X2976372Y7014972D01*
X2976473Y7051344D01*
X2976880Y7073138D01*
X2997200Y7075424D01*
X2997200Y7083044D01*
G37*
G36*
X2780030Y6961631D02*
G01*
X2774137Y6960412D01*
X2769260Y6957110D01*
X2766009Y6952183D01*
X2764790Y6946138D01*
X2766009Y6940499D01*
X2769260Y6935825D01*
X2774137Y6932625D01*
X2780030Y6931406D01*
X2785922Y6932625D01*
X2790647Y6935825D01*
X2793847Y6940499D01*
X2795016Y6946138D01*
X2793847Y6952183D01*
X2790647Y6957110D01*
X2785922Y6960412D01*
G37*
G36*
X3236468Y6623050D02*
G01*
X3211830Y6620764D01*
X3212388Y6618630D01*
X3213760Y6616852D01*
X3216148Y6615531D01*
X3219704Y6614668D01*
X3219704Y6591046D01*
X3171190Y6591046D01*
X3160268Y6604762D01*
X3147110Y6593840D01*
X3140964Y6588252D01*
X3141624Y6586778D01*
X3142792Y6585762D01*
X3144367Y6585153D01*
X3146298Y6584950D01*
X3219704Y6584950D01*
X3219704Y6555740D01*
X3180588Y6555740D01*
X3172206Y6564884D01*
X3153410Y6550914D01*
X3154945Y6549644D01*
X3272536Y6549644D01*
X3272536Y6507480D01*
X3178556Y6507480D01*
X3178556Y6549644D01*
X3154945Y6549644D01*
X3156661Y6548577D01*
X3158998Y6547510D01*
X3161792Y6546596D01*
X3161792Y6495542D01*
X3163316Y6494119D01*
X3166872Y6492443D01*
X3171342Y6491020D01*
X3175762Y6490462D01*
X3178556Y6490462D01*
X3178556Y6501892D01*
X3272536Y6501892D01*
X3272536Y6494272D01*
X3273755Y6492748D01*
X3276904Y6490919D01*
X3281324Y6489344D01*
X3286251Y6488684D01*
X3288792Y6488684D01*
X3288792Y6563106D01*
X3271265Y6555740D01*
X3236468Y6555740D01*
G37*
G36*
X3492754Y6622796D02*
G01*
X3469894Y6620256D01*
X3470554Y6618224D01*
X3471875Y6616598D01*
X3474059Y6615430D01*
X3477260Y6614668D01*
X3477514Y6554216D01*
X3473043Y6562699D01*
X3465017Y6579717D01*
X3462274Y6586474D01*
X3441954Y6574790D01*
X3442919Y6573520D01*
X3444595Y6572605D01*
X3446881Y6572300D01*
X3449574Y6572758D01*
X3455060Y6567271D01*
X3461969Y6561074D01*
X3469741Y6554673D01*
X3477768Y6548628D01*
X3478326Y6535420D01*
X3479190Y6522923D01*
X3480511Y6511035D01*
X3482340Y6499860D01*
X3474415Y6496405D01*
X3467811Y6492748D01*
X3462426Y6488887D01*
X3458108Y6484975D01*
X3454908Y6481064D01*
X3452622Y6477254D01*
X3451199Y6473596D01*
X3450590Y6470192D01*
X3450691Y6467144D01*
X3451453Y6464503D01*
X3452723Y6462369D01*
X3454501Y6460845D01*
X3456635Y6459982D01*
X3459073Y6459880D01*
X3461765Y6460591D01*
X3464560Y6462268D01*
X3465474Y6466433D01*
X3466947Y6470700D01*
X3468979Y6475018D01*
X3471367Y6479336D01*
X3474110Y6483604D01*
X3480206Y6491630D01*
X3483356Y6495288D01*
X3486607Y6483299D01*
X3488588Y6477609D01*
X3490823Y6472123D01*
X3493363Y6466840D01*
X3496208Y6461760D01*
X3499307Y6456883D01*
X3502812Y6452158D01*
X3506622Y6447637D01*
X3510838Y6443268D01*
X3515461Y6439103D01*
X3520440Y6435090D01*
X3522979Y6438646D01*
X3519830Y6442252D01*
X3514242Y6449822D01*
X3509467Y6457797D01*
X3505454Y6466332D01*
X3502101Y6475374D01*
X3499358Y6484924D01*
X3497224Y6495034D01*
X3495548Y6505702D01*
X3494379Y6517030D01*
X3493515Y6528917D01*
X3492957Y6541465D01*
X3492703Y6554673D01*
G37*
G36*
X3843274Y6620509D02*
G01*
X3821176Y6618224D01*
X3821836Y6616293D01*
X3823106Y6614668D01*
X3825189Y6613448D01*
X3828287Y6612636D01*
X3828287Y6590792D01*
X3820668Y6590792D01*
X3811270Y6602984D01*
X3804970Y6597903D01*
X3793744Y6588252D01*
X3794404Y6586778D01*
X3795572Y6585762D01*
X3797249Y6585153D01*
X3799332Y6584950D01*
X3828287Y6584950D01*
X3828287Y6565646D01*
X3818890Y6565646D01*
X3811524Y6574028D01*
X3795014Y6561328D01*
X3796856Y6559803D01*
X3854450Y6559803D01*
X3854450Y6520434D01*
X3842512Y6520434D01*
X3842512Y6559803D01*
X3829050Y6559803D01*
X3829050Y6520434D01*
X3816858Y6520434D01*
X3816858Y6559803D01*
X3796856Y6559803D01*
X3798163Y6558991D01*
X3800551Y6558025D01*
X3803396Y6557264D01*
X3803396Y6511035D01*
X3804665Y6509816D01*
X3807561Y6508394D01*
X3811270Y6507226D01*
X3814826Y6506718D01*
X3816858Y6506718D01*
X3816858Y6514592D01*
X3828287Y6514592D01*
X3828287Y6502907D01*
X3820464Y6499758D01*
X3813962Y6496354D01*
X3808577Y6492748D01*
X3804361Y6489039D01*
X3801160Y6485280D01*
X3798925Y6481572D01*
X3797503Y6478016D01*
X3796893Y6474663D01*
X3796995Y6471666D01*
X3797757Y6469075D01*
X3798976Y6466992D01*
X3800703Y6465417D01*
X3802786Y6464554D01*
X3805174Y6464452D01*
X3807764Y6465163D01*
X3810508Y6466840D01*
X3812946Y6475120D01*
X3817112Y6483604D01*
X3822446Y6491681D01*
X3828287Y6498844D01*
X3828287Y6439916D01*
X3829253Y6438747D01*
X3831793Y6437122D01*
X3835704Y6435699D01*
X3840987Y6435090D01*
X3843274Y6435090D01*
X3843274Y6493510D01*
X3847439Y6487058D01*
X3851910Y6480860D01*
X3856736Y6474866D01*
X3861866Y6469176D01*
X3867302Y6463741D01*
X3873042Y6458559D01*
X3879087Y6453682D01*
X3885437Y6449060D01*
X3887724Y6451854D01*
X3879443Y6460693D01*
X3875532Y6465468D01*
X3868318Y6475577D01*
X3864965Y6480860D01*
X3858920Y6491782D01*
X3856126Y6497370D01*
X3851249Y6508800D01*
X3849115Y6514592D01*
X3854450Y6514592D01*
X3854450Y6509512D01*
X3855415Y6508292D01*
X3857904Y6506870D01*
X3861409Y6505702D01*
X3865372Y6505194D01*
X3867404Y6505194D01*
X3867404Y6571996D01*
X3853434Y6565646D01*
X3843274Y6565646D01*
X3843274Y6584950D01*
X3869690Y6584950D01*
X3871468Y6590792D01*
X3843274Y6590792D01*
G37*
G36*
X3359658Y6619748D02*
G01*
X3342894Y6606794D01*
X3344599Y6605270D01*
X3426460Y6605270D01*
X3426460Y6582156D01*
X3366008Y6582156D01*
X3366008Y6605270D01*
X3344599Y6605270D01*
X3345637Y6604609D01*
X3347770Y6603695D01*
X3350260Y6602984D01*
X3350260Y6576059D01*
X3426460Y6576059D01*
X3426460Y6553200D01*
X3366008Y6553200D01*
X3366008Y6576059D01*
X3350260Y6576059D01*
X3350260Y6543802D01*
X3351580Y6542328D01*
X3354882Y6540550D01*
X3359150Y6539077D01*
X3363468Y6538468D01*
X3366008Y6538468D01*
X3366008Y6547357D01*
X3426460Y6547357D01*
X3426460Y6540754D01*
X3427577Y6539433D01*
X3430574Y6537756D01*
X3434842Y6536283D01*
X3439668Y6535674D01*
X3441954Y6535674D01*
X3441954Y6618478D01*
X3425444Y6611366D01*
X3367786Y6611366D01*
G37*
G36*
X3763518Y6618986D02*
G01*
X3742182Y6616700D01*
X3742893Y6614617D01*
X3744264Y6612940D01*
X3746449Y6611772D01*
X3749548Y6611112D01*
X3749548Y6456172D01*
X3750157Y6448298D01*
X3752850Y6442252D01*
X3758996Y6438036D01*
X3769868Y6435598D01*
X3770376Y6438900D01*
X3771087Y6441795D01*
X3772204Y6444386D01*
X3773678Y6446520D01*
X3776116Y6448298D01*
X3779316Y6449771D01*
X3783380Y6451041D01*
X3788410Y6452108D01*
X3788410Y6455410D01*
X3767582Y6454140D01*
X3765651Y6454343D01*
X3764381Y6455003D01*
X3763721Y6456273D01*
X3763518Y6458204D01*
G37*
G36*
X3590290Y6618224D02*
G01*
X3574287Y6607556D01*
X3576421Y6605473D01*
X3582162Y6601358D01*
X3585718Y6599174D01*
X3584041Y6584645D01*
X3582009Y6570167D01*
X3579622Y6555841D01*
X3576777Y6541770D01*
X3573526Y6528054D01*
X3569766Y6514795D01*
X3565499Y6502044D01*
X3560673Y6489954D01*
X3558082Y6484162D01*
X3552342Y6473190D01*
X3545992Y6463131D01*
X3542537Y6458407D01*
X3538931Y6453987D01*
X3535172Y6449822D01*
X3536187Y6447790D01*
X3541471Y6446113D01*
X3546246Y6443268D01*
X3550208Y6439458D01*
X3553206Y6435090D01*
X3558184Y6442964D01*
X3562705Y6451295D01*
X3566820Y6460083D01*
X3570528Y6469329D01*
X3573830Y6479082D01*
X3576828Y6489293D01*
X3579520Y6499961D01*
X3581857Y6511137D01*
X3583990Y6522770D01*
X3585819Y6534861D01*
X3588816Y6560515D01*
X3591102Y6588048D01*
X3592829Y6617462D01*
G37*
G36*
X3670554Y6607302D02*
G01*
X3652774Y6593331D01*
X3654044Y6592062D01*
X3703320Y6592062D01*
X3703320Y6497320D01*
X3676904Y6497320D01*
X3676904Y6592062D01*
X3654044Y6592062D01*
X3655923Y6590893D01*
X3658412Y6589979D01*
X3661410Y6589268D01*
X3661410Y6480556D01*
X3662781Y6479184D01*
X3665982Y6477406D01*
X3670147Y6475882D01*
X3674364Y6475222D01*
X3676904Y6475222D01*
X3676904Y6491224D01*
X3703320Y6491224D01*
X3703320Y6469380D01*
X3704336Y6467602D01*
X3707079Y6465671D01*
X3711143Y6464147D01*
X3716020Y6463538D01*
X3718560Y6463538D01*
X3718560Y6605524D01*
X3702558Y6597903D01*
X3678936Y6597903D01*
G37*
G36*
X3885692Y6606540D02*
G01*
X3869436Y6594094D01*
X3870553Y6592976D01*
X3871654Y6592316D01*
X3909060Y6592316D01*
X3909060Y6502146D01*
X3891026Y6502146D01*
X3891026Y6592316D01*
X3871654Y6592316D01*
X3874617Y6590995D01*
X3877310Y6590284D01*
X3877310Y6486652D01*
X3878579Y6485229D01*
X3881424Y6483654D01*
X3885082Y6482384D01*
X3888740Y6481826D01*
X3891026Y6481826D01*
X3891026Y6496304D01*
X3909060Y6496304D01*
X3909060Y6475222D01*
X3909974Y6473698D01*
X3912463Y6472021D01*
X3916121Y6470700D01*
X3920490Y6470142D01*
X3923029Y6470142D01*
X3923029Y6605270D01*
X3908044Y6598412D01*
X3893058Y6598412D01*
G37*
G36*
X3636010Y6605524D02*
G01*
X3610101Y6601714D01*
X3610711Y6599986D01*
X3612083Y6598716D01*
X3614470Y6597802D01*
X3618229Y6597396D01*
X3618839Y6582714D01*
X3619804Y6568592D01*
X3621176Y6554876D01*
X3622954Y6541719D01*
X3625240Y6528968D01*
X3628186Y6516725D01*
X3631742Y6504940D01*
X3636010Y6493611D01*
X3641039Y6482689D01*
X3643884Y6477406D01*
X3650284Y6467144D01*
X3653790Y6462217D01*
X3661613Y6452565D01*
X3670503Y6443370D01*
X3680460Y6434582D01*
X3682746Y6436868D01*
X3675024Y6445707D01*
X3671417Y6450380D01*
X3664915Y6460083D01*
X3661918Y6465112D01*
X3656533Y6475679D01*
X3651859Y6486702D01*
X3647897Y6498234D01*
X3644493Y6510223D01*
X3641750Y6522720D01*
X3639565Y6535572D01*
X3637940Y6548831D01*
X3636822Y6562496D01*
X3636111Y6576517D01*
X3635857Y6590842D01*
G37*
G36*
X3792982Y6599681D02*
G01*
X3772915Y6597396D01*
X3773525Y6595618D01*
X3774744Y6594195D01*
X3776726Y6593078D01*
X3779774Y6592316D01*
X3779774Y6488938D01*
X3780739Y6487566D01*
X3783177Y6486093D01*
X3786530Y6484874D01*
X3790187Y6484366D01*
X3792982Y6484366D01*
G37*
G36*
X3506215Y6578600D02*
G01*
X3504184Y6570370D01*
X3502863Y6562648D01*
X3502202Y6555435D01*
X3502253Y6548932D01*
X3503066Y6543040D01*
X3504590Y6537909D01*
X3506825Y6533591D01*
X3509772Y6530085D01*
X3513378Y6527596D01*
X3516833Y6526682D01*
X3519881Y6527139D01*
X3522167Y6528714D01*
X3523538Y6531152D01*
X3523691Y6534302D01*
X3522319Y6537909D01*
X3517493Y6544005D01*
X3515715Y6547002D01*
X3513988Y6550812D01*
X3512413Y6555231D01*
X3511042Y6560312D01*
X3509975Y6565900D01*
X3509365Y6572046D01*
X3509264Y6578600D01*
G37*
G36*
X3359404Y6536181D02*
G01*
X3346754Y6526326D01*
X3340862Y6521196D01*
X3341370Y6519875D01*
X3342487Y6518909D01*
X3344113Y6518351D01*
X3346196Y6518148D01*
X3388868Y6518148D01*
X3388868Y6489954D01*
X3364484Y6489954D01*
X3354324Y6503416D01*
X3341014Y6492595D01*
X3335020Y6487160D01*
X3335832Y6485686D01*
X3337001Y6484670D01*
X3338576Y6484061D01*
X3340354Y6483858D01*
X3388868Y6483858D01*
X3388868Y6439154D01*
X3389782Y6438036D01*
X3392424Y6436614D01*
X3396589Y6435344D01*
X3402076Y6434836D01*
X3404870Y6434836D01*
X3404870Y6483858D01*
X3453892Y6483858D01*
X3455415Y6489954D01*
X3404870Y6489954D01*
X3404870Y6518148D01*
X3444240Y6518148D01*
X3445764Y6524244D01*
X3369564Y6524244D01*
G37*
G36*
X3178048Y6485382D02*
G01*
X3169666Y6482181D01*
X3162249Y6478778D01*
X3155848Y6475171D01*
X3150362Y6471462D01*
X3145739Y6467652D01*
X3141878Y6463842D01*
X3138881Y6460083D01*
X3136544Y6456375D01*
X3134918Y6452819D01*
X3133902Y6449415D01*
X3133445Y6446316D01*
X3133547Y6443472D01*
X3134156Y6440982D01*
X3135172Y6438950D01*
X3136595Y6437325D01*
X3138322Y6436207D01*
X3140405Y6435648D01*
X3142691Y6435699D01*
X3145180Y6436410D01*
X3147822Y6437884D01*
X3149854Y6443827D01*
X3152800Y6449974D01*
X3156458Y6456222D01*
X3160725Y6462369D01*
X3165348Y6468313D01*
X3170275Y6473901D01*
X3175203Y6479082D01*
X3180080Y6483604D01*
G37*
G36*
X3286251Y6484620D02*
G01*
X3284524Y6475323D01*
X3284270Y6466992D01*
X3285337Y6459677D01*
X3287369Y6453327D01*
X3290265Y6447993D01*
X3293770Y6443675D01*
X3297580Y6440271D01*
X3301492Y6437884D01*
X3306622Y6435852D01*
X3311601Y6435496D01*
X3315817Y6436918D01*
X3318510Y6440170D01*
X3318916Y6443878D01*
X3317697Y6447180D01*
X3315309Y6449974D01*
X3312160Y6452108D01*
X3308096Y6454089D01*
X3304082Y6456730D01*
X3300374Y6459982D01*
X3296970Y6463893D01*
X3294126Y6468313D01*
X3291890Y6473291D01*
X3290417Y6478727D01*
X3289808Y6484620D01*
G37*
G36*
X3218688Y6484620D02*
G01*
X3210610Y6480302D01*
X3203905Y6475780D01*
X3198469Y6471158D01*
X3194151Y6466535D01*
X3190951Y6461963D01*
X3188766Y6457594D01*
X3187446Y6453428D01*
X3186988Y6449568D01*
X3187192Y6446164D01*
X3188106Y6443218D01*
X3189528Y6440881D01*
X3191459Y6439255D01*
X3193694Y6438392D01*
X3196285Y6438341D01*
X3199028Y6439255D01*
X3201924Y6441186D01*
X3202940Y6446570D01*
X3204565Y6452108D01*
X3206648Y6457696D01*
X3209188Y6463284D01*
X3212033Y6468719D01*
X3215030Y6473901D01*
X3218129Y6478727D01*
X3221228Y6483096D01*
G37*
G36*
X3255264Y6483604D02*
G01*
X3249472Y6478524D01*
X3244900Y6473444D01*
X3241395Y6468414D01*
X3238855Y6463538D01*
X3237230Y6458915D01*
X3236417Y6454495D01*
X3236315Y6450482D01*
X3236874Y6446875D01*
X3237992Y6443776D01*
X3239566Y6441236D01*
X3241497Y6439306D01*
X3243732Y6438138D01*
X3246170Y6437731D01*
X3248710Y6438188D01*
X3251250Y6439560D01*
X3253740Y6441948D01*
X3253181Y6447028D01*
X3253028Y6452311D01*
X3253790Y6463080D01*
X3255467Y6473494D01*
X3257803Y6482842D01*
G37*
G36*
X1589532Y882650D02*
G01*
X1565402Y880110D01*
X1566113Y878128D01*
X1567484Y876452D01*
X1569770Y875131D01*
X1573022Y874268D01*
X1573022Y846836D01*
X1525778Y846836D01*
X1517142Y856742D01*
X1498854Y842264D01*
X1500202Y840994D01*
X1635251Y840994D01*
X1635251Y803402D01*
X1589532Y803402D01*
X1589532Y840994D01*
X1573022Y840994D01*
X1573022Y803402D01*
X1523746Y803402D01*
X1523746Y840994D01*
X1500202Y840994D01*
X1502003Y839825D01*
X1504391Y838708D01*
X1507236Y837946D01*
X1507236Y797560D01*
X1635251Y797560D01*
X1635251Y761492D01*
X1589532Y761492D01*
X1589532Y797560D01*
X1573022Y797560D01*
X1573022Y761492D01*
X1523746Y761492D01*
X1523746Y797560D01*
X1507236Y797560D01*
X1507236Y748030D01*
X1508607Y746607D01*
X1512011Y744931D01*
X1516583Y743508D01*
X1521206Y742950D01*
X1523746Y742950D01*
X1523746Y755650D01*
X1573022Y755650D01*
X1573022Y725170D01*
X1572412Y721106D01*
X1570177Y718362D01*
X1565859Y716788D01*
X1558798Y716280D01*
X1522476Y716330D01*
X1509522Y716686D01*
X1505458Y717042D01*
X1503324Y717499D01*
X1501698Y718108D01*
X1500378Y718921D01*
X1499108Y720090D01*
X1497533Y724357D01*
X1495501Y731113D01*
X1493164Y739902D01*
X1490726Y750316D01*
X1487932Y750316D01*
X1487424Y719074D01*
X1483614Y717550D01*
X1481226Y715873D01*
X1479905Y713943D01*
X1479550Y711708D01*
X1480058Y708761D01*
X1481734Y706323D01*
X1484833Y704392D01*
X1489710Y702868D01*
X1496568Y701802D01*
X1505712Y701040D01*
X1517396Y700633D01*
X1560322Y700532D01*
X1567688Y700735D01*
X1573885Y701446D01*
X1578965Y702665D01*
X1582928Y704646D01*
X1585925Y707339D01*
X1587957Y710946D01*
X1589176Y715467D01*
X1589532Y721106D01*
X1589532Y755650D01*
X1635251Y755650D01*
X1635251Y745744D01*
X1636471Y744118D01*
X1639620Y742289D01*
X1644040Y740765D01*
X1648968Y740156D01*
X1651762Y740156D01*
X1651762Y854964D01*
X1633982Y846836D01*
X1589532Y846836D01*
G37*
G36*
X975868Y882650D02*
G01*
X951230Y880364D01*
X951788Y878230D01*
X953160Y876452D01*
X955548Y875131D01*
X959103Y874268D01*
X959103Y850646D01*
X910590Y850646D01*
X899668Y864362D01*
X886510Y853440D01*
X880364Y847852D01*
X881024Y846378D01*
X882192Y845362D01*
X883767Y844753D01*
X885698Y844550D01*
X959103Y844550D01*
X959103Y815340D01*
X919987Y815340D01*
X911606Y824484D01*
X892810Y810514D01*
X894345Y809244D01*
X1011936Y809244D01*
X1011936Y767080D01*
X917956Y767080D01*
X917956Y809244D01*
X894345Y809244D01*
X896061Y808177D01*
X898398Y807110D01*
X901192Y806196D01*
X901192Y755142D01*
X902716Y753719D01*
X906271Y752043D01*
X910742Y750620D01*
X915162Y750062D01*
X917956Y750062D01*
X917956Y761492D01*
X1011936Y761492D01*
X1011936Y753872D01*
X1013155Y752348D01*
X1016304Y750519D01*
X1020724Y748944D01*
X1025652Y748284D01*
X1028192Y748284D01*
X1028192Y822706D01*
X1010666Y815340D01*
X975868Y815340D01*
G37*
G36*
X1232154Y882396D02*
G01*
X1209294Y879856D01*
X1209954Y877824D01*
X1211275Y876198D01*
X1213459Y875030D01*
X1216660Y874268D01*
X1216914Y813816D01*
X1212443Y822299D01*
X1204417Y839317D01*
X1201674Y846074D01*
X1181354Y834390D01*
X1182319Y833119D01*
X1183995Y832205D01*
X1186281Y831900D01*
X1188974Y832358D01*
X1194460Y826871D01*
X1201369Y820674D01*
X1209141Y814273D01*
X1217168Y808228D01*
X1217726Y795020D01*
X1218590Y782523D01*
X1219911Y770636D01*
X1221740Y759460D01*
X1213815Y756005D01*
X1207211Y752348D01*
X1201826Y748487D01*
X1197508Y744575D01*
X1194308Y740664D01*
X1192022Y736854D01*
X1190599Y733196D01*
X1189990Y729792D01*
X1190091Y726744D01*
X1190853Y724103D01*
X1192123Y721969D01*
X1193901Y720445D01*
X1196035Y719582D01*
X1198473Y719480D01*
X1201166Y720191D01*
X1203960Y721868D01*
X1204874Y726033D01*
X1206347Y730300D01*
X1208379Y734618D01*
X1210767Y738936D01*
X1213510Y743204D01*
X1219606Y751230D01*
X1222756Y754888D01*
X1226007Y742899D01*
X1227988Y737209D01*
X1230223Y731723D01*
X1232763Y726440D01*
X1235557Y721360D01*
X1238707Y716483D01*
X1242212Y711758D01*
X1246022Y707237D01*
X1250238Y702868D01*
X1254861Y698703D01*
X1259840Y694690D01*
X1262380Y698246D01*
X1259230Y701852D01*
X1253642Y709422D01*
X1248867Y717397D01*
X1244854Y725932D01*
X1241501Y734974D01*
X1238758Y744524D01*
X1236624Y754634D01*
X1234948Y765302D01*
X1233779Y776630D01*
X1232916Y788517D01*
X1232357Y801065D01*
X1232103Y814273D01*
G37*
G36*
X1350264Y879602D02*
G01*
X1327404Y877316D01*
X1328166Y875233D01*
X1329486Y873556D01*
X1331671Y872286D01*
X1335024Y871474D01*
X1335024Y826769D01*
X1305560Y837692D01*
X1306576Y837692D01*
X1297940Y846582D01*
X1281176Y832866D01*
X1282496Y831799D01*
X1284173Y830935D01*
X1286306Y830173D01*
X1289050Y829564D01*
X1289456Y807313D01*
X1290218Y789686D01*
X1291386Y776173D01*
X1292199Y770788D01*
X1293164Y766216D01*
X1294282Y762355D01*
X1295552Y759206D01*
X1297025Y756666D01*
X1298702Y754634D01*
X1302308Y751840D01*
X1306576Y749858D01*
X1311402Y748690D01*
X1316736Y748284D01*
X1316837Y751636D01*
X1317244Y754735D01*
X1318006Y757377D01*
X1319276Y759460D01*
X1321155Y760882D01*
X1323695Y762152D01*
X1326845Y763168D01*
X1330452Y764032D01*
X1330452Y767334D01*
X1322171Y766775D01*
X1315212Y766572D01*
X1311757Y766876D01*
X1310589Y767334D01*
X1309624Y768096D01*
X1308811Y769366D01*
X1308049Y771245D01*
X1306830Y776986D01*
X1305966Y785672D01*
X1305306Y797458D01*
X1304544Y831596D01*
X1335024Y820419D01*
X1335024Y739140D01*
X1336141Y737463D01*
X1339037Y735685D01*
X1342948Y734364D01*
X1347216Y733806D01*
X1350264Y733806D01*
X1350264Y814578D01*
X1377442Y804418D01*
X1377442Y724662D01*
X1376832Y720902D01*
X1374546Y718261D01*
X1369822Y716788D01*
X1361948Y716280D01*
X1320698Y716381D01*
X1301496Y717042D01*
X1299311Y717397D01*
X1297635Y718007D01*
X1296314Y719023D01*
X1295146Y720344D01*
X1293418Y724357D01*
X1291437Y730707D01*
X1286764Y749300D01*
X1283970Y749300D01*
X1283716Y719328D01*
X1279906Y717804D01*
X1277518Y716127D01*
X1276197Y714197D01*
X1275842Y711962D01*
X1276045Y709980D01*
X1276756Y708202D01*
X1278026Y706628D01*
X1280007Y705256D01*
X1282700Y704088D01*
X1286306Y703122D01*
X1290878Y702310D01*
X1296517Y701649D01*
X1311300Y700786D01*
X1331468Y700532D01*
X1363218Y700532D01*
X1370838Y700735D01*
X1377137Y701395D01*
X1382268Y702614D01*
X1386230Y704494D01*
X1389176Y707085D01*
X1391208Y710590D01*
X1392326Y715060D01*
X1392682Y720598D01*
X1392682Y798830D01*
X1412240Y791464D01*
X1416050Y796290D01*
X1392682Y805180D01*
X1392682Y861060D01*
X1370076Y858519D01*
X1370787Y856691D01*
X1372158Y855065D01*
X1374343Y853744D01*
X1377442Y852932D01*
X1377442Y810768D01*
X1350264Y821182D01*
G37*
G36*
X1449070Y879348D02*
G01*
X1440840Y878078D01*
X1433830Y876249D01*
X1428089Y873963D01*
X1423416Y871321D01*
X1419809Y868426D01*
X1417218Y865378D01*
X1415491Y862279D01*
X1414576Y859282D01*
X1414475Y856437D01*
X1414983Y853846D01*
X1416151Y851662D01*
X1417828Y849934D01*
X1420012Y848766D01*
X1422552Y848309D01*
X1425397Y848664D01*
X1428496Y849884D01*
X1432153Y857605D01*
X1437690Y865174D01*
X1444193Y871982D01*
X1450848Y877569D01*
G37*
G36*
X1099058Y879348D02*
G01*
X1082294Y866394D01*
X1083999Y864869D01*
X1165860Y864869D01*
X1165860Y841756D01*
X1105408Y841756D01*
X1105408Y864869D01*
X1083999Y864869D01*
X1085037Y864209D01*
X1087170Y863295D01*
X1089660Y862584D01*
X1089660Y835660D01*
X1165860Y835660D01*
X1165860Y812800D01*
X1105408Y812800D01*
X1105408Y835660D01*
X1089660Y835660D01*
X1089660Y803402D01*
X1090980Y801928D01*
X1094282Y800150D01*
X1098550Y798677D01*
X1102868Y798068D01*
X1105408Y798068D01*
X1105408Y806958D01*
X1165860Y806958D01*
X1165860Y800354D01*
X1166977Y799033D01*
X1169974Y797356D01*
X1174242Y795883D01*
X1179068Y795274D01*
X1181354Y795274D01*
X1181354Y878078D01*
X1164844Y870966D01*
X1107186Y870966D01*
G37*
G36*
X1407668Y846328D02*
G01*
X1403858Y845566D01*
X1425041Y782929D01*
X1431544Y762508D01*
X1433626Y752652D01*
X1434338Y748131D01*
X1434592Y743966D01*
X1433474Y736904D01*
X1431239Y729284D01*
X1429207Y720242D01*
X1428496Y708914D01*
X1429664Y702919D01*
X1432306Y698347D01*
X1436268Y695452D01*
X1441450Y694436D01*
X1444142Y695045D01*
X1446428Y696925D01*
X1448206Y700024D01*
X1449324Y704342D01*
X1448358Y711860D01*
X1447800Y718921D01*
X1447596Y725424D01*
X1447749Y731215D01*
X1448257Y736142D01*
X1449120Y740156D01*
X1450340Y743051D01*
X1451864Y744728D01*
X1453896Y745998D01*
X1456182Y746810D01*
X1462024Y747776D01*
X1462024Y752094D01*
X1451203Y752144D01*
X1449882Y752652D01*
X1448663Y753922D01*
X1445310Y760272D01*
X1441145Y769213D01*
G37*
G36*
X1245616Y838200D02*
G01*
X1243584Y829970D01*
X1242263Y822248D01*
X1241602Y815035D01*
X1241704Y808532D01*
X1242466Y802640D01*
X1243990Y797509D01*
X1246225Y793191D01*
X1249172Y789686D01*
X1252778Y787196D01*
X1256233Y786282D01*
X1259281Y786739D01*
X1261567Y788314D01*
X1262938Y790752D01*
X1263091Y793902D01*
X1261719Y797509D01*
X1256893Y803605D01*
X1255115Y806602D01*
X1253388Y810412D01*
X1251813Y814832D01*
X1250442Y819912D01*
X1249375Y825500D01*
X1248765Y831646D01*
X1248664Y838200D01*
G37*
G36*
X1464564Y832103D02*
G01*
X1456588Y830884D01*
X1449882Y829157D01*
X1444294Y826973D01*
X1439875Y824433D01*
X1436420Y821639D01*
X1433982Y818743D01*
X1432356Y815848D01*
X1431594Y812952D01*
X1431493Y810260D01*
X1432102Y807821D01*
X1433271Y805789D01*
X1434947Y804214D01*
X1437081Y803198D01*
X1439519Y802894D01*
X1442313Y803351D01*
X1445260Y804672D01*
X1448663Y811834D01*
X1453794Y818845D01*
X1459941Y825195D01*
X1466342Y830326D01*
G37*
G36*
X1098804Y795782D02*
G01*
X1086154Y785926D01*
X1080262Y780796D01*
X1080770Y779475D01*
X1081887Y778510D01*
X1083513Y777951D01*
X1085596Y777748D01*
X1128268Y777748D01*
X1128268Y749554D01*
X1103884Y749554D01*
X1093724Y763016D01*
X1080414Y752195D01*
X1074420Y746760D01*
X1075232Y745286D01*
X1076401Y744270D01*
X1077976Y743661D01*
X1079754Y743458D01*
X1128268Y743458D01*
X1128268Y698754D01*
X1129182Y697636D01*
X1131824Y696214D01*
X1135989Y694944D01*
X1141476Y694436D01*
X1144270Y694436D01*
X1144270Y743458D01*
X1193292Y743458D01*
X1194816Y749554D01*
X1144270Y749554D01*
X1144270Y777748D01*
X1183640Y777748D01*
X1185164Y783844D01*
X1108964Y783844D01*
G37*
G36*
X917448Y744982D02*
G01*
X909066Y741781D01*
X901649Y738378D01*
X895248Y734771D01*
X889762Y731062D01*
X885139Y727252D01*
X881278Y723442D01*
X878281Y719683D01*
X875944Y715975D01*
X874318Y712419D01*
X873302Y709015D01*
X872845Y705916D01*
X872947Y703072D01*
X873556Y700582D01*
X874572Y698550D01*
X875995Y696925D01*
X877722Y695807D01*
X879805Y695248D01*
X882091Y695299D01*
X884580Y696010D01*
X887221Y697484D01*
X889253Y703427D01*
X892200Y709574D01*
X895858Y715822D01*
X900125Y721969D01*
X904748Y727913D01*
X909675Y733501D01*
X914603Y738682D01*
X919480Y743204D01*
G37*
G36*
X1025652Y744220D02*
G01*
X1023924Y734923D01*
X1023670Y726592D01*
X1024737Y719277D01*
X1026820Y712927D01*
X1029665Y707593D01*
X1033170Y703275D01*
X1036980Y699871D01*
X1040892Y697484D01*
X1046022Y695452D01*
X1051001Y695096D01*
X1055217Y696518D01*
X1057910Y699770D01*
X1058316Y703478D01*
X1057097Y706780D01*
X1054709Y709574D01*
X1051560Y711708D01*
X1047496Y713689D01*
X1043482Y716330D01*
X1039774Y719582D01*
X1036370Y723493D01*
X1033526Y727913D01*
X1031290Y732891D01*
X1029817Y738327D01*
X1029208Y744220D01*
G37*
G36*
X958087Y744220D02*
G01*
X950010Y739902D01*
X943305Y735380D01*
X937869Y730758D01*
X933551Y726135D01*
X930351Y721563D01*
X928166Y717194D01*
X926846Y713028D01*
X926388Y709168D01*
X926592Y705764D01*
X927506Y702818D01*
X928928Y700481D01*
X930859Y698855D01*
X933094Y697992D01*
X935685Y697941D01*
X938428Y698855D01*
X941324Y700786D01*
X942340Y706170D01*
X943965Y711708D01*
X946048Y717296D01*
X948588Y722884D01*
X951433Y728319D01*
X954430Y733501D01*
X957529Y738327D01*
X960628Y742696D01*
G37*
G36*
X994664Y743204D02*
G01*
X988872Y738124D01*
X984300Y733044D01*
X980795Y728014D01*
X978255Y723138D01*
X976630Y718515D01*
X975817Y714095D01*
X975715Y710082D01*
X976274Y706475D01*
X977392Y703376D01*
X978966Y700836D01*
X980897Y698906D01*
X983132Y697738D01*
X985570Y697331D01*
X988110Y697788D01*
X990650Y699160D01*
X993140Y701548D01*
X992581Y706628D01*
X992428Y711911D01*
X993190Y722680D01*
X994867Y733094D01*
X997203Y742442D01*
G37*
D10*
X1168400Y621609D02*
G01*
X1168400Y526153D01*
X1168400Y621609D02*
G01*
X1127490Y621609D01*
X1113853Y617062D01*
X1109309Y612518D01*
X1104762Y603427D01*
X1104762Y594337D01*
X1109309Y585246D01*
X1113853Y580699D01*
X1127490Y576153D01*
X1168400Y576153D02*
G01*
X1127490Y576153D01*
X1113853Y571609D01*
X1109309Y567062D01*
X1104762Y557971D01*
X1104762Y544337D01*
X1109309Y535246D01*
X1113853Y530699D01*
X1127490Y526153D01*
X1168400Y526153D01*
X1033853Y607971D02*
G01*
X1033853Y526153D01*
X1074762Y567062D02*
G01*
X992946Y567062D01*
X1498600Y634309D02*
G01*
X1498600Y538853D01*
X1498600Y634309D02*
G01*
X1457690Y634309D01*
X1444053Y629762D01*
X1439509Y625218D01*
X1434962Y616127D01*
X1434962Y607037D01*
X1439509Y597946D01*
X1444053Y593399D01*
X1457690Y588853D01*
X1498600Y588853D02*
G01*
X1457690Y588853D01*
X1444053Y584309D01*
X1439509Y579762D01*
X1434962Y570671D01*
X1434962Y557037D01*
X1439509Y547946D01*
X1444053Y543399D01*
X1457690Y538853D01*
X1498600Y538853D01*
X1404962Y579762D02*
G01*
X1323146Y579762D01*
X3035162Y6780171D02*
G01*
X3044253Y6789262D01*
X3057890Y6793809D01*
X3076072Y6793809D01*
X3089709Y6789262D01*
X3098800Y6780171D01*
X3098800Y6771081D01*
X3094253Y6761990D01*
X3089709Y6757446D01*
X3080618Y6752899D01*
X3053346Y6743809D01*
X3044253Y6739262D01*
X3039709Y6734718D01*
X3035162Y6725627D01*
X3035162Y6711990D01*
X3044253Y6702899D01*
X3057890Y6698353D01*
X3076072Y6698353D01*
X3089709Y6702899D01*
X3098800Y6711990D01*
X3005162Y6739262D02*
G01*
X2923346Y6739262D01*
X2730362Y6780171D02*
G01*
X2739453Y6789262D01*
X2753090Y6793809D01*
X2771272Y6793809D01*
X2784909Y6789262D01*
X2794000Y6780171D01*
X2794000Y6771081D01*
X2789453Y6761990D01*
X2784909Y6757446D01*
X2775818Y6752899D01*
X2748546Y6743809D01*
X2739453Y6739262D01*
X2734909Y6734718D01*
X2730362Y6725627D01*
X2730362Y6711990D01*
X2739453Y6702899D01*
X2753090Y6698353D01*
X2771272Y6698353D01*
X2784909Y6702899D01*
X2794000Y6711990D01*
X2659453Y6780171D02*
G01*
X2659453Y6698353D01*
X2700362Y6739262D02*
G01*
X2618546Y6739262D01*
X1612762Y5294271D02*
G01*
X1621853Y5303362D01*
X1635490Y5307909D01*
X1653672Y5307909D01*
X1667309Y5303362D01*
X1676400Y5294271D01*
X1676400Y5285181D01*
X1671853Y5276090D01*
X1667309Y5271546D01*
X1658218Y5266999D01*
X1630946Y5257909D01*
X1621853Y5253362D01*
X1617309Y5248818D01*
X1612762Y5239727D01*
X1612762Y5226090D01*
X1621853Y5216999D01*
X1635490Y5212453D01*
X1653672Y5212453D01*
X1667309Y5216999D01*
X1676400Y5226090D01*
X1582762Y5253362D02*
G01*
X1500946Y5253362D01*
X2577962Y5294271D02*
G01*
X2587053Y5303362D01*
X2600690Y5307909D01*
X2618872Y5307909D01*
X2632509Y5303362D01*
X2641600Y5294271D01*
X2641600Y5285181D01*
X2637053Y5276090D01*
X2632509Y5271546D01*
X2623418Y5266999D01*
X2596146Y5257909D01*
X2587053Y5253362D01*
X2582509Y5248818D01*
X2577962Y5239727D01*
X2577962Y5226090D01*
X2587053Y5216999D01*
X2600690Y5212453D01*
X2618872Y5212453D01*
X2632509Y5216999D01*
X2641600Y5226090D01*
X2507053Y5294271D02*
G01*
X2507053Y5212453D01*
X2547962Y5253362D02*
G01*
X2466146Y5253362D01*
D11*
X1816100Y8649715D02*
G01*
X1816100Y8540750D01*
X1816100Y8649715D02*
G01*
X1769363Y8649715D01*
X1753870Y8644636D01*
X1748536Y8639302D01*
X1743455Y8628887D01*
X1743455Y8613394D01*
X1748536Y8602979D01*
X1753870Y8597900D01*
X1769363Y8592565D01*
X1816100Y8592565D01*
X1698752Y8649715D02*
G01*
X1641602Y8649715D01*
X1672589Y8608060D01*
X1657095Y8608060D01*
X1646681Y8602979D01*
X1641602Y8597900D01*
X1636268Y8582152D01*
X1636268Y8571737D01*
X1641602Y8556244D01*
X1652015Y8545829D01*
X1667510Y8540750D01*
X1683004Y8540750D01*
X1698752Y8545829D01*
X1703831Y8550910D01*
X1709165Y8561324D01*
X2590800Y8687815D02*
G01*
X2590800Y8578850D01*
X2590800Y8687815D02*
G01*
X2544063Y8687815D01*
X2528570Y8682736D01*
X2523236Y8677402D01*
X2518156Y8666987D01*
X2518156Y8651494D01*
X2523236Y8641079D01*
X2528570Y8636000D01*
X2544063Y8630665D01*
X2590800Y8630665D01*
X2431795Y8687815D02*
G01*
X2483865Y8615171D01*
X2405888Y8615171D01*
X2431795Y8687815D02*
G01*
X2431795Y8578850D01*
X863600Y2591815D02*
G01*
X863600Y2482850D01*
X863600Y2591815D02*
G01*
X816863Y2591815D01*
X801370Y2586736D01*
X796036Y2581402D01*
X790955Y2570987D01*
X790955Y2555494D01*
X796036Y2545079D01*
X801370Y2540000D01*
X816863Y2534665D01*
X863600Y2534665D01*
X756665Y2570987D02*
G01*
X746252Y2576321D01*
X730504Y2591815D01*
X730504Y2482850D01*
X1295400Y2833115D02*
G01*
X1295400Y2724150D01*
X1295400Y2833115D02*
G01*
X1248663Y2833115D01*
X1233170Y2828036D01*
X1227836Y2822702D01*
X1222755Y2812287D01*
X1222755Y2796794D01*
X1227836Y2786379D01*
X1233170Y2781300D01*
X1248663Y2775965D01*
X1295400Y2775965D01*
X1183131Y2807207D02*
G01*
X1183131Y2812287D01*
X1178052Y2822702D01*
X1172718Y2828036D01*
X1162304Y2833115D01*
X1141729Y2833115D01*
X1131315Y2828036D01*
X1125981Y2822702D01*
X1120902Y2812287D01*
X1120902Y2801873D01*
X1125981Y2791460D01*
X1136395Y2775965D01*
X1188465Y2724150D01*
X1115568Y2724150D01*
X3122422Y8585708D02*
G01*
X3127756Y8596121D01*
X3138170Y8606536D01*
X3148329Y8611615D01*
X3169158Y8611615D01*
X3179572Y8606536D01*
X3189986Y8596121D01*
X3195320Y8585708D01*
X3200400Y8569960D01*
X3200400Y8544052D01*
X3195320Y8528558D01*
X3189986Y8518144D01*
X3179572Y8507729D01*
X3169158Y8502650D01*
X3148329Y8502650D01*
X3138170Y8507729D01*
X3127756Y8518144D01*
X3122422Y8528558D01*
X3088131Y8611615D02*
G01*
X3088131Y8502650D01*
X3088131Y8611615D02*
G01*
X3015488Y8502650D01*
X3015488Y8611615D02*
G01*
X3015488Y8502650D01*
X2975863Y8585708D02*
G01*
X2975863Y8590787D01*
X2970784Y8601202D01*
X2965450Y8606536D01*
X2955290Y8611615D01*
X2934461Y8611615D01*
X2924047Y8606536D01*
X2918713Y8601202D01*
X2913634Y8590787D01*
X2913634Y8580374D01*
X2918713Y8569960D01*
X2929127Y8554465D01*
X2981197Y8502650D01*
X2908300Y8502650D01*
X1141221Y8458708D02*
G01*
X1146555Y8469121D01*
X1156970Y8479536D01*
X1167129Y8484615D01*
X1187957Y8484615D01*
X1198371Y8479536D01*
X1208786Y8469121D01*
X1214120Y8458708D01*
X1219200Y8442960D01*
X1219200Y8417052D01*
X1214120Y8401558D01*
X1208786Y8391144D01*
X1198371Y8380729D01*
X1187957Y8375650D01*
X1167129Y8375650D01*
X1156970Y8380729D01*
X1146555Y8391144D01*
X1141221Y8401558D01*
X1106931Y8484615D02*
G01*
X1106931Y8375650D01*
X1106931Y8484615D02*
G01*
X1034287Y8375650D01*
X1034287Y8484615D02*
G01*
X1034287Y8375650D01*
X999997Y8463787D02*
G01*
X989584Y8469121D01*
X974089Y8484615D01*
X974089Y8375650D01*
D12*
X3035300Y7442200D02*
G01*
X2832100Y7442200D01*
X2825584Y7886700D02*
G01*
X2705100Y7886700D01*
X2705100Y7696200D01*
X3149600Y7696200D02*
G01*
X3149600Y7886700D01*
X3041815Y7886700D01*
X1295400Y7442200D02*
G01*
X1092200Y7442200D01*
X1085684Y7886700D02*
G01*
X965200Y7886700D01*
X965200Y7696200D01*
X1409700Y7696200D02*
G01*
X1409700Y7886700D01*
X1301915Y7886700D01*
M02*
